<svg width="296" height="568" fill="none" xmlns="http://www.w3.org/2000/svg"><path d="M14.167 15C-7.604 134.969 282.387 35.58 285 143M11.18 300C-10.831 419.969 282.359 320.58 285 428m-1.821-279C311.603 294-2.347 162 13.587 294m273.107 145c18.113 109.962-158.488 16.946-136.853 119" stroke="#6E79B8" stroke-opacity=".45" stroke-width=".5" stroke-dasharray="4 4"/><circle cx="12" cy="12" r="12" fill="#075FC5"/><path d="M9.888 17.18c-1.104 0-1.916-.424-2.436-1.272-.52-.848-.78-1.952-.78-3.312 0-1.4.252-2.508.756-3.324.504-.824 1.324-1.236 2.46-1.236 2.136 0 3.204 1.52 3.204 4.56 0 1.384-.26 2.496-.78 3.336-.52.832-1.328 1.248-2.424 1.248zm0-1.224c.656 0 1.108-.312 1.356-.936.256-.632.384-1.44.384-2.424 0-1.032-.124-1.848-.372-2.448-.248-.6-.704-.9-1.368-.9-.664 0-1.124.3-1.38.9-.248.6-.372 1.416-.372 2.448 0 2.24.584 3.36 1.752 3.36zm5.43-7.644l1.356-.384V17h-1.356V8.312z" fill="#fff"/><circle cx="284" cy="152" r="12" fill="#075FC5"/><path d="M280.124 157.18c-1.104 0-1.916-.424-2.436-1.272-.52-.848-.78-1.952-.78-3.312 0-1.4.252-2.508.756-3.324.504-.824 1.324-1.236 2.46-1.236 2.136 0 3.204 1.52 3.204 4.56 0 1.384-.26 2.496-.78 3.336-.52.832-1.328 1.248-2.424 1.248zm0-1.224c.656 0 1.108-.312 1.356-.936.256-.632.384-1.44.384-2.424 0-1.032-.124-1.848-.372-2.448-.248-.6-.704-.9-1.368-.9-.664 0-1.124.3-1.38.9-.248.6-.372 1.416-.372 2.448 0 2.24.584 3.36 1.752 3.36zm7.698-2.664c.376-.504.688-.972.936-1.404.256-.432.384-.832.384-1.2 0-.448-.12-.788-.36-1.02-.232-.24-.584-.36-1.056-.36-.432 0-.78.12-1.044.36s-.484.532-.66.876l-1.116-.6c.28-.536.648-.988 1.104-1.356.456-.368 1.04-.552 1.752-.552.888 0 1.568.232 2.04.696.472.456.708 1.056.708 1.8 0 .968-.48 2.04-1.44 3.216l-1.632 2.064h3.42V157h-6l2.964-3.708z" fill="#fff"/><circle cx="12" cy="292" r="12" fill="#075FC5"/><path d="M8.183 297.18c-1.104 0-1.916-.424-2.436-1.272-.52-.848-.78-1.952-.78-3.312 0-1.4.252-2.508.756-3.324.504-.824 1.324-1.236 2.46-1.236 2.136 0 3.204 1.52 3.204 4.56 0 1.384-.26 2.496-.78 3.336-.52.832-1.328 1.248-2.424 1.248zm0-1.224c.656 0 1.108-.312 1.356-.936.256-.632.384-1.44.384-2.424 0-1.032-.124-1.848-.372-2.448-.248-.6-.704-.9-1.368-.9-.664 0-1.124.3-1.38.9-.248.6-.372 1.416-.372 2.448 0 2.24.584 3.36 1.752 3.36zm7.206 1.224a5.78 5.78 0 01-1.548-.216c-.512-.152-.884-.344-1.116-.576l.564-1.14c.24.192.543.36.912.504a3.23 3.23 0 001.127.204c1.369 0 2.053-.556 2.053-1.668a1.37 1.37 0 00-.564-1.14c-.369-.288-.869-.432-1.5-.432-.44 0-.813.024-1.117.072l2.209-3.432h-3.312v-1.176h5.7l-2.497 3.564c.505.016.948.136 1.332.36a2.355 2.355 0 011.212 2.088c0 .576-.136 1.092-.408 1.548-.271.448-.668.8-1.188 1.056-.52.256-1.14.384-1.86.384z" fill="#fff"/><circle cx="284" cy="429" r="12" fill="#075FC5"/><path d="M280.077 434.18c-1.104 0-1.916-.424-2.436-1.272-.52-.848-.78-1.952-.78-3.312 0-1.4.252-2.508.756-3.324.504-.824 1.324-1.236 2.46-1.236 2.136 0 3.204 1.52 3.204 4.56 0 1.384-.26 2.496-.78 3.336-.52.832-1.328 1.248-2.424 1.248zm0-1.224c.656 0 1.108-.312 1.356-.936.256-.632.384-1.44.384-2.424 0-1.032-.124-1.848-.372-2.448-.248-.6-.704-.9-1.368-.9-.664 0-1.124.3-1.38.9-.248.6-.372 1.416-.372 2.448 0 2.24.584 3.36 1.752 3.36zm8.454-1.164h-4.032l2.532-6.912 1.248.468-1.908 5.184h2.16l.072-2.004h1.332v2.004h1.224v1.26h-1.224V434h-1.404v-2.208z" fill="#fff"/><circle cx="148" cy="556" r="12" fill="#075FC5"/><path d="M144.124 561.18c-1.104 0-1.916-.424-2.436-1.272-.52-.848-.78-1.952-.78-3.312 0-1.4.252-2.508.756-3.324.504-.824 1.324-1.236 2.46-1.236 2.136 0 3.204 1.52 3.204 4.56 0 1.384-.26 2.496-.78 3.336-.52.832-1.328 1.248-2.424 1.248zm0-1.224c.656 0 1.108-.312 1.356-.936.256-.632.384-1.44.384-2.424 0-1.032-.124-1.848-.372-2.448-.248-.6-.704-.9-1.368-.9-.664 0-1.124.3-1.38.9-.248.6-.372 1.416-.372 2.448 0 2.24.584 3.36 1.752 3.36zm7.458 1.224a5.02 5.02 0 01-1.464-.204 3.05 3.05 0 01-1.116-.6l.612-1.128c.176.152.436.304.78.456.344.144.728.216 1.152.216.544 0 .988-.152 1.332-.456.352-.312.528-.732.528-1.26 0-.496-.16-.904-.48-1.224-.312-.328-.82-.492-1.524-.492-.36 0-.736.032-1.128.096-.392.064-.668.14-.828.228l.18-4.632h4.524v1.176h-3.216l-.12 2.088c.232-.064.568-.096 1.008-.096.928 0 1.656.244 2.184.732.536.48.804 1.144.804 1.992 0 .608-.128 1.148-.384 1.62-.248.472-.616.84-1.104 1.104-.488.256-1.068.384-1.74.384z" fill="#fff"/></svg>