<svg width="40" height="40" fill="none" xmlns="http://www.w3.org/2000/svg"><path d="M20 40c11.046 0 20-8.954 20-20S31.046 0 20 0 0 8.954 0 20s8.954 20 20 20z" fill="#3BC458"/><path d="M30 24.182c-2.181 0-4.181-.546-6.181-1.455-.364-.182-.727-.182-.91 0-.363.182-.545.364-.726.727l-.91 1.819c-2.727-1.637-4.909-3.819-6.363-6.546l1.818-.909c.363-.182.545-.364.727-.727.182-.364 0-.728 0-.91-1.09-2-1.636-4-1.636-6.181 0-.727-.546-1.273-1.273-1.273h-4.545c-.728 0-1.273.546-1.273 1.273 0 11.636 9.455 21.273 21.273 21.273.727 0 1.272-.546 1.272-1.273v-4.546c0-.727-.545-1.272-1.272-1.272z" fill="#FAFAFA"/></svg>