<svg width="40" height="40" fill="none" xmlns="http://www.w3.org/2000/svg"><path d="M40 20C40 8.948 31.052 0 20 0S0 8.948 0 20c0 9.985 7.319 18.252 16.889 19.763V25.778h-5.096V20h5.096v-4.415c0-5.007 2.963-7.763 7.526-7.763 2.192 0 4.474.385 4.474.385v4.919H26.37c-2.489 0-3.259 1.54-3.259 3.111V20h5.54l-.888 5.778h-4.652v13.985C32.681 38.252 40 29.985 40 20z" fill="#4676ED"/><path d="M27.793 25.778L28.68 20h-5.57v-3.763c0-1.57.77-3.111 3.26-3.111h2.518V8.207s-2.282-.385-4.474-.385c-4.563 0-7.526 2.756-7.526 7.763V20h-5.096v5.778h5.096v13.985c1.007.148 2.074.237 3.111.237 1.067 0 2.104-.089 3.111-.237V25.778h4.681z" fill="#fff"/></svg>