<svg width="28" height="28" fill="none" xmlns="http://www.w3.org/2000/svg"><path d="M28 14c0-7.736-6.264-14-14-14S0 6.264 0 14c0 6.99 5.123 12.776 11.822 13.834v-9.79H8.255V14h3.567v-3.09c0-3.506 2.074-5.434 5.268-5.434 1.535 0 3.132.27 3.132.27v3.442H18.46c-1.742 0-2.281 1.079-2.281 2.178V14h3.878l-.622 4.044h-3.256v9.79C22.877 26.776 28 20.99 28 14z" fill="#fff"/><path d="M19.455 18.044L20.077 14h-3.9v-2.634c0-1.1.54-2.178 2.282-2.178h1.763V5.745s-1.597-.27-3.132-.27c-3.194 0-5.268 1.93-5.268 5.435V14H8.255v4.044h3.567v9.79c.706.104 1.452.166 2.178.166.747 0 1.473-.062 2.178-.166v-9.79h3.277z" fill="#2927D4"/></svg>