<svg width="63" height="63" fill="none" xmlns="http://www.w3.org/2000/svg"><circle cx="31.5" cy="31.5" r="31.5" fill="#075FC5"/><path d="M20.298 36.24l-2.427-1.365a.364.364 0 00-.488.13.342.342 0 00-.047.175v3.967a.341.341 0 00.178.304l2.427 1.38a.363.363 0 00.488-.128.343.343 0 00.047-.175v-3.985a.342.342 0 00-.178-.303zM43.23 19.895l-10.447 5.698a.363.363 0 01-.339 0l-6.467-3.197a.177.177 0 01-.097-.155.171.171 0 01.097-.155l10.372-5.491a.342.342 0 000-.616l-3.56-1.932a.364.364 0 00-.356 0l-14.539 7.935a.343.343 0 000 .614l14.546 7.942a.364.364 0 00.357 0l10.476-5.712a.18.18 0 01.245.066.17.17 0 01.022.088v11.808a.342.342 0 01-.178.305L32.8 43.069a.363.363 0 01-.357 0l-8.916-5.005a.362.362 0 00-.488.13.34.34 0 00-.046.174v4.004a.342.342 0 00.178.304l9.272 5.277a.364.364 0 00.357 0l9.758-5.51 5.262-2.89a.352.352 0 00.179-.306V22.476a.34.34 0 00-.179-.306l-4.242-2.275a.363.363 0 00-.35 0z" fill="#fff"/><path d="M19.797 32.176l2.852 1.589a.364.364 0 00.489-.13.342.342 0 00.046-.175v-4.046a.342.342 0 00-.178-.307l-2.853-1.566a.363.363 0 00-.488.13.342.342 0 00-.047.174v4.033a.343.343 0 00.179.298zm-2.648-6.304l-2.614-1.446a.363.363 0 00-.488.129.34.34 0 00-.047.175v4.003a.342.342 0 00.178.305l2.614 1.46a.365.365 0 00.358 0 .352.352 0 00.177-.304v-4.017a.343.343 0 00-.178-.305zm8.551 5.333v4.062a.352.352 0 00.178.305l6.201 3.463a.362.362 0 00.489-.13.34.34 0 00.046-.174v-4.096a.352.352 0 00-.178-.305l-6.198-3.432a.365.365 0 00-.362-.001.352.352 0 00-.177.308z" fill="#fff"/></svg>