<svg width="40" height="40" fill="none" xmlns="http://www.w3.org/2000/svg"><circle cx="20" cy="20" r="20" fill="url(#paint0_linear_758:34104)"/><path d="M20.082 10.454c3.11 0 3.494 0 4.732.055 1.128.055 1.76.248 2.174.413.55.22.935.467 1.348.88.412.413.66.798.88 1.348.165.413.358 1.018.413 2.173.055 1.238.055 1.596.055 4.732s0 3.494-.055 4.732c-.055 1.128-.248 1.76-.413 2.173-.22.55-.468.936-.88 1.348-.413.413-.798.66-1.348.88-.413.166-1.018.358-2.174.413-1.238.055-1.595.055-4.732.055-3.108 0-3.493 0-4.731-.055-1.128-.055-1.76-.247-2.174-.412a3.7 3.7 0 01-1.348-.88 3.7 3.7 0 01-.88-1.349c-.165-.412-.357-1.018-.413-2.173-.055-1.238-.055-1.596-.055-4.732s0-3.494.055-4.732c.056-1.128.248-1.76.413-2.173.22-.55.468-.935.88-1.348.413-.413.798-.66 1.348-.88.413-.165 1.018-.358 2.174-.413 1.238-.027 1.595-.055 4.731-.055zm0-2.09c-3.163 0-3.576 0-4.814.082-1.238.055-2.09.247-2.833.55-.77.303-1.43.688-2.064 1.348a5.693 5.693 0 00-1.348 2.063c-.302.743-.495 1.596-.55 2.834-.055 1.238-.082 1.65-.082 4.814s0 3.576.082 4.814c.055 1.238.248 2.091.55 2.834.303.77.688 1.43 1.348 2.063a5.692 5.692 0 002.064 1.348c.742.303 1.595.495 2.833.55 1.238.055 1.65.083 4.814.083s3.577 0 4.815-.082c1.238-.055 2.09-.248 2.833-.55.77-.303 1.43-.688 2.064-1.349a5.694 5.694 0 001.348-2.063c.302-.743.495-1.596.55-2.834.055-1.238.082-1.65.082-4.814 0-3.163 0-3.576-.082-4.814-.055-1.238-.248-2.09-.55-2.834-.303-.77-.688-1.43-1.348-2.063a5.693 5.693 0 00-2.064-1.348c-.742-.303-1.595-.495-2.833-.55-1.266-.083-1.65-.083-4.814-.083z" fill="#fff"/><path d="M20.083 14.058a5.994 5.994 0 00-5.998 5.997 5.994 5.994 0 005.998 5.997 5.994 5.994 0 005.997-5.997c0-3.301-2.696-5.997-5.997-5.997zm0 9.903a3.904 3.904 0 01-3.907-3.906 3.886 3.886 0 013.907-3.907 3.886 3.886 0 013.906 3.907 3.904 3.904 0 01-3.906 3.906zm6.217-8.748a1.403 1.403 0 100-2.806 1.403 1.403 0 000 2.806z" fill="#fff"/><defs><linearGradient id="paint0_linear_758:34104" x1="20" y1="0" x2="20" y2="84" gradientUnits="userSpaceOnUse"><stop stop-color="#E85EFF"/><stop offset="1" stop-color="#4108E1"/></linearGradient></defs></svg>