<svg width="28" height="28" fill="none" xmlns="http://www.w3.org/2000/svg"><circle cx="14" cy="14" r="14" fill="#fff"/><path d="M13.998 11.374A2.632 2.632 0 0011.372 14a2.632 2.632 0 002.626 2.626A2.632 2.632 0 0016.624 14a2.632 2.632 0 00-2.626-2.626zM21.874 14c0-1.088.01-2.165-.051-3.25-.061-1.261-.349-2.38-1.27-3.302-.925-.924-2.042-1.21-3.303-1.271-1.087-.061-2.165-.051-3.25-.051-1.088 0-2.165-.01-3.25.05-1.262.062-2.38.35-3.303 1.272-.923.923-1.21 2.04-1.27 3.301-.061 1.088-.051 2.165-.051 3.251 0 1.085-.01 2.165.05 3.25.062 1.262.35 2.38 1.271 3.302.924.925 2.041 1.21 3.302 1.271 1.088.061 2.165.051 3.25.051 1.088 0 2.166.01 3.251-.05 1.261-.062 2.38-.35 3.302-1.272.924-.924 1.21-2.04 1.27-3.301.064-1.086.052-2.164.052-3.251zm-7.876 4.04A4.035 4.035 0 019.958 14a4.035 4.035 0 014.04-4.04 4.035 4.035 0 014.04 4.04 4.035 4.035 0 01-4.04 4.04zm4.206-7.302a.943.943 0 110-1.888.943.943 0 110 1.888z" fill="#2927D4"/></svg>