<svg width="55" height="55" fill="none" xmlns="http://www.w3.org/2000/svg"><path d="M10.188 35.976L6.262 33.77a.587.587 0 00-.79.21.553.553 0 00-.075.282v6.417a.552.552 0 00.288.493l3.926 2.233a.588.588 0 00.789-.208.553.553 0 00.076-.282v-6.448a.552.552 0 00-.288-.49z" fill="#92B8FE"/><path d="M47.284 9.536l-16.9 9.218a.589.589 0 01-.548 0L19.374 13.58a.285.285 0 01-.157-.25.285.285 0 01.157-.25l16.779-8.884a.553.553 0 000-.997L30.396.076a.588.588 0 00-.577 0L6.299 12.911a.553.553 0 000 .994L29.83 26.753a.588.588 0 00.577 0l16.946-9.241a.294.294 0 01.397.107.275.275 0 01.036.143v19.101a.552.552 0 01-.289.493l-17.084 9.668a.588.588 0 01-.577 0l-14.422-8.097a.588.588 0 00-.79.21.552.552 0 00-.075.282v6.476a.553.553 0 00.288.493l15 8.537a.588.588 0 00.576 0l15.786-8.914 8.512-4.674A.553.553 0 0055 40.84V13.71a.553.553 0 00-.288-.495l-6.862-3.68a.588.588 0 00-.565 0z" fill="url(#paint0_linear_758:56251)"/><path d="M9.377 29.402l4.615 2.57a.588.588 0 00.79-.209.551.551 0 00.076-.283v-6.546a.552.552 0 00-.289-.496l-4.615-2.534a.588.588 0 00-.79.21.553.553 0 00-.075.283v6.524a.553.553 0 00.288.481z" fill="#92B8FE"/><path d="M5.094 19.204l-4.229-2.34a.589.589 0 00-.79.21.552.552 0 00-.075.283v6.476a.552.552 0 00.288.493l4.229 2.362a.587.587 0 00.79-.21.552.552 0 00.075-.283v-6.498a.553.553 0 00-.288-.493z" fill="#82B9FC"/><path d="M18.925 27.83v6.572a.553.553 0 00.288.493l10.032 5.603a.588.588 0 00.79-.21.553.553 0 00.075-.283V33.38a.553.553 0 00-.288-.493l-10.026-5.552a.588.588 0 00-.798.209.552.552 0 00-.073.287z" fill="#86AFFE"/><defs><linearGradient id="paint0_linear_758:56251" x1="-20.448" y1="2.06" x2="46.872" y2="37.606" gradientUnits="userSpaceOnUse"><stop offset=".01" stop-color="#A9CDFE"/><stop offset="1" stop-color="#D9E7FE"/></linearGradient></defs></svg>