<svg width="40" height="40" fill="none" xmlns="http://www.w3.org/2000/svg"><path d="M20 40c11.046 0 20-8.954 20-20S31.046 0 20 0 0 8.954 0 20s8.954 20 20 20z" fill="#47B0D3"/><path d="M2.727 20C2.727 9.455 10.91.727 21.273 0H20C8.91 0 0 8.91 0 20s8.91 20 20 20h1.273c-10.364-.727-18.546-9.454-18.546-20z" fill="#3298BA"/><path d="M29.637 8.546c-.182-.182-.364-.182-.728 0l-21.272 10a1 1 0 00-.546.909 1 1 0 00.546.909l19.818 8.727c.727.364 1.454-.182 1.454-.91L30 9.092c0-.182-.181-.364-.363-.545z" fill="#E5E5E5"/><path d="M13.455 22.91l1.273 8.908L29.637 8.545 13.455 22.91z" fill="#CCC"/><path d="M29.091 8.546l-21.454 10a1 1 0 00-.546.909 1 1 0 00.546.909l5.818 2.545L29.637 8.546c-.182-.182-.364-.182-.546 0z" fill="#fff"/><path d="M16.545 24.364l-1.818 7.454L29.636 8.545l-13.09 15.819z" fill="#E5E5E5"/><path d="M29.636 8.545L16.364 24.364l10.909 4.727c.727.363 1.454-.182 1.454-.91L30 9.092c0-.182-.182-.364-.364-.546z" fill="#fff"/></svg>