<svg width="79" height="79" fill="none" xmlns="http://www.w3.org/2000/svg"><path d="M75.614 24.076c2.132 4.89 3.135 9.907 3.135 15.299 0 5.392-1.003 10.407-3.135 15.298-2.132 4.89-4.89 9.029-8.401 12.54-3.511 3.51-7.65 6.27-12.54 8.401-4.89 2.132-9.906 3.135-15.298 3.135-5.392 0-10.408-1.003-15.299-3.135-4.89-2.132-9.028-4.89-12.54-8.401-3.51-3.511-6.27-7.65-8.401-12.54C1.003 49.783 0 44.641 0 39.375c0-5.267 1.003-10.408 3.135-15.299 2.132-4.89 4.89-9.028 8.401-12.54 3.512-3.51 7.65-6.27 12.54-8.401C28.966 1.003 33.983 0 39.375 0c5.392 0 10.407 1.003 15.298 3.135 4.89 2.132 9.029 4.89 12.54 8.401 3.51 3.512 6.27 7.65 8.401 12.54zM52.29 57.432l6.521-30.472c.25-1.254.126-2.257-.502-2.758-.627-.502-1.379-.627-2.257-.251L18.057 38.497c-.878.376-1.38.627-1.755 1.128-.251.377-.377.753-.126 1.129s.753.627 1.38.878l9.655 3.01 22.572-14.17c.627-.377 1.128-.502 1.379-.251.25.125.125.376-.126.627L32.855 47.4l-.752 10.032c.627 0 1.379-.376 2.006-1.003l4.765-4.515 9.781 7.273c1.88 1.004 3.135.377 3.636-1.755z" fill="#EBF1FF"/></svg>