<svg width="40" height="40" fill="none" xmlns="http://www.w3.org/2000/svg"><path d="M20 40c11.046 0 20-8.954 20-20S31.046 0 20 0 0 8.954 0 20s8.954 20 20 20z" fill="#6F3FAA"/><g clip-path="url(#clip0_758:34065)" fill="#fff"><path d="M30.09 13.294c-1.022-1.908-2.095-2.837-4.386-3.535-2.29-.707-4.907-.668-5.704-.668-.808 0-3.426-.039-5.706.668-2.29.707-3.373 1.627-4.396 3.535-1.022 1.908-.787 4.861-.787 5.384 0 .533-.02 3.254.583 4.89.613 1.637 1.87 3.206 4.62 4.04.011 0 .021.009.042.009v2.42c0 .243.102.514.306.679.205.164.46.193.716.184.256-.01.307-.078.47-.194.144-.107 1.83-1.879 2.342-2.421.869.058 1.513.039 1.81.058.654-.048 2.924.097 5.674-.736 2.75-.833 4.018-2.401 4.621-4.038.613-1.637.583-4.358.583-4.89 0-.523.235-3.477-.787-5.385zm-.91 5.075c0 .135-.01.232-.01.32v.057c0 2.586-.306 3.796-.49 4.29-.563 1.511-1.687 2.48-3.538 3.031-2.024.61-3.752.64-4.683.65-.183 0-.337 0-.47.009-.133-.01-.286-.01-.47-.01-.256 0-.573-.01-.94-.029-.604.659-2.812 3.07-3.037 3.302-.256.271-.327.233-.41.213-.081-.019-.142-.116-.142-.27v-3.816c-.052-.01-.092-.03-.143-.039-1.851-.562-2.976-1.52-3.538-3.031-.184-.494-.49-1.704-.49-4.29v-.058c0-.087 0-.184-.011-.32-.02-.745-.102-3.021.613-4.338.839-1.579 1.606-2.198 3.395-2.74 1.922-.592 4.181-.592 4.928-.592h.511c.746 0 3.006 0 4.928.591 1.79.552 2.556 1.162 3.395 2.731.705 1.317.633 3.593.603 4.339z"/><path d="M13.978 16.142c1.288 2.963 3.098 4.842 3.466 5.21.378.338 2.372 2.062 5.5 3.282.553.213 1.493.088 1.994-.59.501-.678.696-1.046.706-1.308.01-.261.01-.494-1.34-1.346-1.35-.862-1.758-1.065-2.126-.726-.368.339-.563.678-.706.794-.143.116-.45.281-1.114-.02-.665-.3-1.074-.435-1.83-1.113-.726-.716-.859-1.104-1.176-1.733-.317-.63-.143-.92-.02-1.056.122-.136.48-.32.838-.668.358-.349.143-.736-.767-2.014-.91-1.279-1.145-1.279-1.421-1.269-.276.01-.654.194-1.38.668-.716.475-.859 1.366-.624 1.889zm11.667 3.166c-.154 0-.287-.116-.297-.261-.276-4.968-3.916-5.53-5.51-5.53h-.082a.29.29 0 01-.297-.28.29.29 0 01.297-.282h.03c1.166-.01 2.26.252 3.19.746a5.133 5.133 0 011.953 1.82c.593.93.93 2.112 1.002 3.487.01.155-.113.28-.276.29 0 .01 0 .01-.01.01z"/><path d="M24.11 18.727c-.154 0-.287-.116-.297-.262-.173-3.128-2.453-3.476-3.455-3.476h-.051a.29.29 0 01-.297-.281.29.29 0 01.296-.28h.02a4.341 4.341 0 012.107.493c.828.446 1.85 1.414 1.963 3.506.01.155-.112.28-.276.29 0 .01-.01.01-.01.01z"/><path d="M22.598 18.165c-.154 0-.287-.116-.297-.261-.071-1.25-.91-1.434-1.41-1.434h-.021a.29.29 0 01-.297-.28.29.29 0 01.297-.281h.03c.92 0 1.912.513 1.994 1.956.01.155-.112.28-.276.29-.01.01-.02.01-.02.01z"/></g><defs><clipPath id="clip0_758:34065"><path fill="#fff" transform="translate(9.09 9.09)" d="M0 0h21.818v21.818H0z"/></clipPath></defs></svg>