<svg width="12" height="12" fill="none" xmlns="http://www.w3.org/2000/svg"><g clip-path="url(#clip0_844:48851)"><path d="M11.928 5.658C10.797 3.178 8.56 1.5 6 1.5S1.202 3.18.072 5.658a.836.836 0 000 .684C1.202 8.822 3.44 10.5 6 10.5s4.798-1.68 5.928-4.158a.837.837 0 000-.684zM6 9.375a2.769 2.769 0 01-1.667-.569 3.321 3.321 0 01-1.105-1.514 3.769 3.769 0 01-.17-1.95 3.524 3.524 0 01.82-1.728c.42-.472.955-.794 1.537-.924a2.692 2.692 0 011.733.192 3.107 3.107 0 011.346 1.243C8.824 4.68 9 5.332 9 6c0 .443-.077.882-.228 1.292a3.43 3.43 0 01-.65 1.095c-.279.313-.61.562-.974.732-.364.17-.754.256-1.148.256zM6 3.75a1.783 1.783 0 00-.527.089c.141.216.209.482.19.75-.017.267-.12.518-.288.708a.953.953 0 01-.63.325.92.92 0 01-.666-.215c-.11.453-.09.933.056 1.373.146.44.411.817.758 1.079a1.84 1.84 0 001.175.38c.417-.015.82-.177 1.15-.463.332-.285.575-.68.696-1.13a2.52 2.52 0 00-.02-1.375 2.243 2.243 0 00-.73-1.103A1.848 1.848 0 006 3.75z" fill="#075FC5"/></g><defs><clipPath id="clip0_844:48851"><path fill="#fff" d="M0 0h12v12H0z"/></clipPath></defs></svg>