<svg width="134" height="134" viewBox="0 0 134 134" fill="none" xmlns="http://www.w3.org/2000/svg">
<path d="M24.8206 87.6511L15.2562 82.2732C15.0417 82.1522 14.7981 82.0888 14.5503 82.0894C14.3025 82.0899 14.0593 82.1544 13.8453 82.2762C13.6312 82.3981 13.454 82.5731 13.3316 82.7833C13.2091 82.9936 13.1458 83.2318 13.148 83.4736L13.148 99.1067C13.1458 99.3496 13.2097 99.5888 13.3331 99.7997C13.4566 100.011 13.6352 100.186 13.8508 100.307L23.4151 105.747C23.6292 105.868 23.8721 105.931 24.1192 105.931C24.3664 105.93 24.6092 105.867 24.823 105.745C25.0368 105.624 25.2142 105.45 25.3371 105.241C25.4601 105.032 25.5243 104.795 25.5233 104.553L25.5233 88.8447C25.5243 88.603 25.4598 88.3653 25.3364 88.1557C25.213 87.9461 25.0351 87.772 24.8206 87.6511Z" fill="#92B8FE"/>
<path d="M115.201 23.2321L74.0272 45.6906C73.8221 45.7986 73.5927 45.8552 73.3596 45.8552C73.1266 45.8552 72.8971 45.7986 72.692 45.6906L47.2034 33.0894C47.0883 33.0319 46.9917 32.9444 46.9243 32.8367C46.8568 32.729 46.8211 32.6052 46.8211 32.4789C46.8211 32.3527 46.8568 32.2289 46.9243 32.1212C46.9917 32.0134 47.0883 31.926 47.2034 31.8684L88.0822 10.2263C88.3088 10.1099 88.4986 9.9353 88.6309 9.72132C88.7633 9.50733 88.8333 9.26211 88.8333 9.01214C88.8333 8.76217 88.7633 8.51695 88.6309 8.30297C88.4986 8.08899 88.3088 7.91437 88.0822 7.79799L74.0553 0.183803C73.8417 0.0633915 73.5993 -7.78117e-08 73.3526 -7.74863e-08C73.1059 -7.71609e-08 72.8635 0.0633915 72.6499 0.183803L15.348 31.4568C15.1231 31.5738 14.9351 31.7483 14.8039 31.9615C14.6728 32.1748 14.6035 32.4188 14.6035 32.6676C14.6035 32.9163 14.6728 33.1603 14.8039 33.3736C14.9351 33.5869 15.1231 33.7613 15.348 33.8783L72.678 65.1788C72.8916 65.2992 73.134 65.3626 73.3807 65.3626C73.6274 65.3626 73.8698 65.2992 74.0835 65.1788L115.37 42.6655C115.478 42.6045 115.601 42.5728 115.725 42.5735C115.85 42.5742 115.973 42.6073 116.08 42.6695C116.187 42.7317 116.276 42.8206 116.336 42.9272C116.397 43.0338 116.427 43.1542 116.424 43.276L116.424 89.8117C116.426 90.0546 116.362 90.2937 116.239 90.5046C116.115 90.7155 115.937 90.8907 115.721 91.0121L74.0975 114.568C73.8838 114.688 73.6415 114.752 73.3948 114.752C73.148 114.752 72.9057 114.688 72.692 114.568L37.5547 94.8398C37.3401 94.7189 37.0966 94.6554 36.8488 94.656C36.601 94.6565 36.3578 94.721 36.1438 94.8428C35.9297 94.9647 35.7525 95.1397 35.63 95.3499C35.5076 95.5602 35.4443 95.7984 35.4465 96.0402L35.4465 111.817C35.4443 112.06 35.5082 112.299 35.6316 112.51C35.7551 112.721 35.9337 112.896 36.1492 113.018L72.692 133.816C72.9057 133.937 73.148 134 73.3948 134C73.6415 134 73.8838 133.937 74.0975 133.816L112.559 112.099L133.297 100.712C133.513 100.59 133.693 100.413 133.816 100.201C133.94 99.989 134.003 99.7484 134 99.5043L134 33.405C134.003 33.1609 133.94 32.9204 133.816 32.7081C133.693 32.4959 133.513 32.3197 133.297 32.1977L116.578 23.2321C116.368 23.1168 116.131 23.0562 115.89 23.0562C115.649 23.0562 115.411 23.1168 115.201 23.2321Z" fill="url(#paint0_linear_833:44853)"/>
<path d="M22.8464 71.6341L34.0903 77.897C34.3049 78.0179 34.5485 78.0813 34.7962 78.0808C35.044 78.0803 35.2873 78.0158 35.5013 77.8939C35.7153 77.7721 35.8926 77.5971 36.015 77.3868C36.1375 77.1766 36.2008 76.9384 36.1986 76.6965L36.1986 60.7479C36.202 60.5038 36.1388 60.2633 36.0152 60.0511C35.8917 59.8388 35.7124 59.6626 35.4958 59.5406L24.2519 53.3669C24.0373 53.246 23.7937 53.1826 23.5459 53.1831C23.2981 53.1836 23.0549 53.2481 22.8409 53.37C22.6268 53.4919 22.4496 53.6668 22.3271 53.8771C22.2047 54.0874 22.1414 54.3255 22.1436 54.5674L22.1436 70.4611C22.1463 70.6994 22.2125 70.9329 22.3358 71.1385C22.459 71.3442 22.635 71.515 22.8464 71.6341Z" fill="#92B8FE"/>
<path d="M12.4106 46.7885L2.1083 41.0881C1.89371 40.9672 1.65017 40.9038 1.40238 40.9043C1.15459 40.9048 0.911343 40.9693 0.697304 41.0912C0.483265 41.2131 0.306041 41.388 0.183593 41.5983C0.0611447 41.8086 -0.00217273 42.0467 5.69121e-05 42.2886L5.68906e-05 58.0657C-0.00217078 58.3086 0.0617107 58.5477 0.18518 58.7586C0.30865 58.9696 0.487279 59.1447 0.702804 59.2661L11.0051 65.0214C11.2197 65.1423 11.4632 65.2057 11.711 65.2052C11.9588 65.2047 12.202 65.1402 12.4161 65.0183C12.6301 64.8964 12.8073 64.7215 12.9298 64.5112C13.0522 64.3009 13.1156 64.0628 13.1133 63.8209L13.1133 47.9889C13.1156 47.746 13.0517 47.5069 12.9282 47.296C12.8047 47.0851 12.6261 46.9099 12.4106 46.7885Z" fill="#82B9FC"/>
<path d="M46.1072 67.8055L46.1072 83.8159C46.105 84.0588 46.1689 84.298 46.2923 84.5089C46.4158 84.7198 46.5944 84.8949 46.81 85.0164L71.2514 98.6671C71.466 98.788 71.7096 98.8514 71.9574 98.8509C72.2051 98.8504 72.4484 98.7859 72.6624 98.664C72.8765 98.5421 73.0537 98.3672 73.1761 98.1569C73.2986 97.9466 73.3619 97.7085 73.3597 97.4666L73.3597 81.3259C73.3619 81.083 73.298 80.8438 73.1745 80.6329C73.0511 80.422 72.8724 80.2469 72.6569 80.1254L48.2295 66.5982C48.0141 66.4735 47.7684 66.4072 47.5179 66.4063C47.2674 66.4053 47.0212 66.4697 46.8047 66.5928C46.5883 66.716 46.4095 66.8933 46.2869 67.1065C46.1643 67.3197 46.1022 67.5611 46.1072 67.8055Z" fill="#86AFFE"/>
<defs>
<linearGradient id="paint0_linear_833:44853" x1="-49.8176" y1="5.01984" x2="114.199" y2="91.621" gradientUnits="userSpaceOnUse">
<stop offset="0.01" stop-color="#A9CDFE"/>
<stop offset="1" stop-color="#D9E7FE"/>
</linearGradient>
</defs>
</svg>
