<svg width="16" height="17" viewBox="0 0 16 17" fill="none" xmlns="http://www.w3.org/2000/svg">
<g clip-path="url(#clip0_1060:118608)">
<path d="M15.9033 8.04375C14.3969 4.73719 11.4147 2.5 7.99998 2.5C4.58526 2.5 1.60221 4.73875 0.0966515 8.04406C0.0331076 8.18547 0 8.3417 0 8.50016C0 8.65861 0.0331076 8.81484 0.0966515 8.95625C1.60304 12.2628 4.58526 14.5 7.99998 14.5C11.4147 14.5 14.3978 12.2612 15.9033 8.95594C15.9669 8.81453 16 8.6583 16 8.49984C16 8.34139 15.9669 8.18516 15.9033 8.04375ZM7.99998 13C7.20886 13 6.4355 12.7361 5.7777 12.2416C5.11991 11.7471 4.60722 11.0443 4.30447 10.2221C4.00172 9.39981 3.9225 8.49501 4.07684 7.62209C4.23118 6.74918 4.61215 5.94736 5.17156 5.31802C5.73097 4.68868 6.4437 4.2601 7.21962 4.08647C7.99555 3.91283 8.79981 4.00195 9.53072 4.34254C10.2616 4.68314 10.8863 5.25991 11.3259 5.99993C11.7654 6.73995 12 7.60998 12 8.5C12.0002 9.09103 11.8969 9.67632 11.696 10.2224C11.4951 10.7685 11.2005 11.2647 10.829 11.6826C10.4575 12.1005 10.0164 12.432 9.53102 12.658C9.0456 12.8841 8.52534 13.0003 7.99998 13ZM7.99998 5.5C7.76196 5.50374 7.52548 5.54358 7.29693 5.61844C7.48532 5.90646 7.57573 6.2609 7.55175 6.61748C7.52777 6.97406 7.391 7.30917 7.16623 7.56203C6.94147 7.81489 6.6436 7.96876 6.32663 7.99574C6.00967 8.02271 5.69461 7.92101 5.43859 7.70906C5.29281 8.31331 5.31912 8.95377 5.51384 9.54031C5.70856 10.1269 6.06187 10.6299 6.52404 10.9787C6.98622 11.3275 7.53399 11.5045 8.09025 11.4847C8.64652 11.465 9.18326 11.2495 9.62495 10.8685C10.0666 10.4876 10.391 9.96044 10.5524 9.36125C10.7139 8.76205 10.7042 8.12099 10.5248 7.5283C10.3454 6.93561 10.0053 6.42114 9.55238 6.05728C9.09946 5.69343 8.55652 5.49853 7.99998 5.5Z" fill="#075FC5"/>
</g>
<defs>
<clipPath id="clip0_1060:118608">
<rect width="16" height="16" fill="white" transform="translate(0 0.5)"/>
</clipPath>
</defs>
</svg>
