<svg width="296" height="568" viewBox="0 0 296 568" fill="none" xmlns="http://www.w3.org/2000/svg">
<path d="M14.1671 15C-7.60399 134.969 282.387 35.5804 285 143" stroke="#6E79B8" stroke-opacity="0.45" stroke-width="0.5" stroke-dasharray="4 4"/>
<path d="M11.18 300C-10.8312 419.969 282.359 320.58 285 428" stroke="#6E79B8" stroke-opacity="0.45" stroke-width="0.5" stroke-dasharray="4 4"/>
<path d="M283.179 149C311.603 294 -2.34723 162 13.5871 294" stroke="#6E79B8" stroke-opacity="0.45" stroke-width="0.5" stroke-dasharray="4 4"/>
<path d="M286.694 439C304.807 548.962 128.206 455.946 149.841 558" stroke="#6E79B8" stroke-opacity="0.45" stroke-width="0.5" stroke-dasharray="4 4"/>
<circle cx="12" cy="12" r="12" fill="#075FC5"/>
<path d="M9.888 17.18C8.784 17.18 7.972 16.756 7.452 15.908C6.932 15.06 6.672 13.956 6.672 12.596C6.672 11.196 6.924 10.088 7.428 9.272C7.932 8.448 8.752 8.036 9.888 8.036C12.024 8.036 13.092 9.556 13.092 12.596C13.092 13.98 12.832 15.092 12.312 15.932C11.792 16.764 10.984 17.18 9.888 17.18ZM9.888 15.956C10.544 15.956 10.996 15.644 11.244 15.02C11.5 14.388 11.628 13.58 11.628 12.596C11.628 11.564 11.504 10.748 11.256 10.148C11.008 9.548 10.552 9.248 9.888 9.248C9.224 9.248 8.764 9.548 8.508 10.148C8.26 10.748 8.136 11.564 8.136 12.596C8.136 14.836 8.72 15.956 9.888 15.956ZM15.3175 8.312L16.6735 7.928V17H15.3175V8.312Z" fill="white"/>
<circle cx="284" cy="152" r="12" fill="#075FC5"/>
<path d="M280.124 157.18C279.02 157.18 278.208 156.756 277.688 155.908C277.168 155.06 276.908 153.956 276.908 152.596C276.908 151.196 277.16 150.088 277.664 149.272C278.168 148.448 278.988 148.036 280.124 148.036C282.26 148.036 283.328 149.556 283.328 152.596C283.328 153.98 283.068 155.092 282.548 155.932C282.028 156.764 281.22 157.18 280.124 157.18ZM280.124 155.956C280.78 155.956 281.232 155.644 281.48 155.02C281.736 154.388 281.864 153.58 281.864 152.596C281.864 151.564 281.74 150.748 281.492 150.148C281.244 149.548 280.788 149.248 280.124 149.248C279.46 149.248 279 149.548 278.744 150.148C278.496 150.748 278.372 151.564 278.372 152.596C278.372 154.836 278.956 155.956 280.124 155.956ZM287.822 153.292C288.198 152.788 288.51 152.32 288.758 151.888C289.014 151.456 289.142 151.056 289.142 150.688C289.142 150.24 289.022 149.9 288.782 149.668C288.55 149.428 288.198 149.308 287.726 149.308C287.294 149.308 286.946 149.428 286.682 149.668C286.418 149.908 286.198 150.2 286.022 150.544L284.906 149.944C285.186 149.408 285.554 148.956 286.01 148.588C286.466 148.22 287.05 148.036 287.762 148.036C288.65 148.036 289.33 148.268 289.802 148.732C290.274 149.188 290.51 149.788 290.51 150.532C290.51 151.5 290.03 152.572 289.07 153.748L287.438 155.812H290.858V157H284.858L287.822 153.292Z" fill="white"/>
<circle cx="12" cy="292" r="12" fill="#075FC5"/>
<path d="M8.18292 297.18C7.07892 297.18 6.26692 296.756 5.74692 295.908C5.22692 295.06 4.96692 293.956 4.96692 292.596C4.96692 291.196 5.21892 290.088 5.72292 289.272C6.22692 288.448 7.04692 288.036 8.18292 288.036C10.3189 288.036 11.3869 289.556 11.3869 292.596C11.3869 293.98 11.1269 295.092 10.6069 295.932C10.0869 296.764 9.27892 297.18 8.18292 297.18ZM8.18292 295.956C8.83892 295.956 9.29092 295.644 9.53892 295.02C9.79492 294.388 9.92292 293.58 9.92292 292.596C9.92292 291.564 9.79892 290.748 9.55092 290.148C9.30292 289.548 8.84692 289.248 8.18292 289.248C7.51892 289.248 7.05892 289.548 6.80292 290.148C6.55492 290.748 6.43092 291.564 6.43092 292.596C6.43092 294.836 7.01492 295.956 8.18292 295.956ZM15.3885 297.18C14.8765 297.18 14.3605 297.108 13.8405 296.964C13.3285 296.812 12.9565 296.62 12.7245 296.388L13.2885 295.248C13.5285 295.44 13.8325 295.608 14.2005 295.752C14.5685 295.888 14.9445 295.956 15.3285 295.956C16.6965 295.956 17.3805 295.4 17.3805 294.288C17.3805 293.816 17.1925 293.436 16.8165 293.148C16.4485 292.86 15.9485 292.716 15.3165 292.716C14.8765 292.716 14.5045 292.74 14.2005 292.788L16.4085 289.356H13.0965V288.18H18.7965L16.3005 291.744C16.8045 291.76 17.2485 291.88 17.6325 292.104C18.0245 292.328 18.3245 292.624 18.5325 292.992C18.7405 293.352 18.8445 293.752 18.8445 294.192C18.8445 294.768 18.7085 295.284 18.4365 295.74C18.1645 296.188 17.7685 296.54 17.2485 296.796C16.7285 297.052 16.1085 297.18 15.3885 297.18Z" fill="white"/>
<circle cx="284" cy="429" r="12" fill="#075FC5"/>
<path d="M280.077 434.18C278.973 434.18 278.161 433.756 277.641 432.908C277.121 432.06 276.861 430.956 276.861 429.596C276.861 428.196 277.113 427.088 277.617 426.272C278.121 425.448 278.941 425.036 280.077 425.036C282.213 425.036 283.281 426.556 283.281 429.596C283.281 430.98 283.021 432.092 282.501 432.932C281.981 433.764 281.173 434.18 280.077 434.18ZM280.077 432.956C280.733 432.956 281.185 432.644 281.433 432.02C281.689 431.388 281.817 430.58 281.817 429.596C281.817 428.564 281.693 427.748 281.445 427.148C281.197 426.548 280.741 426.248 280.077 426.248C279.413 426.248 278.953 426.548 278.697 427.148C278.449 427.748 278.325 428.564 278.325 429.596C278.325 431.836 278.909 432.956 280.077 432.956ZM288.531 431.792H284.499L287.031 424.88L288.279 425.348L286.371 430.532H288.531L288.603 428.528H289.935V430.532H291.159V431.792H289.935V434H288.531V431.792Z" fill="white"/>
<circle cx="148" cy="556" r="12" fill="#075FC5"/>
<path d="M144.124 561.18C143.02 561.18 142.208 560.756 141.688 559.908C141.168 559.06 140.908 557.956 140.908 556.596C140.908 555.196 141.16 554.088 141.664 553.272C142.168 552.448 142.988 552.036 144.124 552.036C146.26 552.036 147.328 553.556 147.328 556.596C147.328 557.98 147.068 559.092 146.548 559.932C146.028 560.764 145.22 561.18 144.124 561.18ZM144.124 559.956C144.78 559.956 145.232 559.644 145.48 559.02C145.736 558.388 145.864 557.58 145.864 556.596C145.864 555.564 145.74 554.748 145.492 554.148C145.244 553.548 144.788 553.248 144.124 553.248C143.46 553.248 143 553.548 142.744 554.148C142.496 554.748 142.372 555.564 142.372 556.596C142.372 558.836 142.956 559.956 144.124 559.956ZM151.582 561.18C151.054 561.18 150.566 561.112 150.118 560.976C149.678 560.84 149.306 560.64 149.002 560.376L149.614 559.248C149.79 559.4 150.05 559.552 150.394 559.704C150.738 559.848 151.122 559.92 151.546 559.92C152.09 559.92 152.534 559.768 152.878 559.464C153.23 559.152 153.406 558.732 153.406 558.204C153.406 557.708 153.246 557.3 152.926 556.98C152.614 556.652 152.106 556.488 151.402 556.488C151.042 556.488 150.666 556.52 150.274 556.584C149.882 556.648 149.606 556.724 149.446 556.812L149.626 552.18H154.15V553.356H150.934L150.814 555.444C151.046 555.38 151.382 555.348 151.822 555.348C152.75 555.348 153.478 555.592 154.006 556.08C154.542 556.56 154.81 557.224 154.81 558.072C154.81 558.68 154.682 559.22 154.426 559.692C154.178 560.164 153.81 560.532 153.322 560.796C152.834 561.052 152.254 561.18 151.582 561.18Z" fill="white"/>
</svg>
