<svg width="12" height="12" viewBox="0 0 12 12" fill="none" xmlns="http://www.w3.org/2000/svg">
<g clip-path="url(#clip0_844:48851)">
<path d="M11.9275 5.65781C10.7977 3.17789 8.56103 1.5 5.99999 1.5C3.43895 1.5 1.20166 3.17906 0.0724886 5.65805C0.0248307 5.7641 0 5.88128 0 6.00012C0 6.11896 0.0248307 6.23613 0.0724886 6.34219C1.20228 8.82211 3.43895 10.5 5.99999 10.5C8.56103 10.5 10.7983 8.82094 11.9275 6.34195C11.9751 6.2359 12 6.11872 12 5.99988C12 5.88104 11.9751 5.76387 11.9275 5.65781ZM5.99999 9.375C5.40664 9.375 4.82662 9.17706 4.33328 8.80621C3.83993 8.43536 3.45541 7.90826 3.22835 7.29156C3.00129 6.67486 2.94188 5.99626 3.05763 5.34157C3.17339 4.68688 3.45911 4.08552 3.87867 3.61351C4.29822 3.14151 4.83277 2.82007 5.41472 2.68985C5.99666 2.55962 6.59986 2.62646 7.14804 2.88191C7.69622 3.13735 8.16475 3.56993 8.4944 4.12495C8.82404 4.67997 8.99999 5.33249 8.99999 6C9.00018 6.44327 8.92271 6.88224 8.77202 7.29181C8.62132 7.70138 8.40035 8.07353 8.12174 8.38697C7.84312 8.70041 7.51233 8.949 7.14826 9.11853C6.7842 9.28807 6.39401 9.37522 5.99999 9.375ZM5.99999 3.75C5.82147 3.75281 5.64411 3.78269 5.4727 3.83883C5.61399 4.05485 5.6818 4.32068 5.66381 4.58811C5.64583 4.85555 5.54325 5.10688 5.37467 5.29652C5.2061 5.48617 4.9827 5.60157 4.74498 5.6218C4.50726 5.64203 4.27096 5.56575 4.07895 5.4068C3.96961 5.85998 3.98934 6.34033 4.13538 6.78023C4.28142 7.22014 4.5464 7.59745 4.89303 7.85905C5.23966 8.12066 5.65049 8.25339 6.06769 8.23856C6.48489 8.22374 6.88745 8.0621 7.21871 7.7764C7.54998 7.4907 7.79326 7.09533 7.91433 6.64593C8.03539 6.19654 8.02814 5.71574 7.89359 5.27123C7.75904 4.82671 7.50397 4.44085 7.16429 4.16796C6.8246 3.89507 6.41739 3.74889 5.99999 3.75Z" fill="#075FC5"/>
</g>
<defs>
<clipPath id="clip0_844:48851">
<rect width="12" height="12" fill="white"/>
</clipPath>
</defs>
</svg>
