<svg width="16" height="17" fill="none" xmlns="http://www.w3.org/2000/svg"><path d="M15.539 15.892a.93.93 0 01-.682.285.93.93 0 01-.683-.285l-2.968-2.972a6.58 6.58 0 01-4.018 1.336 6.56 6.56 0 01-2.61-.533 6.748 6.748 0 01-2.143-1.433 6.777 6.777 0 01-1.432-2.139A6.543 6.543 0 01.471 7.54c0-.916.177-1.789.532-2.62a6.666 6.666 0 011.432-2.138 6.812 6.812 0 012.144-1.425A6.56 6.56 0 017.188.824c.91 0 1.779.177 2.608.533a6.8 6.8 0 012.144 1.425 6.665 6.665 0 011.432 2.139c.355.83.533 1.7.533 2.611a6.548 6.548 0 01-1.335 4.022l2.969 2.972c.19.19.285.418.285.683a.932.932 0 01-.285.683zM7.188 2.745a4.72 4.72 0 00-2.407.638A4.726 4.726 0 003.035 5.13a4.715 4.715 0 00-.645 2.41c0 .865.215 1.668.645 2.408a4.727 4.727 0 001.746 1.749 4.72 4.72 0 002.407.638 4.72 4.72 0 002.406-.638 4.727 4.727 0 001.747-1.749 4.71 4.71 0 00.644-2.408 4.71 4.71 0 00-.644-2.409 4.726 4.726 0 00-1.747-1.748 4.72 4.72 0 00-2.406-.638z" fill="#444141"/></svg>