<svg width="47" height="47" fill="none" xmlns="http://www.w3.org/2000/svg"><path d="M39.167 35.25c2.154 0 3.897-1.763 3.897-3.917l.02-21.541a3.928 3.928 0 00-3.917-3.917H7.833a3.928 3.928 0 00-3.916 3.917v21.541a3.928 3.928 0 003.916 3.917H0a3.928 3.928 0 003.917 3.917h39.166A3.928 3.928 0 0047 35.25h-7.833zM7.833 9.792h31.334v21.541H7.833V9.792zM23.5 37.208a1.964 1.964 0 01-1.958-1.958c0-1.077.88-1.958 1.958-1.958 1.077 0 1.958.88 1.958 1.958a1.964 1.964 0 01-1.958 1.958z" fill="#075FC5"/></svg>