<svg width="50" height="50" fill="none" xmlns="http://www.w3.org/2000/svg"><path d="M25 16.666v-12.5H12.5a4.167 4.167 0 00-4.167 4.167v33.334a4.167 4.167 0 004.167 4.166h25a4.167 4.167 0 004.167-4.166V20.832h-12.5A4.167 4.167 0 0125 16.667zm-10.417 8.855a1.562 1.562 0 113.125 0 1.562 1.562 0 01-3.125 0zm0 6.25a1.562 1.562 0 113.125 0 1.562 1.562 0 01-3.125 0zm0 6.25a1.562 1.562 0 113.125 0 1.562 1.562 0 01-3.125 0zm6.25-12.5a1.562 1.562 0 011.563-1.563h11.458a1.563 1.563 0 110 3.125H22.396a1.562 1.562 0 01-1.563-1.562zm0 6.25a1.562 1.562 0 011.563-1.563h11.458a1.563 1.563 0 110 3.125H22.396a1.562 1.562 0 01-1.563-1.562zm0 6.25a1.562 1.562 0 011.563-1.563h11.458a1.563 1.563 0 110 3.125H22.396a1.562 1.562 0 01-1.563-1.562zm7.292-21.355V5.208l12.5 12.5H29.167a1.042 1.042 0 01-1.042-1.041z" fill="#075FC5"/></svg>