<svg width="1070" height="568" fill="none" xmlns="http://www.w3.org/2000/svg"><path opacity=".4" d="M582.411 302.592l.234-.441-.234.441zM1.421 566.353a2.142 2.142 0 01-.334.142c-.032.01-.03.006-.006.005.013 0 .126-.005.244.084.148.112.178.27.175.358-.003.071-.024.108-.017.094.01-.023.05-.09.148-.214.388-.489 1.315-1.407 2.785-2.738l-.671-.742c-1.462 1.324-2.45 2.295-2.897 2.859-.11.139-.212.283-.274.417a.766.766 0 00-.074.29.565.565 0 00.222.474.62.62 0 00.395.118 1.06 1.06 0 00.25-.045 3.13 3.13 0 00.497-.206l-.443-.896zm10.53-8.743a649.148 649.148 0 017.748-6.335l-.628-.778a641.086 641.086 0 00-7.759 6.344l.64.769zm15.596-12.591c2.518-1.988 5.2-4.088 8.036-6.292l-.613-.79a1278.768 1278.768 0 00-8.043 6.297l.62.785zm15.821-12.297c2.564-1.964 5.229-3.994 7.99-6.085l-.603-.797a1778.6 1778.6 0 00-7.995 6.088l.608.794zM59.38 520.6a1970.9 1970.9 0 017.989-5.948l-.596-.803a1966.708 1966.708 0 00-7.992 5.95l.6.801zm16.089-11.916a2027.25 2027.25 0 018.056-5.876l-.587-.81c-2.741 1.99-5.429 3.95-8.06 5.88l.59.806zm16.173-11.739c2.678-1.925 5.402-3.874 8.17-5.844l-.58-.815a2252.238 2252.238 0 00-8.174 5.847l.584.812zm16.283-11.592a2212.75 2212.75 0 018.302-5.826l-.573-.82a2214.42 2214.42 0 00-8.305 5.828l.576.818zm16.411-11.462c2.735-1.892 5.501-3.797 8.297-5.712l-.565-.825a2164.158 2164.158 0 00-8.301 5.714l.569.823zm16.546-11.335c2.731-1.853 5.489-3.714 8.271-5.583l-.558-.83a2258.56 2258.56 0 00-8.275 5.585l.562.828zm16.675-11.199a2019.53 2019.53 0 018.267-5.468l-.55-.836a2092.606 2092.606 0 00-8.271 5.471l.554.833zm16.656-10.96c2.789-1.816 5.596-3.634 8.421-5.454l-.542-.841a2003.72 2003.72 0 00-8.424 5.457l.545.838zm16.809-10.828c2.813-1.791 5.642-3.583 8.485-5.374l-.533-.846a1841.51 1841.51 0 00-8.489 5.377l.537.843zm16.956-10.678c2.819-1.754 5.651-3.507 8.495-5.256l-.524-.851c-2.846 1.75-5.679 3.503-8.499 5.258l.528.849zM225.04 408.4c2.839-1.724 5.689-3.443 8.549-5.157l-.514-.858a1713.857 1713.857 0 00-8.554 5.16l.519.855zm17.142-10.273c2.873-1.698 5.756-3.391 8.645-5.075l-.503-.864a1622.116 1622.116 0 00-8.651 5.079l.509.86zm17.295-10.08c2.89-1.66 5.788-3.312 8.69-4.954l-.492-.87a1455.581 1455.581 0 00-8.696 4.957l.498.867zm17.418-9.85c2.917-1.624 5.839-3.236 8.765-4.837l-.48-.877a1393.919 1393.919 0 00-8.772 4.84l.487.874zm17.553-9.602c2.941-1.581 5.884-3.148 8.829-4.701l-.466-.885a1253.344 1253.344 0 00-8.836 4.705l.473.881zm17.712-9.339c2.962-1.531 5.925-3.047 8.888-4.546l-.452-.892c-2.965 1.5-5.93 3.017-8.895 4.549l.459.889zm17.843-9.027c3.003-1.486 6.004-2.953 9.003-4.401l-.435-.901c-3.002 1.45-6.006 2.919-9.011 4.405l.443.897zm17.991-8.686a920.22 920.22 0 019.111-4.228l-.416-.91a945.765 945.765 0 00-9.121 4.233l.426.905zm18.233-8.341a837.059 837.059 0 019.103-3.977l-.395-.918a838.977 838.977 0 00-9.114 3.981l.406.914zm18.392-7.898a725.89 725.89 0 019.236-3.755l-.37-.929a736.776 736.776 0 00-9.249 3.76l.383.924zm18.544-7.387a637.681 637.681 0 019.415-3.508l-.341-.94a635.649 635.649 0 00-9.431 3.514l.357.934zm18.75-6.813a542.556 542.556 0 019.572-3.198l-.308-.951a536.466 536.466 0 00-9.59 3.204l.326.945zm19.088-6.172c3.216-.97 6.412-1.896 9.586-2.776l-.268-.964a455.935 455.935 0 00-9.606 2.782l.288.958zm19.3-5.347c3.226-.81 6.427-1.571 9.601-2.28l-.218-.976a373.204 373.204 0 00-9.627 2.287l.244.969zm19.516-4.341a300.999 300.999 0 019.725-1.705l-.156-.987c-3.22.509-6.473 1.079-9.758 1.71l.189.982zm19.728-3.097a238 238 0 019.85-.974l-.077-.997c-3.256.252-6.554.579-9.892.978l.119.993zm19.897-1.515c3.35-.098 6.649-.108 9.894-.028l.025-.999a184.6 184.6 0 00-9.948.027l.029 1zm19.93.529c3.328.292 6.59.691 9.783 1.199l.157-.987a140.717 140.717 0 00-9.852-1.208l-.088.996zm19.644 3.179c3.245.795 6.407 1.719 9.483 2.777l.325-.945a108.94 108.94 0 00-9.57-2.803l-.238.971zm18.747 6.5a91.47 91.47 0 014.413 2.194l.469-.883a90.759 90.759 0 00-4.462-2.218l-.42.907zm4.413 2.194a151.62 151.62 0 004.486 2.291l.44-.898a153.358 153.358 0 01-4.457-2.276l-.469.883zm13.566 6.372a148.585 148.585 0 009.341 3.471l.317-.949a147.85 147.85 0 01-9.279-3.447l-.379.925zm18.878 6.306a152.88 152.88 0 009.718 2.205l.189-.982a152.24 152.24 0 01-9.654-2.19l-.253.967zm19.557 3.778c3.284.42 6.586.738 9.903.958l.066-.998a161.898 161.898 0 01-9.842-.952l-.127.992zm19.864 1.327c3.303.027 6.618-.039 9.947-.194l-.047-.999c-3.31.154-6.608.219-9.891.193l-.009 1zm19.88-.916c3.285-.323 6.58-.729 9.885-1.215l-.146-.99c-3.289.485-6.568.889-9.837 1.21l.098.995zm19.689-2.887a238.817 238.817 0 009.748-2.1l-.231-.973a238.872 238.872 0 01-9.707 2.092l.19.981zm19.365-4.581a273.58 273.58 0 009.562-2.853l-.303-.953a273.804 273.804 0 01-9.528 2.843l.269.963zm18.967-6.02a318.408 318.408 0 009.348-3.489l-.364-.932a315.69 315.69 0 01-9.318 3.479l.334.942zm18.537-7.239a367.928 367.928 0 009.121-4.026l-.416-.909a363.807 363.807 0 01-9.096 4.014l.391.921zm18.099-8.275a420.43 420.43 0 008.892-4.48l-.461-.888a409.094 409.094 0 01-8.871 4.469l.44.899zm17.667-9.16a469.56 469.56 0 008.67-4.868l-.499-.867a470.83 470.83 0 01-8.651 4.858l.48.877zm17.251-9.921a533.161 533.161 0 008.457-5.204l-.531-.847a523.976 523.976 0 01-8.442 5.194l.516.857zm16.852-10.584a579.653 579.653 0 008.258-5.497l-.561-.828a577.715 577.715 0 01-8.244 5.488l.547.837zm16.469-11.162a640.958 640.958 0 008.075-5.759l-.587-.81a646.346 646.346 0 01-8.062 5.751l.574.818zm16.092-11.662a713.318 713.318 0 007.917-6.007l-.61-.792c-2.625 2.02-5.26 4.02-7.906 5.998l.599.801zm15.756-12.126a776.499 776.499 0 007.759-6.224l-.631-.776a763.256 763.256 0 01-7.749 6.216l.621.784zm15.433-12.543a817.064 817.064 0 007.598-6.415l-.65-.76a830.824 830.824 0 01-7.589 6.407l.641.768zm15.121-12.922a885.756 885.756 0 007.435-6.582l-.667-.745a851.367 851.367 0 01-7.427 6.574l.659.753zm14.818-13.268a922.244 922.244 0 007.286-6.744l-.683-.73a939.616 939.616 0 01-7.278 6.737l.675.737zm14.522-13.586c2.4-2.294 4.783-4.595 7.146-6.901l-.698-.716a956.214 956.214 0 01-7.139 6.894l.691.723zm14.23-13.883c2.359-2.349 4.697-4.701 7.014-7.054l-.713-.702a988.29 988.29 0 01-7.007 7.048l.706.708zm13.941-14.162c2.319-2.403 4.615-4.807 6.887-7.208l-.726-.687c-2.27 2.399-4.563 4.799-6.88 7.2l.719.695zm13.656-14.432c2.28-2.457 4.533-4.911 6.76-7.359l-.74-.673a1008.298 1008.298 0 01-6.753 7.352l.733.68zm13.369-14.696c2.24-2.512 4.45-5.016 6.629-7.509l-.753-.658a945.173 945.173 0 01-6.623 7.501l.747.666zm13.079-14.963c2.198-2.566 4.356-5.118 6.486-7.654l-.76-.643c-2.13 2.533-4.29 5.083-6.485 7.646l.759.651zm12.786-15.24c2.14-2.618 4.25-5.215 6.32-7.79l-.78-.626a974.904 974.904 0 01-6.32 7.782l.78.634zm12.46-15.532a822.42 822.42 0 006.12-7.905l-.8-.607c-1.99 2.6-4.02 5.233-6.11 7.895l.79.617zm12.1-15.844c2.01-2.701 3.96-5.361 5.85-7.977l-.81-.585a857.44 857.44 0 01-5.84 7.965l.8.597zm11.66-16.162c1.94-2.782 3.8-5.505 5.58-8.162l-.83-.557c-1.78 2.652-3.64 5.37-5.58 8.147l.83.572zm11.01-16.44c1.89-2.945 3.66-5.791 5.31-8.531l-.86-.516c-1.65 2.732-3.41 5.57-5.29 8.507l.84.54zm10.32-17.171c.8-1.442 1.56-2.845 2.27-4.207l-.88-.466a234.77 234.77 0 01-2.27 4.188l.88.485z" fill="#fff"/><ellipse cx="30.5" cy="541.229" rx="5.5" ry="5.349" fill="#596AE6"/><path d="M30.5 547.077c3.3 0 6-2.605 6-5.848 0-3.244-2.7-5.849-6-5.849s-6 2.605-6 5.849c0 3.243 2.7 5.848 6 5.848z" stroke="#fff" stroke-opacity=".3"/><ellipse cx="352" cy="338.947" rx="6" ry="5.835" fill="#596AE6"/><path d="M352 345.327c3.601 0 6.545-2.842 6.545-6.38s-2.944-6.381-6.545-6.381-6.545 2.843-6.545 6.381c0 3.538 2.944 6.38 6.545 6.38z" stroke="#fff" stroke-opacity=".3" stroke-width="1.091"/><ellipse cx="974.5" cy="126.94" rx="5.5" ry="5.349" fill="#596AE6"/><path d="M974.5 132.788c3.3 0 6-2.605 6-5.848 0-3.244-2.7-5.849-6-5.849s-6 2.605-6 5.849c0 3.243 2.7 5.848 6 5.848z" stroke="#fff" stroke-opacity=".3"/><ellipse cx="1025.5" cy="65.672" rx="7.5" ry="7.294" fill="#596AE6"/><path d="M1025.5 73.647c4.5 0 8.18-3.553 8.18-7.975 0-4.423-3.68-7.976-8.18-7.976s-8.18 3.553-8.18 7.976c0 4.422 3.68 7.975 8.18 7.975z" stroke="#fff" stroke-opacity=".3" stroke-width="1.364"/><ellipse cx="79" cy="505.732" rx="7" ry="6.808" fill="#596AE6"/><path d="M79 513.039c4.129 0 7.5-3.258 7.5-7.307s-3.371-7.308-7.5-7.308-7.5 3.259-7.5 7.308c0 4.049 3.371 7.307 7.5 7.307z" stroke="#fff" stroke-opacity=".3"/></svg>