<svg width="132" height="30" fill="none" xmlns="http://www.w3.org/2000/svg"><path d="M5.146 19.396l-1.98-1.143a.29.29 0 00-.437.255v3.322a.291.291 0 00.145.254l1.982 1.155a.291.291 0 00.437-.253V19.65a.291.291 0 00-.147-.255z" fill="#55A4F2"/><path d="M23.884 5.715l-8.538 4.769a.29.29 0 01-.277 0L9.783 7.802a.146.146 0 010-.261l8.474-4.597a.292.292 0 000-.514L15.353.812a.292.292 0 00-.291 0L3.177 7.455a.291.291 0 000 .513l11.885 6.642a.292.292 0 00.291 0l8.567-4.775a.146.146 0 01.22.129v9.884a.29.29 0 01-.146.255l-8.63 4.999a.292.292 0 01-.292 0L7.795 20.91a.291.291 0 00-.438.255v3.35a.291.291 0 00.146.254l7.576 4.418a.291.291 0 00.292 0l7.966-4.61 4.3-2.419a.29.29 0 00.146-.256V7.876a.293.293 0 00-.153-.258l-3.46-1.904a.291.291 0 00-.286.001z" fill="url(#paint0_linear)"/><path d="M4.737 15.994l2.33 1.33a.291.291 0 00.438-.255v-3.38a.291.291 0 00-.146-.255l-2.331-1.311a.29.29 0 00-.437.256v3.374a.291.291 0 00.146.24z" fill="#55A4F2"/><path d="M2.573 10.717L.437 9.506A.291.291 0 000 9.762v3.351a.291.291 0 00.146.255l2.136 1.221a.291.291 0 00.437-.255v-3.361a.292.292 0 00-.146-.256z" fill="#B6E2FF"/><path d="M9.559 15.18v3.403a.291.291 0 00.146.255l5.068 2.9a.292.292 0 00.437-.256V18.06a.292.292 0 00-.145-.257l-5.07-2.871a.291.291 0 00-.436.249z" fill="url(#paint1_linear)"/><path d="M66.974 10.273h-1.28v-3.38a.146.146 0 00-.145-.145h-2.108a.146.146 0 00-.146.145v3.38H62.21a.146.146 0 00-.146.146v1.773a.146.146 0 00.146.146h1.085v7.358a.146.146 0 00.146.145h2.107a.145.145 0 00.145-.145v-7.358h1.28a.146.146 0 00.145-.146v-1.771a.146.146 0 00-.144-.148zm47.161 0h-1.28v-3.38a.146.146 0 00-.042-.103.148.148 0 00-.103-.042h-2.109a.148.148 0 00-.103.042.146.146 0 00-.042.103v3.38h-1.086a.148.148 0 00-.103.043.146.146 0 00-.042.103v1.773c0 .039.015.076.042.103a.148.148 0 00.103.043h1.086v7.358c0 .038.015.075.042.103a.148.148 0 00.103.042h2.107a.144.144 0 00.103-.042.143.143 0 00.043-.103v-7.358h1.279a.144.144 0 00.103-.043.148.148 0 00.043-.103v-1.771a.153.153 0 00-.042-.104.139.139 0 00-.047-.032.14.14 0 00-.055-.012zM78.17 15.756h-7.72c.085.634.404 1.212.893 1.623.486.401 1.103.602 1.853.602a3.194 3.194 0 002.243-.874.145.145 0 01.156-.026l1.77.83a.157.157 0 01.084.17.156.156 0 01-.027.062 4.703 4.703 0 01-1.702 1.435c-.784.36-1.64.537-2.502.516-1.5 0-2.723-.474-3.668-1.422-.946-.948-1.418-2.134-1.417-3.558 0-1.457.47-2.671 1.412-3.643.941-.971 2.122-1.454 3.542-1.448 1.507 0 2.732.483 3.677 1.448.945.966 1.417 2.24 1.417 3.822l-.01.463zm-2.4-1.894a2.419 2.419 0 00-.938-1.301 2.72 2.72 0 00-1.628-.503 2.869 2.869 0 00-1.761.564c-.319.235-.613.649-.882 1.24h5.209zm44.472-3.835a5.076 5.076 0 012.547.671 4.964 4.964 0 012.529 4.347 5.024 5.024 0 01-.673 2.535 4.867 4.867 0 01-1.834 1.843 5.066 5.066 0 01-2.56.664 4.78 4.78 0 01-3.516-1.465 5.046 5.046 0 01-1.091-5.46 5.041 5.041 0 014.598-3.137v.002zm.04 2.263a2.477 2.477 0 00-1.864.778c-.497.518-.745 1.183-.744 1.993 0 .831.243 1.506.728 2.023a2.466 2.466 0 001.875.774 2.48 2.48 0 001.877-.784c.499-.521.749-1.193.749-2.013 0-.821-.243-1.489-.729-2.004a2.483 2.483 0 00-1.897-.768h.005zM42.45 10.274h2.135a.145.145 0 01.137.09l2.45 5.916 2.703-5.92a.146.146 0 01.135-.086h2.138a.145.145 0 01.133.208l-5.86 12.78a.145.145 0 01-.133.086h-2.156A.145.145 0 0144 23.14l1.871-4.008-3.556-8.656a.146.146 0 01.135-.203zm15.825 3.799l-3.067.028a.146.146 0 01-.146-.146l-.03-1.49a.146.146 0 01.145-.146h4.226a.145.145 0 00.145-.146v-1.738a.145.145 0 00-.145-.145h-4.371a1.993 1.993 0 00-1.993 1.993v1.825a1.994 1.994 0 001.993 1.995h3.07a.146.146 0 01.145.145l.03 1.457a.146.146 0 01-.146.146h-4.71a.146.146 0 00-.146.146v1.735a.146.146 0 00.145.146h4.855a1.995 1.995 0 001.995-1.995v-1.82a1.997 1.997 0 00-1.995-1.99zm-18.507 0l-3.068.028a.146.146 0 01-.146-.146l-.029-1.49a.146.146 0 01.146-.146h4.225a.145.145 0 00.146-.146v-1.738a.145.145 0 00-.146-.145h-4.37a1.993 1.993 0 00-1.995 1.993v1.82a2.006 2.006 0 002 2.001h3.06a.146.146 0 01.145.146l.03 1.457a.145.145 0 01-.146.146h-4.706a.146.146 0 00-.146.145v1.736a.146.146 0 00.146.145h4.854a1.995 1.995 0 001.995-1.994v-1.822a1.999 1.999 0 00-1.995-1.99zm54.842-2.33a2.747 2.747 0 00-1.113-1.241 3.376 3.376 0 00-1.796-.475 3.837 3.837 0 00-1.819.437 3.892 3.892 0 00-1.404 1.285 3.172 3.172 0 00-1.166-1.285 3.059 3.059 0 00-1.619-.437 3.997 3.997 0 00-1.642.335 4.09 4.09 0 00-1.37 1.011v-.953a.146.146 0 00-.145-.145h-2.105a.146.146 0 00-.146.145v9.28a.146.146 0 00.146.146h2.111a.146.146 0 00.146-.146v-4.112c0-.92.08-1.595.242-2.023.138-.398.392-.746.728-1a1.817 1.817 0 011.09-.355c.328-.01.65.089.916.28.274.22.473.52.569.859.127.389.19 1.009.189 1.86v4.49a.145.145 0 00.146.147h2.125a.146.146 0 00.146-.146v-4.173c0-.915.08-1.58.237-1.993.14-.39.395-.728.729-.972.32-.234.707-.358 1.103-.352.54 0 .944.192 1.215.575.271.383.405 1.12.405 2.204v4.71a.146.146 0 00.146.147h2.125a.146.146 0 00.146-.146v-5.467c.003-1.149-.109-1.979-.335-2.49zm37.38-1.335a.158.158 0 00.01-.057.157.157 0 00-.013-.057.151.151 0 00-.083-.077l-.136-.047a2.082 2.082 0 00-.709-.146 2.15 2.15 0 00-1.216.37c-.39.272-.698.647-.888 1.083v-1.06a.147.147 0 00-.124-.146h-1.786a.144.144 0 00-.103.042.143.143 0 00-.043.103v9.28c0 .038.015.075.043.103a.145.145 0 00.103.043h2.089a.147.147 0 00.146-.146v-3.72l-.009-.466c0-1.338.127-2.235.382-2.693.256-.459.569-.68.938-.687.194.014.383.064.559.145a.147.147 0 00.185-.084l.655-1.783zm-25.168-.135h-2.109a.144.144 0 00-.103.043.143.143 0 00-.043.103v.909a4.401 4.401 0 00-1.397-.976 4.047 4.047 0 00-1.616-.326 4.172 4.172 0 00-3.182 1.416c-.874.946-1.311 2.158-1.311 3.635 0 1.425.451 2.617 1.353 3.577.903.96 1.971 1.439 3.206 1.438a3.94 3.94 0 001.532-.291 4.706 4.706 0 001.411-.964v.866c0 .038.015.076.042.103a.148.148 0 00.103.043h2.106a.148.148 0 00.103-.043.146.146 0 00.042-.103V10.42a.141.141 0 00-.039-.101.143.143 0 00-.098-.047zm-2.895 6.837a2.479 2.479 0 01-1.876.788 2.43 2.43 0 01-1.846-.802c-.5-.533-.75-1.213-.749-2.04.001-.826.247-1.501.737-2.026a2.426 2.426 0 011.851-.787 2.507 2.507 0 011.883.774c.498.517.746 1.191.745 2.024 0 .851-.248 1.541-.745 2.069z" fill="#145CC6"/><defs><linearGradient id="paint0_linear" x1="-10.33" y1="1.847" x2="24.028" y2="19.555" gradientUnits="userSpaceOnUse"><stop offset=".01" stop-color="#55A4F2"/><stop offset="1" stop-color="#145CC6"/></linearGradient><linearGradient id="paint1_linear" x1="1778.68" y1="1165.62" x2="2815.8" y2="1596.84" gradientUnits="userSpaceOnUse"><stop offset=".01" stop-color="#55A4F2"/><stop offset="1" stop-color="#145CC6"/></linearGradient></defs></svg>