<svg width="50" height="50" fill="none" xmlns="http://www.w3.org/2000/svg"><path d="M37.5 4.688a1.562 1.562 0 00-2.669-1.107l-6.25 6.25a1.561 1.561 0 00-.456 1.107v8.728l-2.316 2.312A3.133 3.133 0 0021.875 25a3.126 3.126 0 106.144-.812l2.315-2.313h8.729a1.562 1.562 0 001.106-.456l6.25-6.25a1.563 1.563 0 00-1.106-2.669H37.5V4.688zm6.075 17.743A18.75 18.75 0 1127.572 6.425l-1.197 1.197A4.688 4.688 0 0025 10.938 14.063 14.063 0 1039.063 25a4.688 4.688 0 003.312-1.375l1.2-1.194zM25 14.063A10.937 10.937 0 1035.938 25h-4.31l-.39.39a6.25 6.25 0 11-6.629-6.627l.391-.391v-4.31z" fill="#075FC5"/></svg>