<svg width="40" height="40" fill="none" xmlns="http://www.w3.org/2000/svg"><g clip-path="url(#clip0_890:42629)"><path d="M32.24 1.02H7.76c-2.92 0-5.32 2.409-5.32 5.43v18.12C2.44 27.55 4.8 30 7.76 30h3.12v7.55c0 2.04 2.44 3.02 3.8 1.551L23.04 30h9.2c2.92 0 5.32-2.408 5.32-5.428V6.448c0-3.02-2.4-5.428-5.32-5.428zm-3.96 11.266l-8.72 9.55c-.44.45-1 .736-1.64.736-.64 0-1.2-.245-1.64-.735l-4.56-5.061c-.84-.94-.8-2.368.12-3.225.92-.857 2.32-.816 3.16.123l2.96 3.265 7.08-7.755c.84-.898 2.24-.98 3.16-.123.88.857.92 2.286.08 3.225z" fill="#075FC5"/></g><defs><clipPath id="clip0_890:42629"><path fill="#fff" d="M0 0h40v40H0z"/></clipPath></defs></svg>