<svg width="1086" height="598" fill="none" xmlns="http://www.w3.org/2000/svg"><path opacity=".4" d="M582.411 325.118l.239-.439-.239.439zM1.416 596.35a2.327 2.327 0 01-.332.146c-.032.009-.03.005-.004.004.014 0 .129-.005.247.085a.434.434 0 01.173.352c-.002.068-.022.104-.015.089.01-.024.05-.093.148-.22.384-.5 1.306-1.439 2.768-2.801l-.682-.732c-1.453 1.354-2.436 2.348-2.879 2.924-.11.142-.209.288-.27.424a.775.775 0 00-.07.29.565.565 0 00.22.469.605.605 0 00.4.119.975.975 0 00.252-.046c.145-.044.314-.119.497-.212l-.453-.891zm10.47-8.96a651.59 651.59 0 017.707-6.482l-.638-.77a655.5 655.5 0 00-7.72 6.492l.65.76zm15.522-12.891c2.508-2.037 5.18-4.189 8.007-6.448l-.624-.781a1262.29 1262.29 0 00-8.014 6.453l.63.776zm15.74-12.584c2.556-2.015 5.214-4.097 7.968-6.241l-.615-.789a1662.984 1662.984 0 00-7.972 6.245l.62.785zm15.94-12.414a1918.13 1918.13 0 017.97-6.104l-.606-.796a2009.995 2009.995 0 00-7.974 6.108l.61.792zm16.024-12.209c2.626-1.979 5.307-3.992 8.041-6.034l-.598-.801a2114.319 2114.319 0 00-8.045 6.037l.602.798zm16.115-12.033c2.674-1.978 5.394-3.979 8.157-6.003l-.591-.806a2087.797 2087.797 0 00-8.16 6.005l.594.804zm16.231-11.888c2.725-1.977 5.488-3.972 8.288-5.984l-.583-.812a2214.335 2214.335 0 00-8.293 5.987l.588.809zm16.362-11.757c2.723-1.938 5.477-3.889 8.261-5.851l-.577-.818c-2.785 1.963-5.54 3.915-8.264 5.854l.58.815zm16.499-11.63c2.721-1.899 5.467-3.807 8.238-5.722l-.568-.823a2031.418 2031.418 0 00-8.242 5.725l.572.82zm16.624-11.489c2.727-1.866 5.476-3.737 8.245-5.612l-.561-.828c-2.77 1.876-5.52 3.748-8.249 5.615l.565.825zm16.606-11.245a2154.19 2154.19 0 018.41-5.606l-.552-.833a1891.303 1891.303 0 00-8.415 5.609l.557.83zm16.774-11.12c2.805-1.839 5.625-3.678 8.46-5.516l-.543-.839a1915.671 1915.671 0 00-8.465 5.519l.548.836zm16.923-10.97c2.812-1.801 5.637-3.6 8.474-5.396l-.535-.845a1908.779 1908.779 0 00-8.479 5.399l.54.842zm17.022-10.773c2.836-1.773 5.684-3.542 8.541-5.304l-.525-.851a1651.685 1651.685 0 00-8.546 5.307l.53.848zm17.119-10.562a1631.93 1631.93 0 018.631-5.217l-.514-.858a1594.54 1594.54 0 00-8.637 5.221l.52.854zm17.272-10.366c2.887-1.707 5.781-3.406 8.68-5.095l-.503-.864c-2.901 1.69-5.797 3.39-8.686 5.098l.509.861zm17.397-10.131c2.916-1.671 5.836-3.331 8.76-4.979l-.491-.871a1386.39 1386.39 0 00-8.766 4.982l.497.868zm17.544-9.885c2.937-1.627 5.877-3.239 8.82-4.838l-.478-.878a1235.217 1235.217 0 00-8.827 4.841l.485.875zm17.704-9.617c2.963-1.578 5.926-3.14 8.889-4.685l-.462-.886a1136.55 1136.55 0 00-8.897 4.688l.47.883zm17.837-9.299c3.005-1.532 6.009-3.046 9.011-4.54l-.445-.895a1072.846 1072.846 0 00-9.02 4.544l.454.891zm18.008-8.961a937.497 937.497 0 019.107-4.357l-.427-.905a927.686 927.686 0 00-9.117 4.363l.437.899zm18.245-8.605a825.583 825.583 0 019.103-4.101l-.405-.915a819.35 819.35 0 00-9.114 4.107l.416.909zm18.41-8.154a714.348 714.348 0 019.26-3.885l-.38-.925a710.465 710.465 0 00-9.273 3.89l.393.92zm18.569-7.634a626.918 626.918 0 019.449-3.634l-.352-.936a624.72 624.72 0 00-9.463 3.64l.366.93zm18.816-7.059a536.152 536.152 0 019.584-3.308l-.317-.948a538.151 538.151 0 00-9.602 3.314l.335.942zm19.143-6.396a438.332 438.332 0 019.6-2.875l-.276-.961a445.9 445.9 0 00-9.622 2.881l.298.955zm19.366-5.549a361.718 361.718 0 019.623-2.368l-.225-.974c-3.191.738-6.408 1.53-9.65 2.374l.252.968zm19.599-4.518a294.082 294.082 0 019.786-1.781l-.162-.987c-3.24.532-6.514 1.129-9.819 1.787l.195.981zm19.829-3.236c3.347-.417 6.654-.76 9.917-1.025l-.081-.997a234.29 234.29 0 00-9.96 1.03l.124.992zm20.014-1.6a178.37 178.37 0 019.963-.044l.024-1a180.373 180.373 0 00-10.019.044l.032 1zm20.053.519c3.349.298 6.633.706 9.846 1.23l.161-.987a137.23 137.23 0 00-9.918-1.239l-.089.996zm19.752 3.267c3.258.818 6.434 1.771 9.522 2.862l.333-.942a106.602 106.602 0 00-9.612-2.89l-.243.97zm18.804 6.695a89.625 89.625 0 014.422 2.261l.479-.878a90.283 90.283 0 00-4.471-2.285l-.43.902zm4.422 2.261c1.496.818 3 1.607 4.509 2.367l.45-.893a149.912 149.912 0 01-4.48-2.352l-.479.878zm13.637 6.582a146.129 146.129 0 009.408 3.586l.323-.946a146.337 146.337 0 01-9.343-3.561l-.388.921zm19.019 6.512c3.249.869 6.52 1.624 9.809 2.269l.193-.981a147.881 147.881 0 01-9.744-2.254l-.258.966zm19.742 3.88c3.318.427 6.654.748 10.006.966l.065-.997a158.952 158.952 0 01-9.943-.961l-.128.992zm20.065 1.316c3.338.017 6.689-.064 10.053-.238l-.052-.998a176.07 176.07 0 01-9.996.236l-.005 1zm20.075-1.026c3.319-.349 6.648-.785 9.986-1.305l-.154-.988a201.72 201.72 0 01-9.937 1.298l.105.995zm19.863-3.081a233.322 233.322 0 009.839-2.225l-.241-.97a233.287 233.287 0 01-9.798 2.215l.2.98zm19.51-4.836a272.15 272.15 0 009.64-3.005l-.315-.949a268.688 268.688 0 01-9.604 2.993l.279.961zm19.082-6.32a314.861 314.861 0 009.412-3.659l-.378-.926a312.792 312.792 0 01-9.381 3.647l.347.938zm18.622-7.569a364.306 364.306 0 009.17-4.206l-.43-.903a360.729 360.729 0 01-9.145 4.195l.405.914zm18.156-8.623a414.38 414.38 0 008.928-4.668l-.474-.881a410.243 410.243 0 01-8.906 4.657l.452.892zm17.703-9.52c2.902-1.648 5.8-3.335 8.693-5.06l-.512-.859a472.499 472.499 0 01-8.675 5.049l.494.87zm17.267-10.291a529.435 529.435 0 008.469-5.396l-.545-.838a539.176 539.176 0 01-8.453 5.386l.529.848zm16.852-10.957a595.846 595.846 0 008.26-5.689l-.574-.819a593.883 593.883 0 01-8.246 5.68l.56.828zm16.457-11.538a647.215 647.215 0 008.065-5.949l-.599-.8a663.3 663.3 0 01-8.054 5.94l.588.809zm16.074-12.045a707.194 707.194 0 007.893-6.188l-.623-.782a714.382 714.382 0 01-7.881 6.179l.611.791zm15.715-12.497a767.55 767.55 0 007.733-6.408l-.643-.766a779.294 779.294 0 01-7.723 6.4l.633.774zm15.383-12.914a820.267 820.267 0 007.573-6.601l-.661-.75a845.5 845.5 0 01-7.564 6.594l.652.757zm15.066-13.291a884.392 884.392 0 007.408-6.769l-.678-.735a882.656 882.656 0 01-7.401 6.762l.671.742zm14.756-13.635a954.58 954.58 0 007.249-6.923l-.695-.72a933.307 933.307 0 01-7.241 6.916l.687.727zm14.454-13.952a988.426 988.426 0 007.104-7.076l-.71-.705a966.09 966.09 0 01-7.096 7.068l.702.713zm14.157-14.247c2.343-2.406 4.666-4.815 6.967-7.225l-.723-.691a1015.339 1015.339 0 01-6.96 7.219l.716.697zm13.864-14.523c2.302-2.459 4.581-4.918 6.835-7.374l-.737-.676c-2.252 2.454-4.528 4.91-6.828 7.367l.73.683zm13.573-14.788c2.261-2.513 4.496-5.021 6.704-7.523l-.75-.661a1047.287 1047.287 0 01-6.697 7.515l.743.669zm13.281-15.049c2.22-2.566 4.41-5.123 6.569-7.669l-.762-.646a1018.187 1018.187 0 01-6.563 7.66l.756.655zm12.986-15.311a887.482 887.482 0 006.42-7.81l-.77-.632c-2.11 2.585-4.245 5.187-6.419 7.802l.769.64zm12.68-15.582c2.13-2.67 4.21-5.318 6.26-7.942l-.79-.615a982.002 982.002 0 01-6.25 7.934l.78.623zm12.36-15.868c2.06-2.715 4.08-5.4 6.05-8.052l-.8-.596c-1.97 2.649-3.98 5.33-6.05 8.042l.8.606zm11.99-16.171a846.73 846.73 0 005.78-8.12l-.82-.574a846.23 846.23 0 01-5.77 8.109l.81.585zm11.54-16.48c1.92-2.84 3.77-5.618 5.53-8.33l-.84-.546c-1.76 2.707-3.6 5.48-5.52 8.316l.83.56zm10.89-16.746c1.87-3 3.62-5.9 5.25-8.692l-.86-.505a383.11 383.11 0 01-5.24 8.669l.85.528zm10.21-17.484c.79-1.464 1.54-2.89 2.25-4.275l-.9-.456c-.7 1.379-1.45 2.798-2.23 4.256l.88.475z" fill="#fff"/><circle cx="46.5" cy="557.5" r="5.5" fill="#596AE6"/><circle cx="46.5" cy="557.5" r="6" stroke="#fff" stroke-opacity=".3"/><circle cx="756.5" cy="318.5" r="5.5" fill="#596AE6"/><circle cx="756.5" cy="318.5" r="6" stroke="#fff" stroke-opacity=".3"/><circle cx="1048.5" cy="49.5" r="5.5" fill="#596AE6"/><circle cx="1048.5" cy="49.5" r="6" stroke="#fff" stroke-opacity=".3"/><circle cx="826.5" cy="277.5" r="6.5" fill="#596AE6"/><circle cx="826.5" cy="277.5" r="7" stroke="#fff" stroke-opacity=".3"/><circle cx="95" cy="521" r="7" fill="#596AE6"/><circle cx="95" cy="521" r="7.5" stroke="#fff" stroke-opacity=".3"/><path d="M1075.61 6.28l-.72 20.508-17.4-10.877 18.12-9.631z" fill="#788EEF"/></svg>