<svg width="16" height="17" viewBox="0 0 16 17" fill="none" xmlns="http://www.w3.org/2000/svg">
<path d="M15.5388 15.8915C15.3489 16.0816 15.1215 16.1767 14.8566 16.1767C14.5917 16.1767 14.3643 16.0816 14.1744 15.8915L11.2058 12.92C10.0063 13.8104 8.66693 14.2557 7.18761 14.2557C6.27803 14.2557 5.40843 14.0781 4.57881 13.7229C3.7492 13.3677 3.03452 12.89 2.4348 12.2897C1.83508 11.6894 1.3578 10.9765 1.00296 10.1511C0.648122 9.32563 0.470703 8.45518 0.470703 7.5397C0.470703 6.62423 0.648122 5.75128 1.00296 4.92085C1.3578 4.09042 1.83508 3.37755 2.4348 2.78224C3.03452 2.18694 3.7492 1.71169 4.57881 1.35651C5.40843 1.00132 6.27803 0.82373 7.18761 0.82373C8.0972 0.82373 8.9668 1.00132 9.79642 1.35651C10.626 1.71169 11.3407 2.18694 11.9404 2.78224C12.5402 3.37755 13.0174 4.09042 13.3723 4.92085C13.7271 5.75128 13.9045 6.62173 13.9045 7.5322C13.9045 9.02297 13.4597 10.3637 12.5701 11.5543L15.5388 14.5258C15.7287 14.7159 15.8236 14.9435 15.8236 15.2087C15.8236 15.4738 15.7287 15.7014 15.5388 15.8915ZM7.18761 2.74472C6.31801 2.74472 5.51588 2.95733 4.78122 3.38255C4.04656 3.80777 3.46433 4.39058 3.03452 5.13096C2.60472 5.87134 2.38982 6.67426 2.38982 7.5397C2.38982 8.40515 2.60472 9.20807 3.03452 9.94845C3.46433 10.6888 4.04656 11.2716 4.78122 11.6969C5.51588 12.1221 6.31801 12.3347 7.18761 12.3347C8.05722 12.3347 8.85935 12.1221 9.59401 11.6969C10.3287 11.2716 10.9109 10.6888 11.3407 9.94845C11.7705 9.20807 11.9854 8.40515 11.9854 7.5397C11.9854 6.67426 11.7705 5.87134 11.3407 5.13096C10.9109 4.39058 10.3287 3.80777 9.59401 3.38255C8.85935 2.95733 8.05722 2.74472 7.18761 2.74472Z" fill="#444141"/>
</svg>
