<svg width="50" height="50" viewBox="0 0 50 50" fill="none" xmlns="http://www.w3.org/2000/svg">
<path d="M25 16.6665V4.1665H12.5C11.3949 4.1665 10.3351 4.60549 9.5537 5.38689C8.7723 6.16829 8.33331 7.2281 8.33331 8.33317V41.6665C8.33331 42.7716 8.7723 43.8314 9.5537 44.6128C10.3351 45.3942 11.3949 45.8332 12.5 45.8332H37.5C38.605 45.8332 39.6649 45.3942 40.4463 44.6128C41.2277 43.8314 41.6666 42.7716 41.6666 41.6665V20.8332H29.1666C28.0616 20.8332 27.0018 20.3942 26.2204 19.6128C25.439 18.8314 25 17.7716 25 16.6665ZM14.5833 25.5207C14.5833 25.1063 14.7479 24.7088 15.041 24.4158C15.334 24.1228 15.7314 23.9582 16.1458 23.9582C16.5602 23.9582 16.9576 24.1228 17.2507 24.4158C17.5437 24.7088 17.7083 25.1063 17.7083 25.5207C17.7083 25.9351 17.5437 26.3325 17.2507 26.6255C16.9576 26.9186 16.5602 27.0832 16.1458 27.0832C15.7314 27.0832 15.334 26.9186 15.041 26.6255C14.7479 26.3325 14.5833 25.9351 14.5833 25.5207ZM14.5833 31.7707C14.5833 31.3563 14.7479 30.9588 15.041 30.6658C15.334 30.3728 15.7314 30.2082 16.1458 30.2082C16.5602 30.2082 16.9576 30.3728 17.2507 30.6658C17.5437 30.9588 17.7083 31.3563 17.7083 31.7707C17.7083 32.1851 17.5437 32.5825 17.2507 32.8755C16.9576 33.1686 16.5602 33.3332 16.1458 33.3332C15.7314 33.3332 15.334 33.1686 15.041 32.8755C14.7479 32.5825 14.5833 32.1851 14.5833 31.7707ZM14.5833 38.0207C14.5833 37.6063 14.7479 37.2088 15.041 36.9158C15.334 36.6228 15.7314 36.4582 16.1458 36.4582C16.5602 36.4582 16.9576 36.6228 17.2507 36.9158C17.5437 37.2088 17.7083 37.6063 17.7083 38.0207C17.7083 38.4351 17.5437 38.8325 17.2507 39.1255C16.9576 39.4186 16.5602 39.5832 16.1458 39.5832C15.7314 39.5832 15.334 39.4186 15.041 39.1255C14.7479 38.8325 14.5833 38.4351 14.5833 38.0207ZM20.8333 25.5207C20.8333 25.1063 20.9979 24.7088 21.291 24.4158C21.584 24.1228 21.9814 23.9582 22.3958 23.9582H33.8541C34.2685 23.9582 34.666 24.1228 34.959 24.4158C35.252 24.7088 35.4166 25.1063 35.4166 25.5207C35.4166 25.9351 35.252 26.3325 34.959 26.6255C34.666 26.9186 34.2685 27.0832 33.8541 27.0832H22.3958C21.9814 27.0832 21.584 26.9186 21.291 26.6255C20.9979 26.3325 20.8333 25.9351 20.8333 25.5207ZM20.8333 31.7707C20.8333 31.3563 20.9979 30.9588 21.291 30.6658C21.584 30.3728 21.9814 30.2082 22.3958 30.2082H33.8541C34.2685 30.2082 34.666 30.3728 34.959 30.6658C35.252 30.9588 35.4166 31.3563 35.4166 31.7707C35.4166 32.1851 35.252 32.5825 34.959 32.8755C34.666 33.1686 34.2685 33.3332 33.8541 33.3332H22.3958C21.9814 33.3332 21.584 33.1686 21.291 32.8755C20.9979 32.5825 20.8333 32.1851 20.8333 31.7707ZM20.8333 38.0207C20.8333 37.6063 20.9979 37.2088 21.291 36.9158C21.584 36.6228 21.9814 36.4582 22.3958 36.4582H33.8541C34.2685 36.4582 34.666 36.6228 34.959 36.9158C35.252 37.2088 35.4166 37.6063 35.4166 38.0207C35.4166 38.4351 35.252 38.8325 34.959 39.1255C34.666 39.4186 34.2685 39.5832 33.8541 39.5832H22.3958C21.9814 39.5832 21.584 39.4186 21.291 39.1255C20.9979 38.8325 20.8333 38.4351 20.8333 38.0207ZM28.125 16.6665V5.20817L40.625 17.7082H29.1666C28.8904 17.7082 28.6254 17.5984 28.4301 17.4031C28.2347 17.2077 28.125 16.9428 28.125 16.6665Z" fill="#075FC5"/>
</svg>
