<svg width="47" height="47" viewBox="0 0 47 47" fill="none" xmlns="http://www.w3.org/2000/svg">
<path d="M39.1667 35.25C41.3208 35.25 43.0638 33.4875 43.0638 31.3333L43.0833 9.79167C43.0833 7.6375 41.3208 5.875 39.1667 5.875H7.83333C5.67917 5.875 3.91667 7.6375 3.91667 9.79167V31.3333C3.91667 33.4875 5.67917 35.25 7.83333 35.25H0C0 37.4042 1.7625 39.1667 3.91667 39.1667H43.0833C45.2375 39.1667 47 37.4042 47 35.25H39.1667ZM7.83333 9.79167H39.1667V31.3333H7.83333V9.79167ZM23.5 37.2083C22.4229 37.2083 21.5417 36.3271 21.5417 35.25C21.5417 34.1729 22.4229 33.2917 23.5 33.2917C24.5771 33.2917 25.4583 34.1729 25.4583 35.25C25.4583 36.3271 24.5771 37.2083 23.5 37.2083Z" fill="#075FC5"/>
</svg>
