<svg width="1070" height="568" viewBox="0 0 1070 568" fill="none" xmlns="http://www.w3.org/2000/svg">
<path opacity="0.4" d="M582.411 302.592L582.645 302.151L582.411 302.592ZM1.42088 566.353C1.2559 566.435 1.14812 566.478 1.08682 566.495C1.05514 566.505 1.05677 566.501 1.08072 566.5C1.09388 566.5 1.20708 566.495 1.32499 566.584C1.47252 566.696 1.50279 566.854 1.49978 566.942C1.49738 567.013 1.47636 567.05 1.48292 567.036C1.49336 567.013 1.53329 566.946 1.63143 566.822C2.01887 566.333 2.94564 565.415 4.41585 564.084L3.74456 563.342C2.2833 564.666 1.29454 565.637 0.847688 566.201C0.737253 566.34 0.636193 566.484 0.574233 566.618C0.544592 566.683 0.504526 566.786 0.500358 566.908C0.495575 567.049 0.541352 567.245 0.721794 567.382C0.872613 567.496 1.03612 567.502 1.11714 567.5C1.20893 567.496 1.29593 567.476 1.36729 567.455C1.51207 567.413 1.68101 567.34 1.8644 567.249L1.42088 566.353ZM11.9516 557.61C14.2028 555.737 16.7917 553.618 19.6986 551.275L19.0711 550.497C16.1608 552.842 13.5678 554.964 11.3121 556.841L11.9516 557.61ZM27.5465 545.019C30.0647 543.031 32.7463 540.931 35.5833 538.727L34.9699 537.937C32.1309 540.142 29.4472 542.244 26.9269 544.234L27.5465 545.019ZM43.3683 532.722C45.9318 530.758 48.5966 528.728 51.3582 526.637L50.7546 525.84C47.9915 527.932 45.3251 529.963 42.76 531.928L43.3683 532.722ZM59.3793 520.6C61.9711 518.66 64.6349 516.676 67.3676 514.652L66.7724 513.849C64.0384 515.874 61.3733 517.858 58.7801 519.799L59.3793 520.6ZM75.4675 508.684C78.0982 506.756 80.7845 504.796 83.5241 502.808L82.9367 501.998C80.1958 503.988 77.5082 505.948 74.8763 507.878L75.4675 508.684ZM91.6407 496.945C94.3194 495.02 97.0435 493.071 99.8108 491.101L99.2309 490.286C96.4623 492.257 93.737 494.207 91.057 496.133L91.6407 496.945ZM107.924 485.353C110.654 483.428 113.422 481.485 116.226 479.527L115.653 478.707C112.848 480.666 110.079 482.609 107.348 484.535L107.924 485.353ZM124.335 473.891C127.07 471.999 129.836 470.094 132.632 468.179L132.067 467.354C129.27 469.27 126.502 471.175 123.766 473.068L124.335 473.891ZM140.881 462.556C143.612 460.703 146.37 458.842 149.152 456.973L148.594 456.143C145.811 458.012 143.052 459.875 140.319 461.728L140.881 462.556ZM157.556 451.357C160.29 449.539 163.046 447.716 165.823 445.889L165.273 445.053C162.495 446.881 159.738 448.705 157.002 450.524L157.556 451.357ZM174.212 440.397C177.001 438.581 179.808 436.763 182.633 434.943L182.091 434.102C179.265 435.923 176.456 437.742 173.667 439.559L174.212 440.397ZM191.021 429.569C193.834 427.778 196.663 425.986 199.506 424.195L198.973 423.349C196.128 425.14 193.298 426.933 190.484 428.726L191.021 429.569ZM207.977 418.891C210.796 417.137 213.628 415.384 216.472 413.635L215.948 412.784C213.102 414.534 210.269 416.287 207.449 418.042L207.977 418.891ZM225.04 408.4C227.879 406.676 230.729 404.957 233.589 403.243L233.075 402.385C230.213 404.1 227.362 405.82 224.521 407.545L225.04 408.4ZM242.182 398.127C245.055 396.429 247.938 394.736 250.827 393.052L250.324 392.188C247.432 393.874 244.548 395.567 241.673 397.267L242.182 398.127ZM259.477 388.047C262.367 386.387 265.265 384.735 268.167 383.093L267.675 382.223C264.77 383.866 261.871 385.518 258.979 387.18L259.477 388.047ZM276.895 378.197C279.812 376.573 282.734 374.961 285.66 373.36L285.18 372.483C282.252 374.085 279.328 375.698 276.408 377.323L276.895 378.197ZM294.448 368.595C297.389 367.014 300.332 365.447 303.277 363.894L302.811 363.009C299.863 364.564 296.917 366.132 293.975 367.714L294.448 368.595ZM312.16 359.256C315.122 357.725 318.085 356.209 321.048 354.71L320.596 353.818C317.631 355.318 314.666 356.835 311.701 358.367L312.16 359.256ZM330.003 350.229C333.006 348.743 336.007 347.276 339.006 345.828L338.571 344.927C335.569 346.377 332.565 347.846 329.56 349.332L330.003 350.229ZM347.994 341.543C351.035 340.112 354.072 338.702 357.105 337.315L356.689 336.405C353.653 337.794 350.612 339.206 347.568 340.638L347.994 341.543ZM366.227 333.202C369.268 331.852 372.303 330.526 375.33 329.225L374.935 328.307C371.904 329.609 368.866 330.937 365.821 332.288L366.227 333.202ZM384.619 325.304C387.707 324.024 390.786 322.772 393.855 321.549L393.485 320.62C390.411 321.845 387.328 323.099 384.236 324.38L384.619 325.304ZM403.163 317.917C406.314 316.715 409.453 315.545 412.578 314.409L412.237 313.469C409.106 314.607 405.962 315.779 402.806 316.983L403.163 317.917ZM421.913 311.104C425.12 310 428.311 308.933 431.485 307.906L431.177 306.955C427.997 307.984 424.8 309.052 421.587 310.159L421.913 311.104ZM441.001 304.932C444.217 303.962 447.413 303.036 450.587 302.156L450.319 301.192C447.138 302.075 443.935 303.003 440.713 303.974L441.001 304.932ZM460.301 299.585C463.527 298.775 466.728 298.014 469.902 297.305L469.684 296.329C466.501 297.04 463.291 297.803 460.057 298.616L460.301 299.585ZM479.817 295.244C483.091 294.615 486.333 294.047 489.542 293.539L489.386 292.552C486.166 293.061 482.913 293.631 479.628 294.262L479.817 295.244ZM499.545 292.147C502.869 291.75 506.153 291.424 509.395 291.173L509.318 290.176C506.062 290.428 502.764 290.755 499.426 291.154L499.545 292.147ZM519.442 290.632C522.792 290.534 526.091 290.524 529.336 290.604L529.361 289.605C526.097 289.524 522.78 289.534 519.413 289.632L519.442 290.632ZM539.372 291.161C542.7 291.453 545.962 291.852 549.155 292.36L549.312 291.373C546.095 290.86 542.809 290.459 539.46 290.165L539.372 291.161ZM559.016 294.34C562.261 295.135 565.423 296.059 568.499 297.117L568.824 296.172C565.719 295.103 562.527 294.17 559.254 293.369L559.016 294.34ZM577.763 300.84C579.258 301.534 580.729 302.265 582.176 303.034L582.645 302.151C581.183 301.373 579.695 300.634 578.183 299.933L577.763 300.84ZM582.176 303.034C583.665 303.826 585.16 304.589 586.662 305.325L587.102 304.427C585.61 303.696 584.125 302.937 582.645 302.151L582.176 303.034ZM595.742 309.406C598.833 310.674 601.947 311.83 605.083 312.877L605.4 311.928C602.285 310.888 599.191 309.74 596.121 308.481L595.742 309.406ZM614.62 315.712C617.839 316.554 621.079 317.288 624.338 317.917L624.527 316.935C621.289 316.31 618.071 315.581 614.873 314.745L614.62 315.712ZM634.177 319.49C637.461 319.91 640.763 320.228 644.08 320.448L644.146 319.45C640.849 319.232 637.567 318.915 634.304 318.498L634.177 319.49ZM654.041 320.817C657.344 320.844 660.659 320.778 663.988 320.623L663.941 319.624C660.631 319.778 657.333 319.843 654.05 319.817L654.041 320.817ZM673.921 319.901C677.206 319.578 680.501 319.172 683.806 318.686L683.66 317.696C680.371 318.181 677.092 318.585 673.823 318.906L673.921 319.901ZM693.61 317.014C696.852 316.387 700.102 315.686 703.358 314.914L703.127 313.941C699.884 314.71 696.648 315.408 693.42 316.033L693.61 317.014ZM712.975 312.433C716.158 311.547 719.346 310.595 722.537 309.58L722.234 308.627C719.054 309.638 715.878 310.587 712.706 311.47L712.975 312.433ZM731.942 306.413C735.057 305.306 738.173 304.143 741.29 302.924L740.926 301.992C737.818 303.208 734.712 304.368 731.608 305.471L731.942 306.413ZM750.479 299.174C753.52 297.881 756.56 296.539 759.6 295.148L759.184 294.239C756.152 295.626 753.12 296.965 750.088 298.253L750.479 299.174ZM768.578 290.899C771.544 289.449 774.508 287.955 777.47 286.419L777.009 285.531C774.055 287.064 771.098 288.554 768.138 290L768.578 290.899ZM786.245 281.739C789.139 280.155 792.029 278.531 794.915 276.871L794.416 276.004C791.536 277.661 788.652 279.281 785.765 280.862L786.245 281.739ZM803.496 271.818C806.321 270.116 809.14 268.381 811.953 266.614L811.422 265.767C808.614 267.531 805.8 269.263 802.98 270.961L803.496 271.818ZM820.348 261.234C823.108 259.431 825.861 257.598 828.606 255.737L828.045 254.909C825.305 256.767 822.556 258.597 819.801 260.397L820.348 261.234ZM836.817 250.072C839.518 248.178 842.209 246.257 844.892 244.313L844.305 243.503C841.626 245.445 838.939 247.362 836.243 249.254L836.817 250.072ZM852.909 238.41C855.558 236.429 858.198 234.426 860.826 232.403L860.216 231.611C857.591 233.631 854.956 235.631 852.31 237.609L852.909 238.41ZM868.665 226.284C871.263 224.228 873.849 222.152 876.424 220.06L875.793 219.284C873.222 221.374 870.639 223.446 868.044 225.5L868.665 226.284ZM884.098 213.741C886.644 211.618 889.177 209.479 891.696 207.326L891.046 206.566C888.53 208.716 886 210.852 883.457 212.973L884.098 213.741ZM899.219 200.819C901.712 198.637 904.191 196.442 906.654 194.237L905.987 193.492C903.527 195.695 901.051 197.887 898.56 200.066L899.219 200.819ZM914.037 187.551C916.482 185.312 918.911 183.064 921.323 180.807L920.64 180.077C918.231 182.331 915.804 184.577 913.362 186.814L914.037 187.551ZM928.559 173.965C930.959 171.671 933.342 169.37 935.705 167.064L935.007 166.348C932.646 168.652 930.266 170.95 927.868 173.242L928.559 173.965ZM942.789 160.082C945.148 157.733 947.486 155.381 949.803 153.028L949.09 152.326C946.776 154.677 944.44 157.027 942.083 159.374L942.789 160.082ZM956.73 145.92C959.049 143.517 961.345 141.113 963.617 138.712L962.891 138.025C960.621 140.424 958.328 142.824 956.011 145.225L956.73 145.92ZM970.386 131.488C972.666 129.031 974.919 126.577 977.146 124.129L976.406 123.456C974.182 125.902 971.93 128.353 969.653 130.808L970.386 131.488ZM983.755 116.792C985.995 114.28 988.205 111.776 990.384 109.283L989.631 108.625C987.455 111.116 985.247 113.617 983.008 116.126L983.755 116.792ZM996.834 101.829C999.032 99.2628 1001.19 96.7106 1003.32 94.1747L1002.56 93.5322C1000.43 96.0654 998.27 98.615 996.075 101.178L996.834 101.829ZM1009.62 86.5891C1011.76 83.971 1013.87 81.3735 1015.94 78.7993L1015.16 78.1734C1013.09 80.7447 1010.99 83.3394 1008.84 85.9547L1009.62 86.5891ZM1022.08 71.0565C1024.17 68.3914 1026.21 65.7555 1028.2 63.152L1027.4 62.5449C1025.41 65.145 1023.38 67.7777 1021.29 70.4397L1022.08 71.0565ZM1034.18 55.2129C1036.19 52.5118 1038.14 49.8515 1040.03 47.236L1039.22 46.6508C1037.33 49.2623 1035.38 51.9188 1033.38 54.6162L1034.18 55.2129ZM1045.84 39.0508C1047.78 36.2685 1049.64 33.5461 1051.42 30.8891L1050.59 30.332C1048.81 32.9838 1046.95 35.7012 1045.01 38.4788L1045.84 39.0508ZM1056.85 22.6103C1058.74 19.6664 1060.51 16.82 1062.16 14.0799L1061.3 13.5637C1059.65 16.2955 1057.89 19.1342 1056.01 22.0712L1056.85 22.6103ZM1067.17 5.43979C1067.97 3.9984 1068.73 2.59548 1069.44 1.23275L1068.56 0.767248C1067.84 2.12293 1067.09 3.51926 1066.29 4.95457L1067.17 5.43979Z" fill="white"/>
<ellipse cx="30.5" cy="541.229" rx="5.5" ry="5.3488" fill="#596AE6"/>
<path d="M30.5 547.077C33.8005 547.077 36.5 544.472 36.5 541.229C36.5 537.985 33.8005 535.38 30.5 535.38C27.1995 535.38 24.5 537.985 24.5 541.229C24.5 544.472 27.1995 547.077 30.5 547.077Z" stroke="white" stroke-opacity="0.3"/>
<ellipse cx="352" cy="338.947" rx="6" ry="5.83505" fill="#596AE6"/>
<path d="M352 345.327C355.601 345.327 358.545 342.485 358.545 338.947C358.545 335.409 355.601 332.566 352 332.566C348.399 332.566 345.455 335.409 345.455 338.947C345.455 342.485 348.399 345.327 352 345.327Z" stroke="white" stroke-opacity="0.3" stroke-width="1.09091"/>
<ellipse cx="974.5" cy="126.94" rx="5.5" ry="5.3488" fill="#596AE6"/>
<path d="M974.5 132.788C977.8 132.788 980.5 130.183 980.5 126.94C980.5 123.696 977.8 121.091 974.5 121.091C971.2 121.091 968.5 123.696 968.5 126.94C968.5 130.183 971.2 132.788 974.5 132.788Z" stroke="white" stroke-opacity="0.3"/>
<ellipse cx="1025.5" cy="65.6717" rx="7.5" ry="7.29382" fill="#596AE6"/>
<path d="M1025.5 73.6474C1030 73.6474 1033.68 70.0944 1033.68 65.6717C1033.68 61.2491 1030 57.6961 1025.5 57.6961C1021 57.6961 1017.32 61.2491 1017.32 65.6717C1017.32 70.0944 1021 73.6474 1025.5 73.6474Z" stroke="white" stroke-opacity="0.3" stroke-width="1.36364"/>
<ellipse cx="79" cy="505.732" rx="7" ry="6.80756" fill="#596AE6"/>
<path d="M79 513.039C83.1289 513.039 86.5 509.781 86.5 505.732C86.5 501.683 83.1289 498.424 79 498.424C74.8711 498.424 71.5 501.683 71.5 505.732C71.5 509.781 74.8711 513.039 79 513.039Z" stroke="white" stroke-opacity="0.3"/>
</svg>
