<svg width="132" height="30" viewBox="0 0 132 30" fill="none" xmlns="http://www.w3.org/2000/svg">
<path d="M5.14564 19.3957L3.16562 18.2534C3.12113 18.2277 3.07064 18.2142 3.01926 18.2144C2.96789 18.2145 2.91746 18.2282 2.87309 18.254C2.82871 18.2799 2.79197 18.3171 2.76658 18.3618C2.74119 18.4064 2.72807 18.457 2.72853 18.5084V21.8303C2.72832 21.8816 2.74169 21.9321 2.76728 21.9766C2.79286 22.0211 2.82976 22.0581 2.87422 22.0838L4.8557 23.2391C4.90008 23.2648 4.95044 23.2782 5.00169 23.2782C5.05293 23.2781 5.10326 23.2646 5.1476 23.2389C5.19193 23.2131 5.2287 23.1762 5.25419 23.1317C5.27968 23.0873 5.29299 23.0369 5.29279 22.9856V19.6506C5.29311 19.5989 5.27964 19.548 5.25378 19.5032C5.22792 19.4584 5.19059 19.4213 5.14564 19.3957Z" fill="#55A4F2"/>
<path d="M23.8838 5.71517L15.346 10.4838C15.3035 10.5068 15.2559 10.5188 15.2076 10.5188C15.1593 10.5188 15.1117 10.5068 15.0692 10.4838L9.7833 7.80155C9.75905 7.78946 9.73865 7.77086 9.72439 7.74783C9.71014 7.72479 9.70259 7.69824 9.70259 7.67115C9.70259 7.64406 9.71014 7.61751 9.72439 7.59447C9.73865 7.57144 9.75905 7.55283 9.7833 7.54075L18.257 2.94402C18.3036 2.91917 18.3426 2.88212 18.3698 2.83682C18.397 2.79153 18.4114 2.73969 18.4114 2.68686C18.4114 2.63404 18.397 2.5822 18.3698 2.53691C18.3426 2.49161 18.3036 2.45456 18.257 2.42971L15.3533 0.812477C15.309 0.786902 15.2587 0.773438 15.2076 0.773438C15.1564 0.773438 15.1062 0.786902 15.0619 0.812477L3.1774 7.45479C3.13114 7.47976 3.0925 7.51677 3.06557 7.56192C3.03864 7.60706 3.02441 7.65865 3.02441 7.71122C3.02441 7.76378 3.03864 7.81537 3.06557 7.86051C3.0925 7.90566 3.13114 7.94267 3.1774 7.96764L15.0619 14.61C15.1062 14.6355 15.1564 14.649 15.2076 14.649C15.2587 14.649 15.309 14.6355 15.3533 14.61L23.9202 9.83547C23.9426 9.82223 23.968 9.81519 23.994 9.81509C24.02 9.81498 24.0455 9.82183 24.0679 9.8349C24.0904 9.84798 24.1089 9.86681 24.1216 9.88945C24.1343 9.9121 24.1408 9.93772 24.1402 9.96369V19.8478C24.1407 19.8993 24.1275 19.9501 24.1019 19.9949C24.0763 20.0397 24.0392 20.0769 23.9945 20.1027L15.3635 25.1016C15.3192 25.1271 15.2689 25.1406 15.2178 25.1406C15.1666 25.1406 15.1164 25.1271 15.0721 25.1016L7.79453 20.9099C7.75004 20.8842 7.69955 20.8707 7.64818 20.8708C7.59681 20.8709 7.54638 20.8846 7.502 20.9105C7.45762 20.9364 7.42088 20.9736 7.39549 21.0182C7.37011 21.0629 7.35698 21.1135 7.35744 21.1648V24.5159C7.35724 24.5672 7.37061 24.6177 7.39619 24.6622C7.42178 24.7067 7.45867 24.7437 7.50314 24.7694L15.0794 29.1869C15.1237 29.2125 15.1739 29.2259 15.2251 29.2259C15.2762 29.2259 15.3265 29.2125 15.3708 29.1869L23.3375 24.5771L27.637 22.1585C27.6819 22.1326 27.719 22.0952 27.7446 22.0501C27.7703 22.005 27.7834 21.9539 27.7827 21.9021V7.87585C27.7829 7.82304 27.7688 7.77115 27.7419 7.72572C27.7149 7.6803 27.6762 7.64306 27.6297 7.61797L24.1708 5.71371C24.1269 5.68916 24.0774 5.6764 24.0271 5.67665C23.9768 5.67691 23.9275 5.69018 23.8838 5.71517Z" fill="url(#paint0_linear)"/>
<path d="M4.73655 15.9937L7.06769 17.3239C7.11218 17.3496 7.16267 17.3631 7.21405 17.363C7.26542 17.3629 7.31585 17.3492 7.36022 17.3233C7.4046 17.2974 7.44134 17.2602 7.46673 17.2156C7.49212 17.1709 7.50525 17.1203 7.50478 17.069V13.6888C7.50524 13.6372 7.492 13.5864 7.4664 13.5416C7.4408 13.4968 7.40377 13.4596 7.35909 13.4338L5.02794 12.1226C4.98334 12.0968 4.93271 12.0833 4.88122 12.0835C4.82972 12.0837 4.77918 12.0975 4.73476 12.1236C4.69034 12.1496 4.65363 12.187 4.62834 12.2318C4.60306 12.2767 4.59013 12.3275 4.59085 12.379V15.7533C4.59289 15.8024 4.60732 15.8502 4.63279 15.8922C4.65826 15.9343 4.69396 15.9692 4.73655 15.9937Z" fill="#55A4F2"/>
<path d="M2.57303 10.7166L0.437119 9.50585C0.392522 9.4801 0.341899 9.46662 0.290399 9.4668C0.2389 9.46697 0.188367 9.4808 0.143947 9.50686C0.0995271 9.53292 0.0628048 9.57028 0.0375244 9.61515C0.0122441 9.66002 -0.000693922 9.71079 2.86929e-05 9.76228V13.1133C-0.000433157 13.1649 0.0128155 13.2157 0.0384137 13.2605C0.0640119 13.3053 0.101042 13.3425 0.145725 13.3683L2.28164 14.5892C2.32613 14.6149 2.37662 14.6284 2.42799 14.6283C2.47937 14.6281 2.5298 14.6144 2.57418 14.5886C2.61855 14.5627 2.65529 14.5255 2.68068 14.4809C2.70606 14.4362 2.71919 14.3856 2.71873 14.3342V10.973C2.71945 10.9212 2.70633 10.8701 2.68072 10.825C2.65511 10.7799 2.61793 10.7425 2.57303 10.7166Z" fill="#B6E2FF"/>
<path d="M9.55885 15.1808V18.5828C9.55839 18.6344 9.57163 18.6852 9.59723 18.73C9.62283 18.7748 9.65986 18.812 9.70455 18.8378L14.7733 21.7371C14.8178 21.7628 14.8683 21.7763 14.9197 21.7762C14.9711 21.7761 15.0215 21.7624 15.0659 21.7365C15.1102 21.7106 15.147 21.6734 15.1724 21.6288C15.1978 21.5841 15.2109 21.5335 15.2104 21.4822V18.0597C15.2111 18.0079 15.198 17.9568 15.1724 17.9117C15.1468 17.8667 15.1096 17.8292 15.0647 17.8033L9.99594 14.9316C9.95188 14.9062 9.90192 14.8927 9.85104 14.8926C9.80016 14.8924 9.75013 14.9056 9.70592 14.9308C9.66172 14.956 9.62489 14.9923 9.59908 15.0362C9.57328 15.08 9.55941 15.1299 9.55885 15.1808Z" fill="url(#paint1_linear)"/>
<path d="M66.9739 10.2734H65.6947V6.89326C65.6947 6.85461 65.6794 6.81755 65.6521 6.79023C65.6247 6.76291 65.5877 6.74756 65.549 6.74756H63.4408C63.4022 6.74756 63.3651 6.76291 63.3378 6.79023C63.3105 6.81755 63.2951 6.85461 63.2951 6.89326V10.2734H62.2097C62.171 10.2734 62.134 10.2888 62.1066 10.3161C62.0793 10.3434 62.064 10.3805 62.064 10.4191V12.1922C62.064 12.2309 62.0793 12.2679 62.1066 12.2953C62.134 12.3226 62.171 12.3379 62.2097 12.3379H63.2951V19.6956C63.2951 19.7343 63.3105 19.7713 63.3378 19.7986C63.3651 19.826 63.4022 19.8413 63.4408 19.8413H65.5476C65.5862 19.8413 65.6233 19.826 65.6506 19.7986C65.6779 19.7713 65.6933 19.7343 65.6933 19.6956V12.3379H66.9725C67.0111 12.3379 67.0482 12.3226 67.0755 12.2953C67.1028 12.2679 67.1182 12.2309 67.1182 12.1922V10.4206C67.1184 10.4014 67.1148 10.3825 67.1077 10.3647C67.1005 10.347 67.0899 10.3308 67.0765 10.3171C67.0631 10.3035 67.0472 10.2926 67.0296 10.2851C67.012 10.2776 66.9931 10.2736 66.9739 10.2734Z" fill="#145CC6"/>
<path d="M114.135 10.2734H112.855V6.89326C112.855 6.85461 112.84 6.81755 112.813 6.79023C112.785 6.76291 112.748 6.74756 112.71 6.74756H110.601C110.563 6.74756 110.526 6.76291 110.498 6.79023C110.471 6.81755 110.456 6.85461 110.456 6.89326V10.2734H109.37C109.332 10.2734 109.295 10.2888 109.267 10.3161C109.24 10.3434 109.225 10.3805 109.225 10.4191V12.1922C109.225 12.2309 109.24 12.2679 109.267 12.2953C109.295 12.3226 109.332 12.3379 109.37 12.3379H110.456V19.6956C110.456 19.7343 110.471 19.7713 110.498 19.7986C110.526 19.826 110.563 19.8413 110.601 19.8413H112.708C112.747 19.8413 112.784 19.826 112.811 19.7986C112.839 19.7713 112.854 19.7343 112.854 19.6956V12.3379H114.133C114.172 12.3379 114.209 12.3226 114.236 12.2953C114.263 12.2679 114.279 12.2309 114.279 12.1922V10.4206C114.279 10.4014 114.275 10.3825 114.268 10.3647C114.261 10.347 114.251 10.3308 114.237 10.3171C114.224 10.3035 114.208 10.2926 114.19 10.2851C114.173 10.2776 114.154 10.2736 114.135 10.2734Z" fill="#145CC6"/>
<path d="M78.1708 15.7562H70.4489C70.5342 16.3895 70.8527 16.9682 71.342 17.3792C71.8277 17.7804 72.4454 17.981 73.1953 17.981C74.0281 17.9931 74.8327 17.6794 75.4376 17.1068C75.4583 17.0879 75.484 17.0753 75.5116 17.0707C75.5393 17.066 75.5677 17.0695 75.5935 17.0805L77.3637 17.911C77.384 17.9211 77.402 17.9355 77.4162 17.9532C77.4304 17.9709 77.4406 17.9916 77.446 18.0136C77.4514 18.0357 77.4519 18.0587 77.4475 18.081C77.4431 18.1033 77.4339 18.1243 77.4205 18.1427C76.9763 18.7503 76.3927 19.2425 75.7188 19.5778C74.9351 19.9383 74.0794 20.1147 73.2171 20.0936C71.7165 20.0936 70.4936 19.6196 69.5485 18.6716C68.6034 17.7236 68.1314 16.5376 68.1323 15.1136C68.1323 13.6567 68.6029 12.4425 69.5441 11.4712C70.4853 10.4999 71.666 10.0172 73.086 10.023C74.5925 10.023 75.8183 10.5057 76.7634 11.4712C77.7085 12.4367 78.1805 13.7106 78.1796 15.2929L78.1708 15.7562ZM75.7697 13.8621C75.6141 13.3343 75.2831 12.8754 74.8315 12.561C74.3568 12.2236 73.7863 12.0474 73.204 12.0584C72.5707 12.0467 71.9514 12.245 71.4426 12.6222C71.124 12.8573 70.8301 13.2706 70.5611 13.8621H75.7697Z" fill="#145CC6"/>
<path d="M120.242 10.0268C121.136 10.0228 122.014 10.2545 122.789 10.6985C123.559 11.1324 124.2 11.764 124.644 12.528C125.089 13.2919 125.322 14.1607 125.318 15.0446C125.322 15.9343 125.09 16.8091 124.645 17.5798C124.212 18.3492 123.578 18.9863 122.811 19.4228C122.032 19.867 121.148 20.0963 120.251 20.0872C119.596 20.0969 118.946 19.9718 118.341 19.7196C117.736 19.4675 117.19 19.0937 116.735 18.6215C116.038 17.9192 115.562 17.0271 115.368 16.0564C115.174 15.0857 115.27 14.0793 115.644 13.1627C116.018 12.2461 116.653 11.4598 117.471 10.9019C118.289 10.344 119.252 10.0392 120.242 10.0254V10.0268ZM120.282 12.2895C119.934 12.281 119.588 12.3459 119.267 12.48C118.946 12.614 118.657 12.8142 118.418 13.0675C117.921 13.5862 117.673 14.2506 117.674 15.0607C117.674 15.8921 117.917 16.5667 118.402 17.0844C118.642 17.3393 118.933 17.5401 119.256 17.6735C119.58 17.807 119.928 17.8699 120.277 17.858C120.628 17.8671 120.976 17.8019 121.299 17.6668C121.623 17.5317 121.914 17.3298 122.154 17.0742C122.653 16.5526 122.903 15.8814 122.903 15.0607C122.903 14.2399 122.66 13.5721 122.174 13.0573C121.931 12.8021 121.635 12.6017 121.308 12.4693C120.981 12.3369 120.63 12.2756 120.277 12.2895H120.282Z" fill="#145CC6"/>
<path d="M42.4493 10.2735H44.5852C44.6145 10.273 44.6432 10.2814 44.6676 10.2975C44.692 10.3136 44.711 10.3367 44.7222 10.3638L47.1713 16.2805L49.8754 10.3594C49.887 10.3336 49.9059 10.3118 49.9297 10.2965C49.9535 10.2812 49.9812 10.2732 50.0095 10.2735H52.1483C52.173 10.2733 52.1973 10.2794 52.219 10.2912C52.2407 10.303 52.259 10.3201 52.2723 10.3409C52.2855 10.3618 52.2933 10.3856 52.2948 10.4103C52.2963 10.4349 52.2915 10.4595 52.2809 10.4818L46.421 23.2623C46.4095 23.2879 46.3909 23.3096 46.3673 23.3248C46.3438 23.3401 46.3164 23.3482 46.2884 23.3483H44.1321C44.1074 23.3485 44.0831 23.3424 44.0614 23.3306C44.0397 23.3188 44.0214 23.3016 44.0081 23.2808C43.9949 23.26 43.9871 23.2361 43.9856 23.2115C43.9841 23.1868 43.9889 23.1622 43.9995 23.1399L45.8702 19.1318L42.3138 10.476C42.3044 10.4537 42.3006 10.4295 42.3029 10.4054C42.3052 10.3813 42.3134 10.3582 42.3269 10.3381C42.3403 10.318 42.3585 10.3016 42.3799 10.2903C42.4013 10.279 42.4251 10.2732 42.4493 10.2735Z" fill="#145CC6"/>
<path d="M58.2749 14.0733L55.208 14.101C55.1694 14.101 55.1323 14.0856 55.105 14.0583C55.0777 14.031 55.0623 13.9939 55.0623 13.9553L55.0317 12.4648C55.0317 12.4262 55.0471 12.3891 55.0744 12.3618C55.1017 12.3345 55.1388 12.3191 55.1774 12.3191H59.4026C59.4412 12.3191 59.4783 12.3038 59.5056 12.2764C59.533 12.2491 59.5483 12.212 59.5483 12.1734V10.4352C59.5483 10.3966 59.533 10.3595 59.5056 10.3322C59.4783 10.3049 59.4412 10.2896 59.4026 10.2896H55.0317C54.5031 10.2896 53.9961 10.4995 53.6223 10.8733C53.2486 11.2471 53.0386 11.7541 53.0386 12.2827V14.1083C53.0386 14.637 53.2485 15.1441 53.6223 15.5181C53.996 15.8921 54.503 16.1025 55.0317 16.1028H58.1015C58.1402 16.1028 58.1772 16.1182 58.2046 16.1455C58.2319 16.1728 58.2472 16.2099 58.2472 16.2485L58.2764 17.7055C58.2764 17.7442 58.261 17.7812 58.2337 17.8085C58.2064 17.8359 58.1693 17.8512 58.1307 17.8512H53.4203C53.3817 17.8512 53.3446 17.8666 53.3173 17.8939C53.29 17.9212 53.2746 17.9583 53.2746 17.9969V19.7322C53.2746 19.7708 53.29 19.8079 53.3173 19.8352C53.3446 19.8625 53.3817 19.8779 53.4203 19.8779H58.2749C58.8039 19.8779 59.3112 19.6677 59.6853 19.2936C60.0594 18.9196 60.2695 18.4123 60.2695 17.8833V16.0621C60.2672 15.5343 60.0561 15.0289 59.6824 14.6563C59.3087 14.2836 58.8027 14.0741 58.2749 14.0733Z" fill="#145CC6"/>
<path d="M39.7683 14.0733L36.6999 14.101C36.6613 14.101 36.6242 14.0856 36.5969 14.0583C36.5696 14.031 36.5542 13.9939 36.5542 13.9553L36.5251 12.4648C36.5251 12.4262 36.5405 12.3891 36.5678 12.3618C36.5951 12.3345 36.6322 12.3191 36.6708 12.3191H40.896C40.9346 12.3191 40.9717 12.3038 40.999 12.2764C41.0264 12.2491 41.0417 12.212 41.0417 12.1734V10.4352C41.0417 10.3966 41.0264 10.3595 40.999 10.3322C40.9717 10.3049 40.9346 10.2896 40.896 10.2896H36.5251C36.2632 10.2894 36.0039 10.3408 35.7619 10.4409C35.5199 10.5409 35.3 10.6877 35.1148 10.8728C34.9296 11.0579 34.7826 11.2777 34.6824 11.5196C34.5821 11.7615 34.5305 12.0208 34.5305 12.2827V14.1039C34.5321 14.634 34.7433 15.1419 35.1181 15.5167C35.4929 15.8915 36.0009 16.1028 36.5309 16.1043H39.5906C39.6292 16.1043 39.6663 16.1197 39.6936 16.147C39.7209 16.1743 39.7363 16.2114 39.7363 16.25L39.7654 17.707C39.7654 17.7456 39.7501 17.7827 39.7227 17.81C39.6954 17.8373 39.6583 17.8527 39.6197 17.8527H34.9137C34.8751 17.8527 34.838 17.868 34.8107 17.8953C34.7834 17.9227 34.768 17.9597 34.768 17.9984V19.7336C34.768 19.7723 34.7834 19.8093 34.8107 19.8366C34.838 19.864 34.8751 19.8793 34.9137 19.8793H39.7683C40.2973 19.8793 40.8046 19.6692 41.1787 19.2951C41.5528 18.9211 41.7629 18.4137 41.7629 17.8847V16.0635C41.7606 15.5356 41.5496 15.0301 41.1759 14.6572C40.8022 14.2844 40.2962 14.0744 39.7683 14.0733Z" fill="#145CC6"/>
<path d="M94.6101 11.7434C94.3766 11.2242 93.9876 10.7905 93.4969 10.502C92.9543 10.1788 92.3319 10.0142 91.7005 10.0271C91.0676 10.0206 90.443 10.1708 89.8822 10.4642C89.3149 10.7697 88.8323 11.2112 88.4777 11.7492C88.2161 11.2209 87.8125 10.7759 87.3121 10.4642C86.8238 10.1706 86.2632 10.0192 85.6934 10.0271C85.1286 10.0215 84.5689 10.1357 84.0514 10.3622C83.529 10.5995 83.0624 10.944 82.6819 11.3733V10.4204C82.6819 10.3818 82.6665 10.3447 82.6392 10.3174C82.6119 10.2901 82.5748 10.2747 82.5362 10.2747H80.4309C80.3922 10.2747 80.3552 10.2901 80.3278 10.3174C80.3005 10.3447 80.2852 10.3818 80.2852 10.4204V19.6999C80.2852 19.7385 80.3005 19.7756 80.3278 19.8029C80.3552 19.8302 80.3922 19.8456 80.4309 19.8456H82.542C82.5806 19.8456 82.6177 19.8302 82.645 19.8029C82.6723 19.7756 82.6877 19.7385 82.6877 19.6999V15.5883C82.6877 14.6675 82.7683 13.9929 82.9296 13.5646C83.0685 13.1669 83.322 12.8191 83.658 12.5651C83.9734 12.3321 84.3557 12.2074 84.7478 12.2096C85.0759 12.2001 85.398 12.2989 85.6643 12.4908C85.9383 12.7108 86.1369 13.0108 86.2325 13.3489C86.3597 13.7375 86.4229 14.3577 86.4219 15.2095V19.6999C86.4219 19.7385 86.4372 19.7756 86.4646 19.8029C86.4919 19.8302 86.529 19.8456 86.5676 19.8456H88.6933C88.732 19.8456 88.769 19.8302 88.7963 19.8029C88.8237 19.7756 88.839 19.7385 88.839 19.6999V15.5271C88.839 14.6121 88.9191 13.9463 89.0765 13.534C89.2167 13.1445 89.4705 12.806 89.805 12.5622C90.1247 12.3282 90.5118 12.2044 90.9079 12.2096C91.4484 12.2096 91.852 12.4019 92.123 12.7851C92.394 13.1683 92.528 13.9041 92.528 14.9895V19.6999C92.528 19.7385 92.5434 19.7756 92.5707 19.8029C92.598 19.8302 92.6351 19.8456 92.6737 19.8456H94.7995C94.8381 19.8456 94.8752 19.8302 94.9025 19.8029C94.9298 19.7756 94.9452 19.7385 94.9452 19.6999V14.2333C94.9481 13.0843 94.8364 12.2543 94.6101 11.7434Z" fill="#145CC6"/>
<path d="M131.99 10.4076C131.997 10.3895 132 10.3701 132 10.3505C131.999 10.331 131.995 10.3118 131.987 10.294C131.979 10.2762 131.967 10.2602 131.953 10.2469C131.939 10.2336 131.922 10.2234 131.904 10.2168L131.768 10.1701C131.542 10.0805 131.302 10.0312 131.059 10.0244C130.625 10.0225 130.202 10.1515 129.843 10.3945C129.453 10.6665 129.145 11.0411 128.955 11.477V10.4164C128.955 10.3812 128.943 10.3471 128.92 10.3204C128.897 10.2936 128.866 10.2759 128.831 10.2707H127.045C127.006 10.2707 126.969 10.286 126.942 10.3133C126.914 10.3407 126.899 10.3777 126.899 10.4164V19.6958C126.899 19.7344 126.914 19.7715 126.942 19.7988C126.969 19.8261 127.006 19.8415 127.045 19.8415H129.134C129.173 19.8415 129.21 19.8261 129.237 19.7988C129.264 19.7715 129.28 19.7344 129.28 19.6958V15.9761L129.271 15.5099C129.271 14.1724 129.398 13.2749 129.653 12.8174C129.909 12.3585 130.222 12.137 130.591 12.1298C130.785 12.1442 130.974 12.1936 131.15 12.2755C131.186 12.2883 131.225 12.2866 131.26 12.2708C131.295 12.255 131.322 12.2264 131.335 12.1909L131.99 10.4076Z" fill="#145CC6"/>
<path d="M106.822 10.2734H104.713C104.674 10.2734 104.637 10.2887 104.61 10.316C104.582 10.3434 104.567 10.3804 104.567 10.4191V10.5648V11.3282C104.169 10.9148 103.695 10.5832 103.17 10.352C102.659 10.1334 102.109 10.0224 101.554 10.0257C100.953 10.0186 100.357 10.1415 99.8082 10.3859C99.259 10.6303 98.7691 10.9905 98.3721 11.4419C97.4979 12.3879 97.0608 13.5996 97.0608 15.077C97.0608 16.5019 97.512 17.6942 98.4143 18.6538C99.3167 19.6135 100.385 20.0928 101.62 20.0919C102.145 20.0978 102.666 19.9987 103.152 19.8005C103.677 19.5684 104.155 19.242 104.563 18.8374V19.7029C104.563 19.7415 104.578 19.7786 104.605 19.8059C104.633 19.8332 104.67 19.8485 104.708 19.8485H106.814C106.852 19.8485 106.889 19.8332 106.917 19.8059C106.944 19.7786 106.959 19.7415 106.959 19.7029V10.4205C106.96 10.3831 106.946 10.3469 106.92 10.3195C106.895 10.2921 106.86 10.2756 106.822 10.2734ZM103.927 17.1095C103.688 17.3663 103.397 17.5693 103.074 17.7052C102.75 17.8411 102.402 17.9067 102.051 17.8977C101.704 17.9037 101.359 17.8353 101.041 17.6971C100.723 17.5588 100.438 17.354 100.205 17.0963C99.7047 16.5631 99.4551 15.8832 99.456 15.0566C99.457 14.23 99.7028 13.5545 100.193 13.0299C100.427 12.7741 100.714 12.5714 101.033 12.4357C101.352 12.3 101.697 12.2343 102.044 12.2432C102.394 12.233 102.743 12.2966 103.068 12.4299C103.392 12.5632 103.685 12.7631 103.927 13.0168C104.425 13.5336 104.673 14.2081 104.672 15.0406C104.672 15.8924 104.424 16.582 103.927 17.1095Z" fill="#145CC6"/>
<defs>
<linearGradient id="paint0_linear" x1="-10.3301" y1="1.84692" x2="24.0281" y2="19.5549" gradientUnits="userSpaceOnUse">
<stop offset="0.01" stop-color="#55A4F2"/>
<stop offset="1" stop-color="#145CC6"/>
</linearGradient>
<linearGradient id="paint1_linear" x1="1778.68" y1="1165.62" x2="2815.8" y2="1596.84" gradientUnits="userSpaceOnUse">
<stop offset="0.01" stop-color="#55A4F2"/>
<stop offset="1" stop-color="#145CC6"/>
</linearGradient>
</defs>
</svg>
