<svg width="17" height="17" viewBox="0 0 17 17" fill="none" xmlns="http://www.w3.org/2000/svg">
<path d="M10.8015 11.4113L11.9915 10.2213C12.1518 10.063 12.3546 9.95463 12.5753 9.90936C12.7959 9.86409 13.025 9.88387 13.2347 9.96627L14.685 10.5453C14.8968 10.6313 15.0785 10.7781 15.2071 10.9672C15.3356 11.1563 15.4054 11.3792 15.4075 11.6078V14.2641C15.4062 14.4196 15.3735 14.5733 15.3113 14.7159C15.2492 14.8584 15.1588 14.987 15.0456 15.0937C14.9324 15.2004 14.7988 15.2831 14.6529 15.3368C14.5069 15.3905 14.3516 15.4142 14.1962 15.4063C4.0334 14.7741 1.98278 6.16783 1.59497 2.87408C1.57696 2.71234 1.59341 2.54861 1.64323 2.39368C1.69305 2.23875 1.7751 2.09612 1.884 1.97518C1.9929 1.85423 2.12617 1.75772 2.27505 1.69198C2.42393 1.62624 2.58504 1.59277 2.74778 1.59377H5.31372C5.54269 1.59445 5.76622 1.66361 5.95557 1.79237C6.14492 1.92112 6.29141 2.10358 6.37622 2.31627L6.95528 3.76658C7.04041 3.9754 7.06213 4.20468 7.01773 4.42577C6.97332 4.64686 6.86475 4.84996 6.70559 5.00971L5.51559 6.19971C5.51559 6.19971 6.2009 10.8375 10.8015 11.4113Z" fill="#145CC6"/>
</svg>
