<svg width="50" height="50" viewBox="0 0 50 50" fill="none" xmlns="http://www.w3.org/2000/svg">
<path d="M37.5 4.68761C37.5006 4.37817 37.4093 4.07553 37.2376 3.81807C37.0659 3.5606 36.8217 3.3599 36.5359 3.24141C36.25 3.12292 35.9354 3.09197 35.6319 3.15249C35.3285 3.21301 35.0498 3.36228 34.8313 3.58136L28.5813 9.83136C28.4363 9.97673 28.3213 10.1493 28.2431 10.3391C28.1648 10.5289 28.1247 10.7323 28.125 10.9376V19.6657L25.8094 21.9782C25.3462 21.8553 24.8609 21.8404 24.391 21.9345C23.9211 22.0287 23.479 22.2295 23.0989 22.5214C22.7188 22.8134 22.4108 23.1887 22.1986 23.6184C21.9865 24.0481 21.8757 24.5208 21.875 25.0001C21.8757 25.4447 21.9712 25.884 22.1552 26.2888C22.3392 26.6935 22.6074 27.0543 22.942 27.3471C23.2765 27.6399 23.6697 27.858 24.0953 27.9867C24.5209 28.1154 24.969 28.1519 25.4097 28.0936C25.8505 28.0353 26.2737 27.8836 26.6512 27.6487C27.0287 27.4138 27.3517 27.101 27.5986 26.7313C27.8456 26.3616 28.0108 25.9435 28.0833 25.5048C28.1557 25.0662 28.1337 24.6171 28.0188 24.1876L30.3344 21.8751H39.0625C39.2679 21.8755 39.4712 21.8354 39.6611 21.7571C39.8509 21.6788 40.0234 21.5639 40.1688 21.4189L46.4188 15.1689C46.6379 14.9503 46.7871 14.6717 46.8477 14.3682C46.9082 14.0647 46.8772 13.7501 46.7587 13.4643C46.6402 13.1784 46.4395 12.9342 46.1821 12.7625C45.9246 12.5909 45.622 12.4996 45.3125 12.5001H37.5V4.68761ZM43.575 22.4314C44.1128 26.3225 43.4148 30.2843 41.5798 33.7574C39.7447 37.2305 36.8651 40.0396 33.3476 41.7881C29.8301 43.5366 25.8523 44.1362 21.9756 43.5023C18.099 42.8684 14.5193 41.0329 11.742 38.255C8.96466 35.4772 7.12991 31.8972 6.49673 28.0204C5.86356 24.1436 6.46394 20.1659 8.21313 16.6487C9.96232 13.1316 12.772 10.2526 16.2455 8.41818C19.719 6.58378 23.6809 5.88662 27.5719 6.42511L26.375 7.62198C25.9393 8.05722 25.5935 8.57406 25.3576 9.14297C25.1217 9.71188 25.0002 10.3217 25 10.9376C22.2187 10.9376 19.4999 11.7624 17.1873 13.3076C14.8748 14.8528 13.0723 17.049 12.008 19.6186C10.9436 22.1882 10.6651 25.0157 11.2077 27.7436C11.7503 30.4714 13.0897 32.9771 15.0563 34.9438C17.023 36.9105 19.5287 38.2498 22.2566 38.7924C24.9844 39.335 27.8119 39.0565 30.3815 37.9922C32.9511 36.9278 35.1474 35.1254 36.6926 32.8128C38.2378 30.5002 39.0625 27.7814 39.0625 25.0001C40.3053 24.999 41.4968 24.5044 42.375 23.6251L43.575 22.4314ZM25 14.0626C22.8368 14.0626 20.7221 14.7041 18.9235 15.9059C17.1248 17.1077 15.7229 18.8159 14.8951 20.8145C14.0673 22.8131 13.8507 25.0122 14.2727 27.1339C14.6947 29.2556 15.7364 31.2044 17.2661 32.7341C18.7957 34.2637 20.7446 35.3054 22.8662 35.7274C24.9879 36.1495 27.1871 35.9329 29.1856 35.105C31.1842 34.2772 32.8924 32.8753 34.0942 31.0767C35.2961 29.278 35.9375 27.1633 35.9375 25.0001H31.6282L31.2375 25.3907C31.1624 26.5913 30.7424 27.7446 30.028 28.7124C29.3136 29.6801 28.3351 30.4212 27.2099 30.8466C26.0848 31.2719 24.8608 31.3636 23.6848 31.1105C22.5088 30.8574 21.4309 30.2704 20.5803 29.4198C19.7297 28.5693 19.1427 27.4913 18.8896 26.3153C18.6365 25.1394 18.7282 23.9154 19.1536 22.7902C19.579 21.665 20.32 20.6865 21.2878 19.9721C22.2555 19.2577 23.4089 18.8377 24.6094 18.7626L25 18.372V14.0626Z" fill="#075FC5"/>
</svg>
