<svg width="40" height="40" viewBox="0 0 40 40" fill="none" xmlns="http://www.w3.org/2000/svg">
<g clip-path="url(#clip0_890:42629)">
<path d="M32.24 1.02051H7.76C4.84 1.02051 2.44 3.42867 2.44 6.44908V24.5715C2.44 27.5511 4.8 30.0001 7.76 30.0001H10.88V37.5511C10.88 39.5919 13.32 40.5715 14.68 39.1021L23.04 30.0001H32.24C35.16 30.0001 37.56 27.5919 37.56 24.5715V6.44908C37.56 3.42867 35.16 1.02051 32.24 1.02051ZM28.28 12.2858L19.56 21.8368C19.12 22.2858 18.56 22.5715 17.92 22.5715C17.28 22.5715 16.72 22.3266 16.28 21.8368L11.72 16.7756C10.88 15.8368 10.92 14.4083 11.84 13.5511C12.76 12.694 14.16 12.7348 15 13.6736L17.96 16.9389L25.04 9.18377C25.88 8.28581 27.28 8.20418 28.2 9.06132C29.08 9.91847 29.12 11.347 28.28 12.2858Z" fill="#075FC5"/>
</g>
<defs>
<clipPath id="clip0_890:42629">
<rect width="40" height="40" fill="white"/>
</clipPath>
</defs>
</svg>
