<svg width="43" height="44" viewBox="0 0 43 44" fill="none" xmlns="http://www.w3.org/2000/svg">
<path d="M37.4391 16.0453C38.4011 15.4953 38.8676 14.2487 38.5032 13.2C38.474 13.1267 37.8545 11.3593 37.0011 9.87067C36.1484 8.382 34.9393 6.95933 34.8883 6.89333C34.1959 6.08667 32.8184 5.852 31.9074 6.402C31.8855 6.40933 30.1 7.458 28.3581 7.458C27.7532 7.458 27.2204 7.326 26.7839 7.07667C24.8233 5.93267 24.8161 2.36867 24.8161 2.28067C24.8233 1.15133 23.9633 0.146667 22.841 0.00733333C22.8118 -6.8297e-09 22.7827 0 22.7462 0L15.8006 0.00733333C15.7715 0.00733333 15.7423 0.00733332 15.7132 0.0146667C14.5908 0.146667 13.7242 1.144 13.7381 2.288C13.7461 3.29267 13.4181 6.116 11.763 7.07667C11.3257 7.326 10.8017 7.458 10.1968 7.458C8.45419 7.458 6.66932 6.40933 6.65475 6.402C5.71458 5.83733 4.35971 6.116 3.71034 6.98133C3.68848 7.01067 3.6739 7.03267 3.65932 7.05467L0.182884 13.112C0.168307 13.134 0.153731 13.1633 0.139155 13.1927C-0.291574 14.2413 0.131138 15.4953 1.11577 16.0527C1.99034 16.544 4.24238 18.2453 4.24966 20.174C4.24966 22.4767 1.1369 24.2733 1.10775 24.288C0.146443 24.838 -0.320727 26.092 0.0436802 27.1407C0.0728327 27.2147 0.693053 28.974 1.54576 30.4627C2.39848 31.9587 3.60831 33.3806 3.6586 33.44C4.35097 34.254 5.72916 34.4813 6.64746 33.9313C6.66204 33.924 8.43305 32.8761 10.1895 32.8761C10.7937 32.8761 11.3264 33.0081 11.763 33.2647C13.7308 34.4087 13.7381 37.9647 13.7381 38.0527C13.7308 39.1901 14.5988 40.1867 15.7132 40.3267C15.7423 40.3333 15.7715 40.3333 15.8079 40.3333L22.7528 40.326H22.8402C23.4962 40.2453 24.0792 39.8493 24.4363 39.2993C23.7228 37.84 23.322 36.1973 23.322 34.4667C23.322 28.3947 28.2196 23.4667 34.2542 23.4667C35.0632 23.4667 35.8503 23.5547 36.6083 23.7233C35.6819 23.012 34.3052 21.7067 34.2972 20.1667C34.2979 17.8567 37.41 16.06 37.4391 16.0453ZM19.2771 28.2333C14.8532 28.2333 11.2601 24.618 11.2601 20.1667C11.2601 15.7227 14.8532 12.1 19.2771 12.1C23.6937 12.1 27.294 15.7227 27.294 20.1667C27.294 24.618 23.6937 28.2333 19.2771 28.2333Z" fill="#075FC5"/>
<path d="M38.525 26.7887C37.2569 26.0701 35.7993 25.6667 34.2542 25.6667C33.3942 25.6667 32.5633 25.7914 31.7762 26.0261C28.154 27.1041 25.5084 30.4774 25.5084 34.4667C25.5084 34.5547 25.5084 34.6427 25.5157 34.7307C25.5157 34.8921 25.523 35.0461 25.5376 35.2001C25.8072 38.4854 27.8844 41.2721 30.7632 42.5334C31.8345 43.0027 33.0152 43.2667 34.2542 43.2667C39.0789 43.2667 42.9999 39.3214 42.9999 34.4667C42.9999 34.1661 42.9854 33.8654 42.9562 33.5721C42.6647 30.6534 40.952 28.1527 38.525 26.7887ZM35.7118 41.0667H32.7966V38.8667H35.7118V41.0667ZM35.7118 36.6667H32.7966V27.8667H35.7118V36.6667Z" fill="#075FC5"/>
</svg>
