<svg width="17" height="17" viewBox="0 0 17 17" fill="none" xmlns="http://www.w3.org/2000/svg">
<path d="M8.49227 1.4165C4.58227 1.4165 1.41602 4.58984 1.41602 8.49984C1.41602 12.4098 4.58227 15.5832 8.49227 15.5832C12.4093 15.5832 15.5827 12.4098 15.5827 8.49984C15.5827 4.58984 12.4093 1.4165 8.49227 1.4165ZM11.3327 11.3332C11.2672 11.3988 11.1893 11.4509 11.1036 11.4865C11.0179 11.522 10.9261 11.5403 10.8333 11.5403C10.7405 11.5403 10.6487 11.522 10.563 11.4865C10.4773 11.4509 10.3995 11.3988 10.3339 11.3332L8.00352 9.00275C7.93659 8.93715 7.88334 8.85892 7.84686 8.77259C7.81039 8.68626 7.79141 8.59356 7.79102 8.49984V5.6665C7.79102 5.27692 8.10977 4.95817 8.49935 4.95817C8.88893 4.95817 9.20768 5.27692 9.20768 5.6665V8.20942L11.3327 10.3344C11.6089 10.6107 11.6089 11.0569 11.3327 11.3332Z" fill="#145CC6"/>
</svg>
