<svg width="1086" height="598" viewBox="0 0 1086 598" fill="none" xmlns="http://www.w3.org/2000/svg">
<path opacity="0.4" d="M582.411 325.118L582.65 324.679L582.411 325.118ZM1.41589 596.35C1.25136 596.434 1.14417 596.477 1.08355 596.496C1.0522 596.505 1.05455 596.501 1.07953 596.5C1.09435 596.5 1.20858 596.495 1.32693 596.585C1.47274 596.696 1.50206 596.852 1.49988 596.937C1.49812 597.005 1.47837 597.041 1.48498 597.026C1.49576 597.002 1.53574 596.933 1.63302 596.806C2.01744 596.306 2.93858 595.367 4.40051 594.005L3.71878 593.273C2.2656 594.627 1.28312 595.621 0.840255 596.197C0.730711 596.339 0.631141 596.485 0.570661 596.621C0.541641 596.687 0.503327 596.79 0.500206 596.911C0.496661 597.049 0.541808 597.244 0.720778 597.38C0.87229 597.496 1.037 597.503 1.11975 597.499C1.21266 597.496 1.3004 597.475 1.37201 597.453C1.51732 597.409 1.68636 597.334 1.8694 597.241L1.41589 596.35ZM11.8858 587.39C14.1248 585.474 16.7004 583.306 19.5928 580.908L18.9546 580.138C16.0589 582.539 13.4792 584.71 11.2355 586.63L11.8858 587.39ZM27.4076 574.499C29.9161 572.462 32.5878 570.31 35.4147 568.051L34.7905 567.27C31.9617 569.53 29.2879 571.684 26.7772 573.723L27.4076 574.499ZM43.1484 561.915C45.7044 559.9 48.3617 557.818 51.1158 555.674L50.5014 554.885C47.7458 557.03 45.0869 559.114 42.5293 561.13L43.1484 561.915ZM59.0877 549.501C61.6735 547.51 64.3313 545.474 67.0582 543.397L66.4521 542.601C63.7239 544.68 61.0647 546.717 58.4776 548.709L59.0877 549.501ZM75.1119 537.292C77.7375 535.313 80.4188 533.3 83.1535 531.258L82.5552 530.457C79.8192 532.5 77.1366 534.513 74.5098 536.494L75.1119 537.292ZM91.2273 525.259C93.9014 523.281 96.6209 521.28 99.3838 519.256L98.7929 518.45C96.0288 520.474 93.308 522.476 90.6327 524.455L91.2273 525.259ZM107.458 513.371C110.183 511.394 112.946 509.399 115.746 507.387L115.163 506.575C112.362 508.587 109.597 510.584 106.87 512.562L107.458 513.371ZM123.82 501.614C126.543 499.676 129.297 497.725 132.081 495.763L131.504 494.945C128.719 496.908 125.964 498.86 123.24 500.799L123.82 501.614ZM140.319 489.984C143.04 488.085 145.786 486.177 148.557 484.262L147.989 483.439C145.216 485.355 142.468 487.264 139.747 489.164L140.319 489.984ZM156.943 478.495C159.67 476.629 162.419 474.758 165.188 472.883L164.627 472.055C161.857 473.931 159.107 475.803 156.378 477.67L156.943 478.495ZM173.549 467.25C176.334 465.384 179.138 463.515 181.959 461.644L181.407 460.811C178.584 462.682 175.778 464.552 172.992 466.42L173.549 467.25ZM190.323 456.13C193.128 454.291 195.948 452.452 198.783 450.614L198.24 449.775C195.403 451.614 192.581 453.454 189.775 455.294L190.323 456.13ZM207.246 445.16C210.058 443.359 212.883 441.56 215.72 439.764L215.185 438.919C212.346 440.716 209.52 442.516 206.706 444.318L207.246 445.16ZM224.268 434.387C227.104 432.614 229.952 430.845 232.809 429.083L232.284 428.232C229.425 429.995 226.576 431.765 223.738 433.539L224.268 434.387ZM241.387 423.825C244.255 422.079 247.133 420.34 250.018 418.608L249.504 417.75C246.616 419.483 243.737 421.224 240.867 422.971L241.387 423.825ZM258.659 413.459C261.546 411.752 264.44 410.053 267.339 408.364L266.836 407.5C263.935 409.19 261.039 410.89 258.15 412.598L258.659 413.459ZM276.056 403.328C278.972 401.657 281.892 399.997 284.816 398.349L284.325 397.478C281.399 399.127 278.476 400.788 275.559 402.46L276.056 403.328ZM293.6 393.443C296.537 391.816 299.477 390.204 302.42 388.605L301.942 387.727C298.998 389.326 296.055 390.94 293.115 392.568L293.6 393.443ZM311.304 383.826C314.267 382.248 317.23 380.686 320.193 379.141L319.731 378.255C316.765 379.801 313.799 381.364 310.834 382.943L311.304 383.826ZM329.141 374.527C332.146 372.995 335.15 371.481 338.152 369.987L337.707 369.092C334.702 370.588 331.695 372.103 328.687 373.636L329.141 374.527ZM347.149 365.566C350.188 364.092 353.225 362.639 356.256 361.209L355.829 360.304C352.795 361.736 349.755 363.19 346.712 364.667L347.149 365.566ZM365.394 356.961C368.435 355.569 371.469 354.202 374.497 352.86L374.092 351.945C371.06 353.289 368.022 354.658 364.978 356.052L365.394 356.961ZM383.804 348.807C386.9 347.483 389.987 346.187 393.064 344.922L392.684 343.997C389.602 345.264 386.511 346.561 383.411 347.887L383.804 348.807ZM402.373 341.173C405.535 339.928 408.685 338.716 411.822 337.539L411.47 336.603C408.328 337.782 405.173 338.996 402.007 340.243L402.373 341.173ZM421.189 334.114C424.4 332.972 427.595 331.869 430.773 330.806L430.456 329.858C427.272 330.923 424.071 332.028 420.854 333.172L421.189 334.114ZM440.332 327.718C443.552 326.714 446.753 325.755 449.932 324.843L449.656 323.882C446.469 324.796 443.262 325.758 440.034 326.763L440.332 327.718ZM459.698 322.169C462.931 321.327 466.14 320.537 469.321 319.801L469.096 318.827C465.905 319.565 462.688 320.357 459.446 321.201L459.698 322.169ZM479.297 317.651C482.592 316.995 485.854 316.4 489.083 315.87L488.921 314.883C485.681 315.415 482.407 316.012 479.102 316.67L479.297 317.651ZM499.126 314.415C502.473 313.998 505.78 313.655 509.043 313.39L508.962 312.393C505.684 312.66 502.363 313.004 499.002 313.423L499.126 314.415ZM519.14 312.815C522.514 312.708 525.836 312.692 529.103 312.771L529.127 311.771C525.841 311.692 522.5 311.708 519.108 311.815L519.14 312.815ZM539.193 313.334C542.542 313.632 545.826 314.04 549.039 314.564L549.2 313.577C545.961 313.049 542.654 312.638 539.282 312.338L539.193 313.334ZM558.945 316.601C562.203 317.419 565.379 318.372 568.467 319.463L568.8 318.521C565.682 317.418 562.476 316.456 559.188 315.631L558.945 316.601ZM577.749 323.296C579.247 324.011 580.722 324.764 582.171 325.557L582.65 324.679C581.185 323.878 579.694 323.116 578.179 322.394L577.749 323.296ZM582.171 325.557C583.667 326.375 585.171 327.164 586.68 327.924L587.13 327.031C585.631 326.276 584.137 325.492 582.65 324.679L582.171 325.557ZM595.808 332.139C598.921 333.45 602.057 334.644 605.216 335.725L605.539 334.779C602.403 333.705 599.288 332.519 596.196 331.218L595.808 332.139ZM614.827 338.651C618.076 339.52 621.347 340.275 624.636 340.92L624.829 339.939C621.561 339.298 618.312 338.548 615.085 337.685L614.827 338.651ZM634.569 342.531C637.887 342.958 641.223 343.279 644.575 343.497L644.64 342.5C641.309 342.283 637.994 341.963 634.697 341.539L634.569 342.531ZM654.634 343.847C657.972 343.864 661.323 343.783 664.687 343.609L664.635 342.611C661.29 342.784 657.957 342.864 654.639 342.847L654.634 343.847ZM674.709 342.821C678.028 342.472 681.357 342.036 684.695 341.516L684.541 340.528C681.219 341.045 677.906 341.479 674.604 341.826L674.709 342.821ZM694.572 339.74C697.845 339.075 701.125 338.332 704.411 337.515L704.17 336.545C700.897 337.358 697.631 338.098 694.372 338.76L694.572 339.74ZM714.082 334.904C717.292 333.969 720.505 332.967 723.722 331.899L723.407 330.95C720.202 332.014 717 333.013 713.803 333.943L714.082 334.904ZM733.164 328.584C736.3 327.423 739.437 326.203 742.576 324.925L742.198 323.999C739.07 325.273 735.942 326.489 732.817 327.646L733.164 328.584ZM751.786 321.015C754.843 319.664 757.9 318.262 760.956 316.809L760.526 315.906C757.479 317.355 754.43 318.754 751.381 320.101L751.786 321.015ZM769.942 312.392C772.921 310.881 775.897 309.324 778.87 307.724L778.396 306.843C775.43 308.44 772.461 309.993 769.49 311.5L769.942 312.392ZM787.645 302.872C790.547 301.224 793.445 299.537 796.338 297.812L795.826 296.953C792.939 298.674 790.047 300.358 787.151 302.002L787.645 302.872ZM804.912 292.581C807.741 290.816 810.565 289.017 813.381 287.185L812.836 286.347C810.025 288.175 807.206 289.971 804.383 291.733L804.912 292.581ZM821.764 281.624C824.525 279.757 827.278 277.86 830.024 275.935L829.45 275.116C826.709 277.038 823.96 278.932 821.204 280.796L821.764 281.624ZM838.221 270.086C840.918 268.129 843.607 266.145 846.286 264.137L845.687 263.337C843.011 265.342 840.326 267.322 837.633 269.277L838.221 270.086ZM854.295 258.041C856.937 256 859.568 253.937 862.188 251.853L861.565 251.071C858.949 253.152 856.321 255.212 853.684 257.25L854.295 258.041ZM870.01 245.544C872.599 243.427 875.178 241.29 877.743 239.136L877.1 238.37C874.538 240.521 871.963 242.655 869.377 244.77L870.01 245.544ZM885.393 232.63C887.931 230.445 890.456 228.244 892.966 226.029L892.305 225.279C889.797 227.492 887.275 229.69 884.741 231.873L885.393 232.63ZM900.459 219.339C902.943 217.095 905.413 214.838 907.867 212.57L907.189 211.835C904.737 214.101 902.27 216.355 899.788 218.597L900.459 219.339ZM915.215 205.704C917.648 203.405 920.064 201.097 922.464 198.781L921.769 198.061C919.372 200.375 916.958 202.681 914.528 204.977L915.215 205.704ZM929.669 191.752C932.055 189.399 934.424 187.04 936.773 184.676L936.063 183.971C933.717 186.332 931.351 188.689 928.967 191.039L929.669 191.752ZM943.826 177.505C946.169 175.099 948.492 172.69 950.793 170.28L950.07 169.589C947.771 171.997 945.451 174.404 943.11 176.808L943.826 177.505ZM957.69 162.982C959.992 160.523 962.271 158.064 964.525 155.608L963.788 154.932C961.536 157.386 959.26 159.842 956.96 162.299L957.69 162.982ZM971.263 148.194C973.524 145.681 975.759 143.173 977.967 140.671L977.217 140.01C975.011 142.509 972.779 145.015 970.52 147.525L971.263 148.194ZM984.544 133.145C986.764 130.579 988.954 128.022 991.113 125.476L990.351 124.83C988.194 127.373 986.006 129.927 983.788 132.49L984.544 133.145ZM997.53 117.834C999.706 115.215 1001.85 112.611 1003.95 110.024L1003.18 109.392C1001.07 111.977 998.935 114.579 996.761 117.194L997.53 117.834ZM1010.21 102.252C1012.34 99.5824 1014.42 96.9342 1016.47 94.31L1015.68 93.6955C1013.64 96.3168 1011.55 98.9621 1009.43 101.629L1010.21 102.252ZM1022.57 86.3838C1024.63 83.6688 1026.65 80.9837 1028.62 78.3317L1027.82 77.736C1025.85 80.3846 1023.84 83.0665 1021.77 85.7783L1022.57 86.3838ZM1034.56 70.213C1036.54 67.4635 1038.47 64.7555 1040.34 62.0931L1039.52 61.5193C1037.65 64.1778 1035.73 66.8819 1033.75 69.6277L1034.56 70.213ZM1046.1 53.7333C1048.02 50.8935 1049.87 48.115 1051.63 45.4031L1050.79 44.8573C1049.03 47.564 1047.19 50.3376 1045.27 53.1726L1046.1 53.7333ZM1056.99 36.9866C1058.86 33.9875 1060.61 31.0874 1062.24 28.2951L1061.38 27.7899C1059.75 30.574 1058 33.4665 1056.14 36.4586L1056.99 36.9866ZM1067.2 19.5031C1067.99 18.0387 1068.74 16.613 1069.45 15.2277L1068.55 14.7723C1067.85 16.1507 1067.1 17.5699 1066.32 19.0283L1067.2 19.5031Z" fill="white"/>
<circle cx="46.5" cy="557.5" r="5.5" fill="#596AE6"/>
<circle cx="46.5" cy="557.5" r="6" stroke="white" stroke-opacity="0.3"/>
<circle cx="756.5" cy="318.5" r="5.5" fill="#596AE6"/>
<circle cx="756.5" cy="318.5" r="6" stroke="white" stroke-opacity="0.3"/>
<circle cx="1048.5" cy="49.5" r="5.5" fill="#596AE6"/>
<circle cx="1048.5" cy="49.5" r="6" stroke="white" stroke-opacity="0.3"/>
<circle cx="826.5" cy="277.5" r="6.5" fill="#596AE6"/>
<circle cx="826.5" cy="277.5" r="7" stroke="white" stroke-opacity="0.3"/>
<circle cx="95" cy="521" r="7" fill="#596AE6"/>
<circle cx="95" cy="521" r="7.5" stroke="white" stroke-opacity="0.3"/>
<path d="M1075.61 6.27968L1074.89 26.7876L1057.49 15.9109L1075.61 6.27968Z" fill="#788EEF"/>
</svg>
