<svg width="40" height="40" viewBox="0 0 40 40" fill="none" xmlns="http://www.w3.org/2000/svg">
<path d="M20 40C31.0457 40 40 31.0457 40 20C40 8.9543 31.0457 0 20 0C8.9543 0 0 8.9543 0 20C0 31.0457 8.9543 40 20 40Z" fill="#3BC458"/>
<path d="M30.0006 24.1816C27.8188 24.1816 25.8188 23.6361 23.8188 22.7271C23.4552 22.5452 23.0915 22.5452 22.9097 22.7271C22.5461 22.9089 22.3643 23.0907 22.1825 23.4543L21.2734 25.2725C18.5461 23.6361 16.3643 21.4543 14.9097 18.7271L16.7279 17.818C17.0915 17.6361 17.2734 17.4543 17.4552 17.0907C17.637 16.727 17.4552 16.3634 17.4552 16.1816C16.3643 14.1816 15.8188 12.1816 15.8188 9.99978C15.8188 9.2725 15.2734 8.72705 14.5461 8.72705H10.0006C9.27336 8.72705 8.72791 9.2725 8.72791 9.99978C8.72791 21.6361 18.1825 31.2725 30.0006 31.2725C30.7279 31.2725 31.2734 30.7271 31.2734 29.9998V25.4543C31.2734 24.7271 30.7279 24.1816 30.0006 24.1816Z" fill="#FAFAFA"/>
</svg>
