<svg width="28" height="28" viewBox="0 0 28 28" fill="none" xmlns="http://www.w3.org/2000/svg">
<path d="M28 14C28 6.2637 21.7363 0 14 0C6.2637 0 0 6.2637 0 14C0 20.9896 5.12296 26.7763 11.8222 27.8341V18.0444H8.25481V14H11.8222V10.9096C11.8222 7.40444 13.8963 5.47556 17.0904 5.47556C18.6252 5.47556 20.2222 5.74519 20.2222 5.74519V9.18815H18.4593C16.717 9.18815 16.1778 10.2667 16.1778 11.3659V14H20.0563L19.4341 18.0444H16.1778V27.8341C22.877 26.7763 28 20.9896 28 14Z" fill="white"/>
<path d="M19.4549 18.0445L20.0771 14H16.1778V11.366C16.1778 10.2667 16.7171 9.18818 18.4593 9.18818H20.2223V5.74522C20.2223 5.74522 18.6253 5.47559 17.0904 5.47559C13.8964 5.47559 11.8223 7.40447 11.8223 10.9097V14H8.25488V18.0445H11.8223V27.8341C12.5275 27.9378 13.2741 28 14.0001 28C14.7467 28 15.4727 27.9378 16.1778 27.8341V18.0445H19.4549Z" fill="#2927D4"/>
</svg>
