<svg width="63" height="63" viewBox="0 0 63 63" fill="none" xmlns="http://www.w3.org/2000/svg">
<circle cx="31.5" cy="31.5" r="31.5" fill="#075FC5"/>
<path d="M20.2977 36.2398L17.8709 34.8753C17.8164 34.8446 17.7546 34.8285 17.6918 34.8286C17.6289 34.8288 17.5672 34.8451 17.5129 34.876C17.4586 34.907 17.4136 34.9513 17.3825 35.0047C17.3515 35.0581 17.3354 35.1185 17.336 35.1798L17.336 39.1465C17.3354 39.2081 17.3516 39.2688 17.3829 39.3223C17.4143 39.3758 17.4596 39.4202 17.5143 39.451L19.941 40.8313C19.9954 40.8619 20.057 40.878 20.1197 40.8779C20.1824 40.8778 20.244 40.8616 20.2983 40.8309C20.3525 40.8002 20.3975 40.7561 20.4287 40.703C20.4599 40.6498 20.4762 40.5896 20.476 40.5284L20.476 36.5427C20.4762 36.4813 20.4599 36.421 20.4285 36.3678C20.3972 36.3146 20.3521 36.2705 20.2977 36.2398Z" fill="white"/>
<path d="M43.2299 19.8947L32.7828 25.5931C32.7307 25.6206 32.6725 25.6349 32.6134 25.6349C32.5542 25.6349 32.496 25.6206 32.444 25.5931L25.9767 22.3958C25.9475 22.3812 25.923 22.359 25.9059 22.3317C25.8888 22.3044 25.8797 22.273 25.8797 22.2409C25.8797 22.2089 25.8888 22.1775 25.9059 22.1501C25.923 22.1228 25.9475 22.1006 25.9767 22.086L36.3489 16.5947C36.4064 16.5652 36.4546 16.5209 36.4882 16.4666C36.5218 16.4123 36.5395 16.3501 36.5395 16.2867C36.5395 16.2232 36.5218 16.161 36.4882 16.1067C36.4546 16.0524 36.4064 16.0081 36.3489 15.9786L32.7899 14.0466C32.7357 14.0161 32.6742 14 32.6116 14C32.549 14 32.4875 14.0161 32.4333 14.0466L17.894 21.9816C17.8369 22.0113 17.7892 22.0555 17.7559 22.1096C17.7227 22.1638 17.7051 22.2257 17.7051 22.2888C17.7051 22.3519 17.7227 22.4138 17.7559 22.4679C17.7892 22.522 17.8369 22.5663 17.894 22.596L32.4404 30.5379C32.4946 30.5684 32.5561 30.5845 32.6187 30.5845C32.6813 30.5845 32.7428 30.5684 32.797 30.5379L43.2727 24.8256C43.3001 24.8101 43.3312 24.802 43.3629 24.8022C43.3946 24.8024 43.4256 24.8108 43.4529 24.8266C43.4801 24.8424 43.5025 24.8649 43.5179 24.892C43.5332 24.919 43.5409 24.9496 43.5401 24.9805L43.5401 36.788C43.5407 36.8497 43.5245 36.9103 43.4932 36.9639C43.4618 37.0174 43.4165 37.0618 43.3618 37.0926L32.8006 43.0695C32.7464 43.1001 32.6849 43.1161 32.6223 43.1161C32.5597 43.1161 32.4982 43.1001 32.444 43.0695L23.5285 38.0638C23.4741 38.0331 23.4123 38.017 23.3494 38.0172C23.2865 38.0173 23.2248 38.0337 23.1705 38.0646C23.1162 38.0955 23.0712 38.1399 23.0402 38.1933C23.0091 38.2466 22.993 38.307 22.9936 38.3684L22.9936 42.3716C22.993 42.4332 23.0093 42.4939 23.0406 42.5474C23.0719 42.6009 23.1172 42.6453 23.1719 42.6762L32.444 47.9534C32.4982 47.9839 32.5597 48 32.6223 48C32.6849 48 32.7464 47.9839 32.8006 47.9534L42.5594 42.4429L47.8213 39.5537C47.8763 39.5227 47.9218 39.478 47.9531 39.4242C47.9845 39.3703 48.0005 39.3093 47.9996 39.2474L47.9996 22.4759C48.0005 22.414 47.9845 22.3529 47.9531 22.2991C47.9218 22.2452 47.8763 22.2005 47.8213 22.1696L43.5794 19.8947C43.526 19.8654 43.4658 19.8501 43.4046 19.8501C43.3434 19.8501 43.2832 19.8654 43.2299 19.8947Z" fill="white"/>
<path d="M19.7965 32.1757L22.6494 33.7648C22.7039 33.7955 22.7657 33.8116 22.8286 33.8115C22.8914 33.8113 22.9531 33.795 23.0074 33.7641C23.0618 33.7331 23.1067 33.6887 23.1378 33.6354C23.1689 33.582 23.1849 33.5216 23.1844 33.4602L23.1844 29.4136C23.1852 29.3516 23.1692 29.2906 23.1378 29.2368C23.1065 29.1829 23.061 29.1382 23.0061 29.1072L20.1531 27.5408C20.0987 27.5101 20.0369 27.494 19.974 27.4941C19.9111 27.4943 19.8494 27.5106 19.7951 27.5416C19.7408 27.5725 19.6958 27.6169 19.6647 27.6702C19.6337 27.7236 19.6176 27.784 19.6182 27.8454L19.6182 31.8781C19.6189 31.9386 19.6357 31.9978 19.6669 32.05C19.6982 32.1022 19.7428 32.1455 19.7965 32.1757Z" fill="white"/>
<path d="M17.149 25.8719L14.5349 24.4256C14.4805 24.3949 14.4187 24.3788 14.3558 24.3789C14.293 24.379 14.2312 24.3954 14.1769 24.4263C14.1226 24.4572 14.0777 24.5016 14.0466 24.555C14.0155 24.6083 13.9994 24.6688 14 24.7301L14 28.7333C13.9994 28.7949 14.0157 28.8556 14.047 28.9091C14.0783 28.9626 14.1236 29.0071 14.1783 29.0379L16.7923 30.4982C16.8468 30.5288 16.9086 30.5449 16.9715 30.5448C17.0343 30.5447 17.096 30.5283 17.1504 30.4974C17.2047 30.4665 17.2496 30.4221 17.2807 30.3687C17.3118 30.3154 17.3278 30.2549 17.3273 30.1936L17.3273 26.1765C17.3278 26.1149 17.3116 26.0542 17.2803 26.0007C17.249 25.9472 17.2036 25.9027 17.149 25.8719Z" fill="white"/>
<path d="M25.6993 31.2047L25.6993 35.267C25.6987 35.3286 25.7149 35.3893 25.7463 35.4428C25.7776 35.4963 25.8229 35.5408 25.8776 35.5716L32.0792 39.0352C32.1336 39.0659 32.1954 39.082 32.2583 39.0818C32.3212 39.0817 32.3829 39.0653 32.4372 39.0344C32.4915 39.0035 32.5365 38.9591 32.5675 38.9057C32.5986 38.8524 32.6147 38.792 32.6141 38.7306L32.6141 34.6352C32.6147 34.5736 32.5985 34.5129 32.5671 34.4594C32.5358 34.4059 32.4905 34.3614 32.4358 34.3306L26.2378 30.8983C26.1831 30.8667 26.1208 30.8499 26.0572 30.8496C25.9937 30.8494 25.9312 30.8657 25.8763 30.897C25.8214 30.9282 25.776 30.9732 25.7449 31.0273C25.7138 31.0814 25.698 31.1426 25.6993 31.2047Z" fill="white"/>
</svg>
