<svg width="28" height="28" viewBox="0 0 28 28" fill="none" xmlns="http://www.w3.org/2000/svg">
<circle cx="14" cy="14" r="14" fill="white"/>
<path d="M13.9979 11.3739C12.5519 11.3739 11.3718 12.554 11.3718 14C11.3718 15.446 12.5519 16.6261 13.9979 16.6261C15.4439 16.6261 16.624 15.446 16.624 14C16.624 12.554 15.4439 11.3739 13.9979 11.3739ZM21.8741 14C21.8741 12.9125 21.884 11.8349 21.8229 10.7494C21.7618 9.48851 21.4742 8.36951 20.5522 7.44751C19.6283 6.52354 18.5113 6.23788 17.2504 6.17681C16.163 6.11574 15.0853 6.12559 13.9999 6.12559C12.9124 6.12559 11.8348 6.11574 10.7493 6.17681C9.48845 6.23788 8.36947 6.52551 7.44749 7.44751C6.52353 8.37148 6.23788 9.48851 6.17681 10.7494C6.11574 11.8369 6.12559 12.9145 6.12559 14C6.12559 15.0855 6.11574 16.1651 6.17681 17.2506C6.23788 18.5115 6.52551 19.6305 7.44749 20.5525C8.37144 21.4765 9.48845 21.7621 10.7493 21.8232C11.8367 21.8843 12.9144 21.8744 13.9999 21.8744C15.0873 21.8744 16.1649 21.8843 17.2504 21.8232C18.5113 21.7621 19.6302 21.4745 20.5522 20.5525C21.4762 19.6285 21.7618 18.5115 21.8229 17.2506C21.8859 16.1651 21.8741 15.0875 21.8741 14ZM13.9979 18.0406C11.7619 18.0406 9.95732 16.236 9.95732 14C9.95732 11.764 11.7619 9.95936 13.9979 9.95936C16.2339 9.95936 18.0384 11.764 18.0384 14C18.0384 16.236 16.2339 18.0406 13.9979 18.0406ZM18.2039 10.7375C17.6819 10.7375 17.2603 10.3159 17.2603 9.79388C17.2603 9.27181 17.6819 8.85021 18.2039 8.85021C18.726 8.85021 19.1476 9.27181 19.1476 9.79388C19.1477 9.91784 19.1234 10.0406 19.0761 10.1552C19.0287 10.2697 18.9592 10.3738 18.8715 10.4615C18.7839 10.5492 18.6798 10.6187 18.5652 10.666C18.4507 10.7134 18.3279 10.7377 18.2039 10.7375Z" fill="#2927D4"/>
</svg>
