<svg width="40" height="40" viewBox="0 0 40 40" fill="none" xmlns="http://www.w3.org/2000/svg">
<circle cx="20" cy="20" r="20" fill="url(#paint0_linear_758:34104)"/>
<path d="M20.0825 10.4541C23.1912 10.4541 23.5763 10.4541 24.8143 10.5091C25.9422 10.5641 26.5749 10.7567 26.9876 10.9217C27.5378 11.1418 27.923 11.3894 28.3356 11.8021C28.7483 12.2147 28.9959 12.5999 29.2159 13.1501C29.381 13.5627 29.5736 14.168 29.6286 15.3234C29.6836 16.5614 29.6836 16.919 29.6836 20.0552C29.6836 23.1913 29.6836 23.549 29.6286 24.7869C29.5736 25.9149 29.381 26.5476 29.2159 26.9603C28.9959 27.5105 28.7483 27.8956 28.3356 28.3083C27.923 28.7209 27.5378 28.9685 26.9876 29.1886C26.5749 29.3537 25.9697 29.5462 24.8143 29.6012C23.5763 29.6563 23.2187 29.6563 20.0825 29.6563C16.9738 29.6563 16.5887 29.6563 15.3507 29.6012C14.2228 29.5462 13.5901 29.3537 13.1774 29.1886C12.6272 28.9685 12.2421 28.7209 11.8294 28.3083C11.4168 27.8956 11.1692 27.5105 10.9491 26.9603C10.784 26.5476 10.5915 25.9424 10.5364 24.7869C10.4814 23.549 10.4814 23.1913 10.4814 20.0552C10.4814 16.919 10.4814 16.5614 10.5364 15.3234C10.5915 14.1955 10.784 13.5627 10.9491 13.1501C11.1692 12.5999 11.4168 12.2147 11.8294 11.8021C12.2421 11.3894 12.6272 11.1418 13.1774 10.9217C13.5901 10.7567 14.1953 10.5641 15.3507 10.5091C16.5887 10.4816 16.9463 10.4541 20.0825 10.4541ZM20.0825 8.36328C16.9188 8.36328 16.5062 8.36328 15.2682 8.44581C14.0302 8.50083 13.1774 8.69341 12.4346 8.99602C11.6644 9.29863 11.0041 9.68378 10.3714 10.344C9.71112 11.0043 9.32598 11.637 9.02336 12.4073C8.72075 13.1501 8.52818 14.0029 8.47316 15.2409C8.41814 16.4788 8.39062 16.8915 8.39062 20.0552C8.39062 23.2189 8.39062 23.6315 8.47316 24.8695C8.52818 26.1074 8.72075 26.9603 9.02336 27.703C9.32598 28.4733 9.71112 29.1336 10.3714 29.7663C11.0316 30.4266 11.6644 30.8117 12.4346 31.1143C13.1774 31.4169 14.0302 31.6095 15.2682 31.6645C16.5062 31.7195 16.9188 31.7471 20.0825 31.7471C23.2462 31.7471 23.6589 31.7471 24.8968 31.6645C26.1348 31.6095 26.9876 31.4169 27.7304 31.1143C28.5007 30.8117 29.1609 30.4266 29.7937 29.7663C30.4539 29.1061 30.839 28.4733 31.1417 27.703C31.4443 26.9603 31.6368 26.1074 31.6919 24.8695C31.7469 23.6315 31.7744 23.2189 31.7744 20.0552C31.7744 16.8915 31.7744 16.4788 31.6919 15.2409C31.6368 14.0029 31.4443 13.1501 31.1417 12.4073C30.839 11.637 30.4539 10.9768 29.7937 10.344C29.1334 9.68378 28.5007 9.29863 27.7304 8.99602C26.9876 8.69341 26.1348 8.50083 24.8968 8.44581C23.6313 8.36328 23.2462 8.36328 20.0825 8.36328Z" fill="white"/>
<path d="M20.0826 14.0576C16.7538 14.0576 14.0853 16.7536 14.0853 20.0549C14.0853 23.3561 16.7538 26.0521 20.0826 26.0521C23.4113 26.0521 26.0798 23.3561 26.0798 20.0549C26.0798 16.7536 23.3838 14.0576 20.0826 14.0576ZM20.0826 23.9613C17.9368 23.9613 16.1761 22.2282 16.1761 20.0549C16.1761 17.8816 17.9093 16.1484 20.0826 16.1484C22.2559 16.1484 23.989 17.8816 23.989 20.0549C23.989 22.2282 22.2284 23.9613 20.0826 23.9613Z" fill="white"/>
<path d="M26.2998 15.2133C27.0747 15.2133 27.7028 14.5851 27.7028 13.8103C27.7028 13.0354 27.0747 12.4072 26.2998 12.4072C25.5249 12.4072 24.8968 13.0354 24.8968 13.8103C24.8968 14.5851 25.5249 15.2133 26.2998 15.2133Z" fill="white"/>
<defs>
<linearGradient id="paint0_linear_758:34104" x1="20" y1="0" x2="20" y2="84" gradientUnits="userSpaceOnUse">
<stop stop-color="#E85EFF"/>
<stop offset="1" stop-color="#4108E1"/>
</linearGradient>
</defs>
</svg>
