<svg width="55" height="55" viewBox="0 0 55 55" fill="none" xmlns="http://www.w3.org/2000/svg">
<path d="M10.1876 35.9762L6.26195 33.7688C6.17387 33.7192 6.07392 33.6931 5.97221 33.6934C5.87051 33.6936 5.77067 33.72 5.68282 33.7701C5.59496 33.8201 5.52222 33.8919 5.47197 33.9782C5.42171 34.0645 5.39571 34.1623 5.39663 34.2615L5.39663 40.6781C5.39572 40.7778 5.42194 40.876 5.47262 40.9625C5.52329 41.0491 5.59661 41.121 5.68507 41.1708L9.61074 43.4035C9.6986 43.453 9.79829 43.4791 9.89975 43.479C10.0012 43.4789 10.1008 43.4527 10.1886 43.403C10.2764 43.3533 10.3492 43.2819 10.3996 43.196C10.4501 43.11 10.4765 43.0127 10.4761 42.9136L10.4761 36.4661C10.4765 36.3669 10.45 36.2693 10.3993 36.1833C10.3487 36.0972 10.2757 36.0258 10.1876 35.9762Z" fill="#92B8FE"/>
<path d="M47.2838 9.53558L30.3841 18.7536C30.2999 18.7979 30.2058 18.8212 30.1101 18.8212C30.0144 18.8212 29.9203 18.7979 29.8361 18.7536L19.3743 13.5815C19.3271 13.5579 19.2874 13.522 19.2598 13.4777C19.2321 13.4335 19.2174 13.3827 19.2174 13.3309C19.2174 13.2791 19.2321 13.2283 19.2598 13.1841C19.2874 13.1398 19.3271 13.1039 19.3743 13.0803L36.1529 4.19736C36.2459 4.14959 36.3238 4.07792 36.3782 3.99009C36.4325 3.90226 36.4612 3.80161 36.4612 3.69901C36.4612 3.59641 36.4325 3.49576 36.3782 3.40794C36.3238 3.32011 36.2459 3.24844 36.1529 3.20067L30.3956 0.0754416C30.3079 0.0260189 30.2085 -3.19376e-08 30.1072 -3.18041e-08C30.0059 -3.16705e-08 29.9065 0.0260189 29.8188 0.0754416L6.29934 12.9114C6.20704 12.9594 6.12985 13.031 6.07603 13.1185C6.02221 13.2061 5.99377 13.3062 5.99377 13.4083C5.99377 13.5104 6.02221 13.6106 6.07603 13.6981C6.12985 13.7857 6.20704 13.8573 6.29934 13.9053L29.8303 26.7525C29.918 26.8019 30.0175 26.8279 30.1187 26.8279C30.22 26.8279 30.3195 26.8019 30.4072 26.7525L47.3531 17.5119C47.3974 17.4869 47.4478 17.4739 47.499 17.4742C47.5503 17.4745 47.6005 17.4881 47.6445 17.5136C47.6886 17.5391 47.7249 17.5756 47.7497 17.6194C47.7745 17.6631 47.787 17.7125 47.7857 17.7625L47.7857 36.863C47.7866 36.9627 47.7604 37.0609 47.7097 37.1474C47.6591 37.234 47.5857 37.3059 47.4973 37.3557L30.413 47.0242C30.3253 47.0736 30.2258 47.0997 30.1245 47.0997C30.0232 47.0997 29.9238 47.0736 29.8361 47.0242L15.4141 38.9268C15.326 38.8771 15.226 38.8511 15.1243 38.8513C15.0226 38.8516 14.9228 38.878 14.8349 38.928C14.7471 38.9781 14.6743 39.0499 14.6241 39.1362C14.5738 39.2225 14.5478 39.3202 14.5487 39.4195L14.5487 45.8952C14.5478 45.9949 14.574 46.093 14.6247 46.1796C14.6754 46.2662 14.7487 46.3381 14.8372 46.3879L29.8361 54.9246C29.9238 54.974 30.0232 55 30.1245 55C30.2258 55 30.3253 54.974 30.413 54.9246L46.1993 46.0106L54.7112 41.3369C54.8001 41.2868 54.8737 41.2145 54.9244 41.1274C54.9751 41.0402 55.001 40.9415 54.9996 40.8413L54.9996 13.711C55.001 13.6108 54.9751 13.5121 54.9244 13.425C54.8737 13.3379 54.8001 13.2655 54.7112 13.2155L47.8492 9.53558C47.7629 9.48823 47.6655 9.46335 47.5665 9.46335C47.4675 9.46335 47.3701 9.48823 47.2838 9.53558Z" fill="url(#paint0_linear_758:56251)"/>
<path d="M9.37745 29.4022L13.9925 31.9727C14.0806 32.0224 14.1806 32.0484 14.2823 32.0482C14.384 32.048 14.4838 32.0215 14.5716 31.9715C14.6595 31.9215 14.7322 31.8497 14.7825 31.7633C14.8328 31.677 14.8588 31.5793 14.8578 31.48L14.8578 24.9339C14.8593 24.8338 14.8333 24.735 14.7826 24.6479C14.7319 24.5608 14.6583 24.4885 14.5694 24.4384L9.95434 21.9044C9.86626 21.8548 9.7663 21.8288 9.66459 21.829C9.56289 21.8292 9.46305 21.8557 9.3752 21.9057C9.28735 21.9557 9.2146 22.0275 9.16434 22.1138C9.11409 22.2001 9.0881 22.2979 9.08901 22.3972L9.08901 28.9207C9.09012 29.0185 9.11731 29.1143 9.16788 29.1987C9.21846 29.2832 9.29068 29.3533 9.37745 29.4022Z" fill="#92B8FE"/>
<path d="M5.0939 19.2041L0.865347 16.8644C0.777269 16.8148 0.677309 16.7887 0.575603 16.7889C0.473897 16.7892 0.374059 16.8156 0.286207 16.8656C0.198355 16.9157 0.125614 16.9875 0.0753554 17.0738C0.0250967 17.1601 -0.000891792 17.2578 2.33594e-05 17.3571L2.33506e-05 23.8328C-0.00089099 23.9325 0.025329 24.0307 0.0760068 24.1172C0.126685 24.2038 0.200003 24.2757 0.288465 24.3255L4.51701 26.6877C4.60509 26.7374 4.70505 26.7634 4.80675 26.7632C4.90846 26.763 5.0083 26.7365 5.09615 26.6865C5.184 26.6365 5.25675 26.5647 5.307 26.4783C5.35726 26.392 5.38325 26.2943 5.38234 26.195L5.38234 19.6968C5.38325 19.5971 5.35703 19.499 5.30635 19.4124C5.25567 19.3258 5.18236 19.2539 5.0939 19.2041Z" fill="#82B9FC"/>
<path d="M18.9246 27.8306L18.9246 34.402C18.9237 34.5017 18.9499 34.5998 19.0006 34.6864C19.0512 34.773 19.1246 34.8449 19.213 34.8947L29.245 40.4976C29.333 40.5472 29.433 40.5733 29.5347 40.5731C29.6364 40.5728 29.7363 40.5464 29.8241 40.4963C29.912 40.4463 29.9847 40.3745 30.035 40.2882C30.0852 40.2019 30.1112 40.1042 30.1103 40.0049L30.1103 33.38C30.1112 33.2803 30.085 33.1821 30.0343 33.0955C29.9836 33.009 29.9103 32.9371 29.8219 32.8872L19.7957 27.335C19.7072 27.2838 19.6064 27.2566 19.5036 27.2562C19.4008 27.2558 19.2997 27.2823 19.2109 27.3328C19.1221 27.3833 19.0487 27.4561 18.9983 27.5437C18.948 27.6312 18.9225 27.7302 18.9246 27.8306Z" fill="#86AFFE"/>
<defs>
<linearGradient id="paint0_linear_758:56251" x1="-20.4477" y1="2.06038" x2="46.8724" y2="37.6056" gradientUnits="userSpaceOnUse">
<stop offset="0.01" stop-color="#A9CDFE"/>
<stop offset="1" stop-color="#D9E7FE"/>
</linearGradient>
</defs>
</svg>
