<svg width="40" height="40" viewBox="0 0 40 40" fill="none" xmlns="http://www.w3.org/2000/svg">
<path d="M20 40C31.0457 40 40 31.0457 40 20C40 8.9543 31.0457 0 20 0C8.9543 0 0 8.9543 0 20C0 31.0457 8.9543 40 20 40Z" fill="#47B0D3"/>
<path d="M2.72727 20C2.72727 9.45455 10.9091 0.727273 21.2727 0C20.9091 0 20.3636 0 20 0C8.90909 0 0 8.90909 0 20C0 31.0909 8.90909 40 20 40C20.3636 40 20.9091 40 21.2727 40C10.9091 39.2727 2.72727 30.5455 2.72727 20Z" fill="#3298BA"/>
<path d="M29.6367 8.54554C29.4549 8.36373 29.2731 8.36373 28.9094 8.54554L7.6367 18.5455C7.27307 18.7274 7.09125 19.091 7.09125 19.4546C7.09125 19.8183 7.27307 20.1819 7.6367 20.3637L27.4549 29.091C28.1822 29.4546 28.9094 28.9092 28.9094 28.1819L30.0003 9.091C30.0003 8.90918 29.8185 8.72736 29.6367 8.54554Z" fill="#E5E5E5"/>
<path d="M13.4549 22.9091L14.7276 31.8181L29.6367 8.54541L13.4549 22.9091Z" fill="#CCCCCC"/>
<path d="M29.0912 8.54554L7.6367 18.5455C7.27307 18.7274 7.09125 19.091 7.09125 19.4546C7.09125 19.8183 7.27307 20.1819 7.6367 20.3637L13.4549 22.9092L29.6367 8.54554C29.4549 8.36373 29.2731 8.36373 29.0912 8.54554Z" fill="white"/>
<path d="M16.5451 24.3636L14.7269 31.8181L29.636 8.54541L16.5451 24.3636Z" fill="#E5E5E5"/>
<path d="M29.6364 8.54541L16.3636 24.3636L27.2727 29.0909C28 29.4545 28.7273 28.909 28.7273 28.1818L30 9.09087C30 8.90905 29.8182 8.72723 29.6364 8.54541Z" fill="white"/>
</svg>
