<svg width="79" height="79" viewBox="0 0 79 79" fill="none" xmlns="http://www.w3.org/2000/svg">
<path d="M75.6143 24.0762C77.746 28.9667 78.7492 33.9825 78.7492 39.3746C78.7492 44.7667 77.746 49.7825 75.6143 54.673C73.4825 59.5635 70.7238 63.7016 67.2127 67.2127C63.7016 70.7238 59.5635 73.4825 54.673 75.6143C49.7825 77.746 44.7667 78.7492 39.3746 78.7492C33.9825 78.7492 28.9667 77.746 24.0762 75.6143C19.1857 73.4825 15.0476 70.7238 11.5365 67.2127C8.0254 63.7016 5.26667 59.5635 3.13492 54.673C1.00317 49.7825 0 44.6413 0 39.3746C0 34.1079 1.00317 28.9667 3.13492 24.0762C5.26667 19.1857 8.0254 15.0476 11.5365 11.5365C15.0476 8.0254 19.1857 5.26667 24.0762 3.13492C28.9667 1.00317 33.9825 0 39.3746 0C44.7667 0 49.7825 1.00317 54.673 3.13492C59.5635 5.26667 63.7016 8.0254 67.2127 11.5365C70.7238 15.0476 73.4825 19.1857 75.6143 24.0762ZM52.2905 57.4318L58.8111 26.9603C59.0619 25.7064 58.9365 24.7032 58.3095 24.2016C57.6825 23.7 56.9302 23.5746 56.0524 23.9508L18.0571 38.4968C17.1794 38.873 16.6778 39.1238 16.3016 39.6254C16.0508 40.0016 15.9254 40.3778 16.1762 40.754C16.427 41.1302 16.9286 41.381 17.5556 41.6318L27.2111 44.6413L49.7825 30.4714C50.4095 30.0952 50.9111 29.9698 51.1619 30.2206C51.4127 30.346 51.2873 30.5968 51.0365 30.8476L32.854 47.4L32.1016 57.4318C32.7286 57.4318 33.481 57.0556 34.1079 56.4286L38.873 51.9143L48.654 59.1873C50.5349 60.1905 51.7889 59.5635 52.2905 57.4318Z" fill="#EBF1FF"/>
</svg>
