<svg width="40" height="40" viewBox="0 0 40 40" fill="none" xmlns="http://www.w3.org/2000/svg">
<path d="M20 40C31.0457 40 40 31.0457 40 20C40 8.9543 31.0457 0 20 0C8.9543 0 0 8.9543 0 20C0 31.0457 8.9543 40 20 40Z" fill="#6F3FAA"/>
<g clip-path="url(#clip0_758:34065)">
<path d="M30.0906 13.2941C29.0682 11.3863 27.9947 10.4567 25.7045 9.7594C23.4143 9.05246 20.7969 9.0912 19.9995 9.0912C19.1917 9.0912 16.5744 9.05246 14.2944 9.7594C12.0042 10.4663 10.9205 11.3863 9.89806 13.2941C8.87565 15.2018 9.11081 18.1555 9.11081 18.6784C9.11081 19.211 9.09036 21.9323 9.69358 23.5689C10.307 25.2055 11.5646 26.7743 14.3149 27.6071C14.3251 27.6071 14.3353 27.6168 14.3558 27.6168C14.3558 28.3818 14.3558 30.0378 14.3558 30.0378C14.3558 30.2799 14.458 30.5511 14.6625 30.7157C14.867 30.8803 15.1226 30.9094 15.3782 30.8997C15.6338 30.89 15.6849 30.8222 15.8485 30.706C15.9916 30.5995 17.6786 28.8273 18.1898 28.285C19.0588 28.3431 19.703 28.3237 19.9995 28.3431C20.6538 28.2947 22.9235 28.4399 25.6738 27.6071C28.4241 26.7743 29.6919 25.2055 30.2951 23.5689C30.9085 21.9323 30.8779 19.211 30.8779 18.6784C30.8779 18.1555 31.113 15.2018 30.0906 13.2941ZM29.1807 18.3685C29.1807 18.5041 29.1704 18.6009 29.1704 18.6881V18.7462C29.1704 21.3318 28.8637 22.5424 28.6797 23.0362C28.1174 24.547 26.9927 25.5154 25.1422 26.0674C23.1178 26.6774 21.3899 26.7065 20.4595 26.7162C20.2755 26.7162 20.1221 26.7162 19.9892 26.7259C19.8563 26.7162 19.703 26.7162 19.5189 26.7162C19.2633 26.7162 18.9464 26.7065 18.5783 26.6871C17.9751 27.3456 15.7667 29.757 15.5418 29.9894C15.2861 30.2605 15.2146 30.2218 15.1328 30.2024C15.051 30.1831 14.9897 30.0862 14.9897 29.9313C14.9897 29.9313 14.9897 26.9486 14.9897 26.1158C14.9385 26.1061 14.8976 26.0867 14.8465 26.077C12.996 25.5154 11.8713 24.5566 11.309 23.0459C11.125 22.552 10.8182 21.3415 10.8182 18.7559V18.6978C10.8182 18.6106 10.8182 18.5138 10.808 18.3782C10.7876 17.6325 10.7058 15.3568 11.4214 14.0398C12.2598 12.4613 13.0266 11.8415 14.8158 11.2992C16.738 10.7084 18.9975 10.7084 19.7438 10.7084H19.9995H20.2551C21.0014 10.7084 23.2609 10.7084 25.1831 11.2992C26.9723 11.8512 27.7391 12.4613 28.5775 14.0301C29.2829 15.3471 29.2113 17.6229 29.1807 18.3685Z" fill="white"/>
<path d="M13.9781 16.1416C15.2664 19.1049 17.076 20.9836 17.4441 21.3516C17.8224 21.6905 19.8161 23.4143 22.9446 24.6345C23.4967 24.8475 24.4374 24.7216 24.9383 24.0438C25.4393 23.3659 25.6336 22.9979 25.6438 22.7364C25.654 22.4749 25.654 22.2425 24.3044 21.3903C22.9549 20.5284 22.5459 20.3251 22.1778 20.664C21.8098 21.003 21.6155 21.3419 21.4724 21.4581C21.3292 21.5743 21.0225 21.739 20.3579 21.4387C19.6934 21.1385 19.2844 21.003 18.5278 20.3251C17.8019 19.6085 17.669 19.2211 17.3521 18.5916C17.0351 17.9622 17.2089 17.6717 17.3316 17.5361C17.4543 17.4005 17.8122 17.2165 18.17 16.8679C18.5278 16.5193 18.3131 16.1319 17.4032 14.8536C16.4932 13.5753 16.2581 13.5753 15.982 13.585C15.706 13.5947 15.3277 13.7787 14.6018 14.2532C13.8861 14.7277 13.743 15.6186 13.9781 16.1416Z" fill="white"/>
<path d="M25.6446 19.3081C25.4913 19.3081 25.3583 19.1919 25.3481 19.0466C25.0721 14.0787 21.4323 13.517 19.8373 13.517C19.8271 13.517 19.8067 13.517 19.7964 13.517H19.7555C19.592 13.517 19.459 13.3911 19.459 13.2362C19.459 13.0812 19.592 12.9553 19.7555 12.9553H19.7862C20.9518 12.9457 22.0457 13.2071 22.9761 13.701C23.7838 14.1368 24.4484 14.7469 24.9289 15.5216C25.5219 16.4513 25.8593 17.6327 25.9309 19.0079C25.9411 19.1628 25.8184 19.2887 25.6548 19.2984C25.6548 19.3081 25.6548 19.3081 25.6446 19.3081Z" fill="white"/>
<path d="M24.1098 18.7269C23.9564 18.7269 23.8235 18.6107 23.8133 18.4654C23.6395 15.3374 21.3595 14.9888 20.3575 14.9888C20.3473 14.9888 20.3371 14.9888 20.3268 14.9888H20.3064C20.1428 14.9888 20.0099 14.8629 20.0099 14.708C20.0099 14.553 20.1428 14.4271 20.3064 14.4271H20.3268C21.0936 14.4175 21.8196 14.5918 22.433 14.921C23.2612 15.3665 24.2836 16.3349 24.396 18.4267C24.4063 18.5816 24.2836 18.7075 24.12 18.7172C24.12 18.7269 24.1098 18.7269 24.1098 18.7269Z" fill="white"/>
<path d="M22.5976 18.1651C22.4442 18.1651 22.3113 18.0489 22.3011 17.9036C22.2295 16.6544 21.3911 16.4704 20.8901 16.4704H20.8799H20.8697C20.7061 16.4704 20.5732 16.3445 20.5732 16.1895C20.5732 16.0346 20.7061 15.9087 20.8697 15.9087H20.8799C20.8901 15.9087 20.8901 15.9087 20.9004 15.9087C21.8205 15.9087 22.8123 16.4219 22.8941 17.8649C22.9043 18.0198 22.7816 18.1457 22.618 18.1554C22.6078 18.1651 22.5976 18.1651 22.5976 18.1651Z" fill="white"/>
</g>
<defs>
<clipPath id="clip0_758:34065">
<rect width="21.8182" height="21.8182" fill="white" transform="translate(9.09091 9.09082)"/>
</clipPath>
</defs>
</svg>
