<svg width="134" height="134" fill="none" xmlns="http://www.w3.org/2000/svg"><path d="M24.82 87.651l-9.564-5.378a1.43 1.43 0 00-1.41.003 1.389 1.389 0 00-.514.507c-.123.21-.186.449-.184.69v15.634c-.002.243.062.482.185.693.124.211.302.386.518.507l9.564 5.44a1.431 1.431 0 001.408-.002 1.39 1.39 0 00.514-.504c.123-.209.187-.446.186-.688V88.845a1.347 1.347 0 00-.187-.69 1.39 1.39 0 00-.515-.504z" fill="#92B8FE"/><path d="M115.201 23.232L74.027 45.691a1.434 1.434 0 01-1.335 0L47.203 33.089a.696.696 0 01-.279-.252.673.673 0 010-.716.696.696 0 01.28-.253l40.878-21.642c.227-.116.417-.29.549-.505a1.347 1.347 0 000-1.418 1.392 1.392 0 00-.549-.505L74.055.184a1.432 1.432 0 00-1.405 0L15.348 31.457a1.393 1.393 0 00-.544.505 1.348 1.348 0 000 1.412c.131.213.32.387.544.504l57.33 31.3a1.432 1.432 0 001.406 0l41.286-22.512a.715.715 0 01.966.261.668.668 0 01.088.349v46.536c.002.243-.062.482-.185.693a1.39 1.39 0 01-.518.507l-41.624 23.556a1.437 1.437 0 01-1.405 0L37.555 94.84a1.432 1.432 0 00-1.411.003 1.39 1.39 0 00-.514.507c-.122.21-.186.448-.184.69v15.777c-.002.243.062.482.186.693.123.211.302.386.517.508l36.543 20.798a1.426 1.426 0 001.406 0l38.461-21.717 20.738-11.387c.216-.122.396-.299.519-.511.124-.212.187-.453.184-.697V33.405a1.347 1.347 0 00-.184-.697 1.388 1.388 0 00-.519-.51l-16.719-8.966a1.43 1.43 0 00-1.377 0z" fill="url(#paint0_linear_833:44853)"/><path d="M22.846 71.634l11.244 6.263a1.433 1.433 0 001.411-.003 1.39 1.39 0 00.514-.507c.123-.21.186-.449.184-.69v-15.95a1.346 1.346 0 00-.184-.696 1.388 1.388 0 00-.52-.51l-11.243-6.174a1.433 1.433 0 00-1.411.003 1.389 1.389 0 00-.514.507 1.34 1.34 0 00-.183.69v15.894c.002.238.069.472.192.677.123.206.299.377.51.496z" fill="#92B8FE"/><path d="M12.41 46.788l-10.302-5.7a1.433 1.433 0 00-1.41.003 1.389 1.389 0 00-.514.507c-.123.21-.186.449-.184.69v15.778c-.002.243.062.482.185.693.124.21.302.386.518.507l10.302 5.755a1.433 1.433 0 001.411-.003 1.39 1.39 0 00.514-.507 1.34 1.34 0 00.183-.69V47.989a1.345 1.345 0 00-.185-.693 1.39 1.39 0 00-.517-.508z" fill="#82B9FC"/><path d="M46.107 67.805v16.01c-.002.244.062.483.185.694.124.21.302.386.518.507l24.441 13.651a1.433 1.433 0 001.411-.003 1.39 1.39 0 00.514-.507c.123-.21.186-.448.184-.69V81.326a1.347 1.347 0 00-.186-.693 1.39 1.39 0 00-.517-.508L48.23 66.598a1.431 1.431 0 00-1.425-.005c-.217.123-.395.3-.518.513a1.347 1.347 0 00-.18.7z" fill="#86AFFE"/><defs><linearGradient id="paint0_linear_833:44853" x1="-49.818" y1="5.02" x2="114.199" y2="91.621" gradientUnits="userSpaceOnUse"><stop offset=".01" stop-color="#A9CDFE"/><stop offset="1" stop-color="#D9E7FE"/></linearGradient></defs></svg>